<svg width="30" height="30" viewBox="0 0 30 30" fill="currentColor" xmlns="http://www.w3.org/2000/svg">
<path fill-rule="evenodd" clip-rule="evenodd" d="M16.25 6.25875H23.125C23.3617 6.25875 23.5781 6.3925 23.684 6.60424C23.7899 6.81598 23.767 7.06936 23.625 7.25875L20.1562 11.8837L23.625 16.5087C23.767 16.6981 23.7899 16.9515 23.684 17.1633C23.5781 17.375 23.3617 17.5087 23.125 17.5087H16.875C15.8395 17.5087 15 16.6693 15 15.6337C15 15.2886 14.7202 15.0087 14.375 15.0087H7.5V25.6338C7.5 25.9789 7.22018 26.2588 6.875 26.2588C6.52982 26.2588 6.25 25.9789 6.25 25.6338V5.625C6.25 4.58947 7.08947 3.75 8.125 3.75H14.375C15.4105 3.75 16.25 4.58947 16.25 5.625V6.25875Z" />
</svg>
