<?xml version="1.0" encoding="utf-8"?>
<!-- Generator: Adobe Illustrator 28.0.0, SVG Export Plug-In . SVG Version: 6.00 Build 0)  -->
<svg version="1.1" id="Layer_1" xmlns="http://www.w3.org/2000/svg" xmlns:xlink="http://www.w3.org/1999/xlink" x="0px" y="0px"
	 viewBox="0 0 2709.4 2396.6" style="enable-background:new 0 0 2709.4 2396.6;" xml:space="preserve">
<style type="text/css">
	.st0{fill:#FFFFFF;fill-opacity:0;}
	.st1{fill:#E7F3FF;}
	.st2{fill:#FFFFFF;}
	.st3{fill:#D8EAFC;}
	.st4{fill:#255384;}
	.st5{fill:#4E7AAF;}
	.st6{fill:#A1D0F7;}
	.st7{fill:#2D69C9;}
	.st8{fill:#CCE3FF;}
	.st9{fill:#FFB37B;}
	.st10{fill:#EF4C48;}
	.st11{opacity:0.3;}
	.st12{fill:#75A1DD;}
	.st13{clip-path:url(#SVGID_00000000190666002857836190000005431357578982351294_);}
	.st14{opacity:0.5;}
	.st15{fill:#FF9739;}
	.st16{clip-path:url(#SVGID_00000136398121355460949610000006788832120242440634_);}
	.st17{fill:#0F2E51;}
	.st18{clip-path:url(#SVGID_00000028322128003657262520000012066873213224405127_);}
	.st19{fill:#092038;}
	.st20{clip-path:url(#SVGID_00000080919926184059975390000006429218641997065367_);}
	.st21{fill:#EF9152;}
	.st22{fill:#683310;}
	.st23{fill:#3F1E07;}
	.st24{fill:#F27949;}
	.st25{clip-path:url(#SVGID_00000178916466651891944690000014989977781375201169_);}
	.st26{fill:#323F5F;}
	.st27{fill:#EA8B49;}
	.st28{clip-path:url(#SVGID_00000124845466051177111320000004508215312909680019_);}
	.st29{fill:#4475BD;}
	.st30{clip-path:url(#SVGID_00000080906967543096332770000016884423392435905174_);}
	.st31{fill:#1B446D;}
	.st32{clip-path:url(#SVGID_00000052067043029246946650000007028947888323841970_);}
	.st33{opacity:0.6;}
	.st34{fill:#3B6D96;}
	.st35{clip-path:url(#SVGID_00000021799542848081239410000003141316551476324527_);}
	.st36{fill:#DD2F37;}
</style>
<g id="_06">
	<rect id="_06-2" x="-977.2" y="-356.3" class="st0" width="4680" height="3120"/>
	<path class="st1" d="M1957,101.2c-20.2-35-57.6-56.6-98-56.6h-762.1c-40.4,0-77.8,21.6-98,56.6L638.8,725
		c-33.1,57.3-33.1,128,0,185.3L999,1534.3c20.2,35,57.6,56.6,98,56.6h762.1c40.4,0,77.8-21.6,98-56.6l381-660
		c20.2-35,20.2-78.1,0-113.1L1957,101.2z"/>
	<path class="st2" d="M791.6,515.4c-3.2,0-5.8,2.6-5.8,5.8v577.1c0,3.2,2.6,5.8,5.8,5.8s5.8-2.6,5.8-5.8V521.2
		C797.4,518,794.8,515.5,791.6,515.4z"/>
	<path class="st2" d="M1060.1,76.3c-3.2,0-5.8,2.6-5.8,5.8v1464.3c0.1,3.2,2.8,5.7,6,5.5c3-0.1,5.4-2.5,5.5-5.5V82.1
		C1065.9,78.9,1063.3,76.3,1060.1,76.3z"/>
	<path class="st2" d="M1328.7,76.3c-3.2,0-5.8,2.6-5.8,5.8v1464.3c0.1,3.2,2.8,5.7,6,5.5c3-0.1,5.4-2.5,5.5-5.5V82.1
		C1334.4,78.9,1331.8,76.3,1328.7,76.3z"/>
	<path class="st2" d="M1597.2,76.3c-3.2,0-5.8,2.6-5.8,5.8v1464.3c0,3.2,2.6,5.8,5.8,5.8s5.8-2.6,5.8-5.8V82.1
		C1602.9,78.9,1600.4,76.3,1597.2,76.3z"/>
	<path class="st2" d="M1865.7,76.3c-3.2,0-5.8,2.6-5.8,5.8v1464.3c0.1,3.2,2.8,5.7,6,5.5c3-0.1,5.4-2.5,5.5-5.5V82.1
		C1871.5,78.9,1868.9,76.3,1865.7,76.3z"/>
	<path class="st2" d="M2134.2,469.1c-3.2,0-5.8,2.6-5.8,5.8c0,0,0,0,0,0v668.2c0.1,3.2,2.8,5.7,6,5.5c3-0.1,5.4-2.5,5.5-5.5V474.9
		C2140,471.7,2137.4,469.1,2134.2,469.1z"/>
	<path class="st2" d="M1938.8,132.1h-933.6c-3.2,0-5.8,2.6-5.8,5.8c0,3.2,2.6,5.8,5.8,5.8l0,0h933.6c3.2,0,5.8-2.6,5.8-5.8
		C1944.5,134.7,1941.9,132.1,1938.8,132.1z"/>
	<path class="st2" d="M2094.5,400.7H851.6c-3.2,0-5.8,2.6-5.8,5.8c0,3.2,2.6,5.8,5.8,5.8c0,0,0,0,0,0h1243c3.2,0,5.8-2.6,5.8-5.8
		C2100.3,403.3,2097.8,400.7,2094.5,400.7L2094.5,400.7z"/>
	<path class="st2" d="M2241.7,669.2H690.8c-3.2,0-5.8,2.6-5.8,5.8s2.6,5.8,5.8,5.8l0,0h1550.9c3.2,0,5.8-2.6,5.8-5.8
		S2244.9,669.2,2241.7,669.2z"/>
	<path class="st2" d="M2252.9,937.7H690.8c-3.2,0.1-5.7,2.8-5.5,6c0.1,3,2.5,5.4,5.5,5.5h1562.1c3.2-0.1,5.7-2.8,5.5-6
		C2258.3,940.2,2255.9,937.8,2252.9,937.7z"/>
	<path class="st2" d="M2095.1,1206.2H839.6c-3.2,0-5.8,2.6-5.8,5.8s2.6,5.8,5.8,5.8l0,0h1255.6c3.2,0,5.8-2.6,5.8-5.8
		S2098.3,1206.2,2095.1,1206.2z"/>
	<path class="st2" d="M1944.6,1474.7H998.4c-3.2,0.1-5.7,2.8-5.5,6c0.1,3,2.5,5.4,5.5,5.5h946.1c3.2-0.1,5.7-2.8,5.5-6
		C1950,1477.2,1947.6,1474.8,1944.6,1474.7z"/>
	<path class="st3" d="M958.3,253.8c-2.5-9.8-12.5-15.8-22.3-13.3c0,0,0,0,0,0l-37.1,9.3c-7.7,2-15.8-1.2-20.1-7.8
		c-4.7-7.3-10-14.4-15.6-21c-5.2-6-6-14.7-1.9-21.5l19.7-33c5.2-8.7,2.4-20-6.3-25.2c0,0,0,0,0,0l-52.3-31.3
		c-8.7-5.2-20-2.4-25.2,6.4l-19.7,33c-4.1,6.8-12.1,10.2-19.9,8.5c-8.6-1.9-17.2-3.1-25.9-3.8c-7.9-0.7-14.5-6.3-16.4-14l-9.4-37.1
		c-2.5-9.8-12.5-15.8-22.3-13.3c0,0,0,0,0,0l-59.1,14.9c-9.8,2.5-15.8,12.5-13.3,22.3l9.3,37.1c2,7.7-1.2,15.8-7.8,20.1
		c-7.3,4.7-14.4,9.9-21,15.6c-6,5.2-14.7,6-21.5,1.9l-33-19.7c-8.7-5.2-20-2.4-25.2,6.4l-31.3,52.3c-5.2,8.7-2.4,20,6.3,25.3
		c0,0,0,0,0,0l33,19.7c6.8,4.1,10.2,12.1,8.5,19.9c-1.8,8.6-3.1,17.2-3.8,25.9c-0.7,7.9-6.3,14.5-14,16.4l-37.1,9.3
		c-9.8,2.5-15.8,12.5-13.3,22.3c0,0,0,0,0,0l14.9,59.1c2.5,9.8,12.5,15.8,22.4,13.3c0,0,0,0,0,0l37.1-9.3c7.7-2,15.8,1.2,20.1,7.8
		c4.7,7.3,9.9,14.4,15.6,21c5.2,6,6,14.7,1.9,21.5l-19.7,33c-5.2,8.7-2.4,20,6.4,25.2l52.3,31.3c8.7,5.2,20,2.4,25.2-6.3
		c0,0,0,0,0,0l19.7-33c4.1-6.8,12.1-10.2,19.9-8.5c8.5,1.9,17.2,3.1,25.9,3.8c7.9,0.7,14.5,6.3,16.4,14l9.3,37.1
		c2.4,9.9,12.4,15.9,22.3,13.4c0,0,0,0,0.1,0l59.1-14.9c9.9-2.5,15.8-12.5,13.3-22.3l-9.3-37.1c-2-7.7,1.2-15.8,7.8-20.1
		c7.3-4.7,14.4-9.9,21-15.6c6-5.2,14.7-6,21.5-1.9l33,19.7c8.7,5.2,20,2.4,25.2-6.3c0,0,0,0,0,0l31.3-52.4c5.2-8.7,2.4-20-6.4-25.2
		l-33-19.7c-6.8-4.1-10.2-12.1-8.5-19.9c1.9-8.5,3.1-17.2,3.8-25.9c0.7-7.9,6.3-14.5,14-16.4l37.1-9.3c9.9-2.5,15.8-12.5,13.4-22.3
		c0,0,0,0,0,0L958.3,253.8z M781.9,385.1c-21.6,36.1-68.2,47.8-104.3,26.3c-36.1-21.6-47.8-68.2-26.3-104.3
		c21.5-36,68.2-47.8,104.3-26.3C791.7,302.4,803.4,349,781.9,385.1z"/>
	<circle class="st2" cx="720.7" cy="341.6" r="160.4"/>
	<path class="st3" d="M757.2,372.9c-2.5-1.1-3.8-4-2.7-6.5c0.3-0.8,0.9-1.5,1.6-2.1c16.7-12,26-31.7,24.7-52.2
		c-2-33.2-30.6-58.5-63.8-56.5c-31.8,1.9-56.7,28.3-56.6,60.3c0,19.2,9.2,37.2,24.8,48.4c2.2,1.6,2.7,4.8,1.1,7
		c-0.5,0.7-1.3,1.3-2.1,1.7c-35.2,14.4-60.1,48.6-60.1,89v1.6c57.2,43.2,136.1,43.2,193.3,0v-1.6
		C817.3,421.5,792.4,387.3,757.2,372.9z"/>
	<path class="st3" d="M2228,239.5c-1.3-5.2-6.6-8.4-11.9-7.1l-19.8,5c-4.1,1.1-8.4-0.6-10.7-4.2c-2.5-3.9-5.3-7.7-8.3-11.2
		c-2.8-3.2-3.2-7.8-1-11.5l10.5-17.6c2.8-4.6,1.3-10.7-3.4-13.4c0,0,0,0,0,0l-27.9-16.7c-4.6-2.8-10.7-1.3-13.4,3.4c0,0,0,0,0,0
		l-10.5,17.6c-2.2,3.6-6.4,5.4-10.6,4.5c-4.6-1-9.2-1.7-13.8-2c-4.2-0.4-7.7-3.3-8.7-7.4l-5-19.8c-1.3-5.2-6.6-8.4-11.9-7.1
		l-31.5,7.9c-5.2,1.3-8.4,6.6-7.1,11.9l5,19.8c1,4.1-0.6,8.4-4.2,10.7c-3.9,2.5-7.7,5.3-11.2,8.3c-3.2,2.8-7.8,3.2-11.5,1
		l-17.6-10.5c-4.6-2.8-10.7-1.3-13.4,3.4c0,0,0,0,0,0l-16.6,27.9c-2.8,4.6-1.3,10.7,3.4,13.4c0,0,0,0,0,0l17.6,10.5
		c3.6,2.2,5.4,6.5,4.5,10.6c-1,4.6-1.6,9.2-2,13.8c-0.3,4.2-3.3,7.7-7.4,8.7l-19.8,5c-5.2,1.3-8.4,6.6-7.1,11.9l7.9,31.4
		c1.3,5.2,6.6,8.4,11.9,7.1l19.8-5c4.1-1,8.4,0.6,10.7,4.2c2.5,3.9,5.3,7.7,8.3,11.2c2.8,3.2,3.2,7.8,1,11.5l-10.5,17.6
		c-2.8,4.6-1.3,10.7,3.4,13.4c0,0,0,0,0,0l27.9,16.7c4.6,2.8,10.7,1.3,13.4-3.4l10.5-17.6c2.2-3.6,6.5-5.4,10.6-4.5
		c4.6,1,9.2,1.6,13.8,2c4.2,0.3,7.7,3.3,8.7,7.4l5,19.8c1.3,5.2,6.6,8.4,11.9,7.1l31.5-7.9c5.2-1.3,8.4-6.6,7.1-11.9c0,0,0,0,0,0
		l-5-19.8c-1-4.1,0.6-8.4,4.2-10.7c3.9-2.5,7.7-5.3,11.2-8.3c3.2-2.8,7.8-3.2,11.5-1L2195,376c4.6,2.8,10.6,1.3,13.4-3.3l16.6-27.9
		c2.8-4.6,1.3-10.7-3.4-13.4c0,0,0,0,0,0l-17.6-10.5c-3.6-2.2-5.4-6.4-4.5-10.6c1-4.6,1.6-9.2,2-13.8c0.4-4.2,3.3-7.7,7.4-8.7
		l19.8-5c5.2-1.3,8.4-6.6,7.1-11.9L2228,239.5z M2134.1,309.4c-11.5,19.2-36.3,25.5-55.5,14c-19.2-11.5-25.5-36.3-14-55.5
		c11.5-19.2,36.3-25.5,55.5-14C2139.3,265.3,2145.6,290.2,2134.1,309.4L2134.1,309.4z"/>
	<path class="st2" d="M1200.3,1336.3c-1.3,0-2.4,1.1-2.4,2.4c0,1.3,1.1,2.4,2.4,2.5c1.3,0,2.4-1.1,2.4-2.4c0,0,0,0,0,0
		C1202.7,1337.3,1201.7,1336.3,1200.3,1336.3z"/>
	<path d="M1200.3,1335.3c-1.9,0-3.4,1.5-3.4,3.4c0,1.9,1.5,3.4,3.4,3.5c1.9,0,3.4-1.5,3.4-3.4c0,0,0,0,0,0
		C1203.7,1336.8,1202.2,1335.3,1200.3,1335.3z M1200.3,1340.1c-0.8,0-1.4-0.6-1.4-1.4s0.6-1.4,1.4-1.4c0.8,0,1.4,0.6,1.4,1.4l0,0
		C1201.8,1339.5,1201.1,1340.1,1200.3,1340.1C1200.3,1340.1,1200.3,1340.1,1200.3,1340.1z"/>
	<path class="st4" d="M1000.9,282.8h755.8c14.2,0,25.6,11.5,25.6,25.6v1522.9c0,14.2-11.5,25.6-25.6,25.6h-755.8
		c-14.2,0-25.6-11.5-25.6-25.6V308.5C975.3,294.3,986.7,282.8,1000.9,282.8z"/>
	<path class="st5" d="M924.5,282.8h791.4c14.2,0,25.6,11.5,25.6,25.6v1522.9c0,14.2-11.5,25.6-25.6,25.6H924.5
		c-14.2,0-25.6-11.5-25.6-25.6V308.5C898.9,294.3,910.4,282.8,924.5,282.8z"/>
	<path class="st3" d="M1678.6,331.4h-716c-17.4,0-31.4,14.8-31.4,33.1v1410.9c0,18.3,14.1,33.1,31.4,33.1h716
		c17.4,0,31.4-14.8,31.4-33.1V364.6C1710.1,346.3,1696,331.4,1678.6,331.4z"/>
	<path class="st5" d="M1188.8,303.8h231.9c10.9,0,19.7,8.8,19.7,19.7v15.8c0,10.9-8.8,19.7-19.7,19.7h-231.9
		c-10.9,0-19.7-8.8-19.7-19.7v-15.8C1169,312.7,1177.9,303.8,1188.8,303.8z"/>
	<circle class="st6" cx="1321.7" cy="712.7" r="261.7"/>
	<path class="st7" d="M1406.6,667h-11c-3,0-5.4-2.4-5.4-5.4v-14.2c0-37.8-30.1-69.1-67.9-69.4c-37.9-0.3-68.9,30.1-69.2,68
		c0,0.2,0,0.4,0,0.5v15.1c0,3-2.4,5.4-5.4,5.4h-11.1c-12.9,0-23.3,10.5-23.3,23.3v133.4c0,12.9,10.4,23.5,23.3,23.6h170
		c13,0,23.6-10.6,23.6-23.6l0,0V690.4C1430.1,677.4,1419.5,667,1406.6,667z M1337.3,762.9c-1.9,1-3,2.9-3,5v51.7
		c0,1.4-1.2,2.5-2.6,2.5c0,0,0,0-0.1,0h-16.3c-1.4,0-2.5-1.1-2.5-2.5v-51.7c0-2.1-1.1-4-3-5c-14.7-7.6-20.4-25.7-12.8-40.4
		s25.7-20.4,40.4-12.8s20.4,25.7,12.8,40.4C1347.4,755.6,1342.9,760.1,1337.3,762.9L1337.3,762.9z M1363.9,661.5
		c0,3.1-2.5,5.5-5.5,5.5l0,0H1285c-3.1,0-5.5-2.5-5.6-5.5V644c0-23.4,19-42.3,42.3-42.2c0.2,0,0.4,0,0.6,0
		c23.2,0.3,41.6,19.7,41.6,42.9V661.5z"/>
	<path class="st6" d="M1112.9,1183.4h59.7c9.7,0,17.5,7.8,17.5,17.5v59.7c0,9.7-7.8,17.5-17.5,17.5h-59.7c-9.7,0-17.5-7.8-17.5-17.5
		v-59.7C1095.4,1191.2,1103.2,1183.4,1112.9,1183.4z"/>
	<path class="st6" d="M1231.5,1183.4h59.7c9.7,0,17.5,7.8,17.5,17.5v59.7c0,9.7-7.8,17.5-17.5,17.5h-59.7c-9.7,0-17.5-7.8-17.5-17.5
		v-59.7C1214,1191.2,1221.8,1183.4,1231.5,1183.4z"/>
	<path class="st6" d="M1350,1183.4h59.7c9.7,0,17.5,7.8,17.5,17.5v59.7c0,9.7-7.8,17.5-17.5,17.5H1350c-9.7,0-17.5-7.8-17.5-17.5
		v-59.7C1332.5,1191.2,1340.4,1183.4,1350,1183.4z"/>
	<path class="st6" d="M1468.6,1183.4h59.7c9.7,0,17.5,7.8,17.5,17.5v59.7c0,9.7-7.8,17.5-17.5,17.5h-59.7c-9.7,0-17.5-7.8-17.5-17.5
		v-59.7C1451.1,1191.2,1459,1183.4,1468.6,1183.4z"/>
	<polygon class="st2" points="1163.8,1217.1 1147.8,1221.3 1143.8,1206.3 1141.7,1206.3 1137.7,1221.3 1121.7,1217.1 1120.7,1218.7 
		1133.3,1230.7 1120.7,1242.8 1121.7,1244.4 1137.7,1240.2 1141.7,1255.2 1143.8,1255.2 1147.8,1240.2 1163.8,1244.4 1164.8,1242.8 
		1152.2,1230.7 1164.8,1218.7 	"/>
	<polygon class="st2" points="1282.4,1217.1 1266.3,1221.3 1262.3,1206.3 1260.3,1206.3 1256.3,1221.3 1240.2,1217.1 1239.3,1218.7 
		1251.9,1230.7 1239.3,1242.8 1240.2,1244.4 1256.3,1240.2 1260.3,1255.2 1262.3,1255.2 1266.3,1240.2 1282.4,1244.4 1283.4,1242.8 
		1270.7,1230.7 1283.4,1218.7 	"/>
	<polygon class="st2" points="1401,1217.1 1384.9,1221.3 1380.9,1206.3 1378.9,1206.3 1374.9,1221.3 1358.8,1217.1 1357.8,1218.7 
		1370.5,1230.7 1357.8,1242.8 1358.8,1244.4 1374.9,1240.2 1378.9,1255.2 1380.9,1255.2 1384.9,1240.2 1401,1244.4 1401.9,1242.8 
		1389.3,1230.7 1401.9,1218.7 	"/>
	<polygon class="st2" points="1519.5,1217.1 1503.5,1221.3 1499.5,1206.3 1497.4,1206.3 1493.4,1221.3 1477.4,1217.1 1476.4,1218.7 
		1489,1230.7 1476.4,1242.8 1477.4,1244.4 1493.4,1240.2 1497.4,1255.2 1499.5,1255.2 1503.5,1240.2 1519.5,1244.4 1520.5,1242.8 
		1507.9,1230.7 1520.5,1218.7 	"/>
	<path class="st2" d="M1661.6,1485.9h-618.8c-13.3,0-24.2,10.8-24.2,24.1c0,13.3,10.8,24.2,24.1,24.2c0,0,0,0,0.1,0h618.8
		c13.3,0,24.1-10.9,24.1-24.2C1685.7,1496.7,1674.9,1486,1661.6,1485.9z"/>
	<path class="st6" d="M1157,1499.8h-113.1c-5.7-0.2-10.4,4.3-10.6,10c-0.2,5.7,4.3,10.4,10,10.6c0.2,0,0.4,0,0.6,0H1157
		c5.7,0.2,10.4-4.3,10.6-10c0.2-5.7-4.3-10.4-10-10.6C1157.5,1499.8,1157.3,1499.8,1157,1499.8z"/>
	<path class="st6" d="M1465.9,1573.1c-28.3,0-51.2,22.9-51.2,51.2s22.9,51.2,51.2,51.2c28.3,0,51.2-22.9,51.2-51.2c0,0,0,0,0,0
		C1517.2,1596.1,1494.2,1573.1,1465.9,1573.1z"/>
	<path class="st7" d="M1488.1,1604.1l-27.2,25.3c-1.4,1.4-3.7,1.4-5.1,0c-4-3.8-8-7.6-11.9-11.4c-5.7-5.4-14.3,3.2-8.6,8.6
		l18.7,17.9c2.4,2.3,6.2,2.3,8.6,0l34.2-31.7C1502.5,1607.4,1493.8,1598.8,1488.1,1604.1z"/>
	<path class="st6" d="M1238.4,1573.1c-28.3,0-51.2,22.9-51.2,51.2s22.9,51.2,51.2,51.2c28.3,0,51.2-22.9,51.2-51.2c0,0,0,0,0,0
		C1289.6,1596.1,1266.7,1573.1,1238.4,1573.1z"/>
	<path class="st7" d="M1262.3,1612.5c7.8-7.8-4.3-19.8-12-12l-9.4,9.3c-1.4,1.4-3.7,1.4-5,0c0,0,0,0,0,0l-9.4-9.3
		c-7.8-7.8-19.8,4.3-12,12l9.4,9.3c1.4,1.4,1.4,3.7,0,5.1l-9.4,9.3c-7.8,7.8,4.3,19.8,12,12l9.4-9.3c1.4-1.4,3.7-1.4,5,0
		c0,0,0,0,0,0l9.4,9.3c7.8,7.8,19.8-4.3,12-12l-9.4-9.3c-1.4-1.4-1.4-3.7,0-5.1L1262.3,1612.5z"/>
	<ellipse class="st8" cx="632.2" cy="2195.4" rx="572" ry="96.9"/>
	<path class="st9" d="M746.8,1976.8L585,2024.7l1.2,33.6c12.6-0.4,24,7.5,28.1,19.4c4.1,12,13.3,24.7,34.3,22.6
		c38.8-3.8,69.7-41.6,69.7-41.6l36.6,1C744.1,1996.3,746.8,1976.8,746.8,1976.8z"/>
	<path class="st10" d="M890.4,2153.5c-43.8-25.7-121.9-16.9-134.3-86.3c-0.5-2.5-0.8-4.9-1.2-7.3l-36.6-1c0,0-30.9,37.8-69.7,41.6
		c-21,2-30.2-10.6-34.3-22.7c-4.1-11.9-15.5-19.8-28.1-19.4l2.3,68.2l0.2,7.6l2,58.3l117.1,3.2l45.7,1.2l185.1,5.1
		C938.7,2202,934.2,2179.2,890.4,2153.5z"/>
	<path class="st2" d="M653.5,2135.5c-18.6-15.2-41.4-24.5-65.3-26.6l-2.5-0.2l0.5,13.4l2,0.2c20.9,2.1,40.7,10.3,56.9,23.6
		c15.7,13,27.3,30.3,33.4,49.7l0.5,1.5l14,0.4l-0.8-2.9C685.3,2171.4,671.9,2150.9,653.5,2135.5z M682.1,2192.7
		c-13.3-40.7-49.1-69.8-91.7-74.7l-0.2-4.3c22.1,2.5,43,11.3,60.3,25.4l0,0c16.9,14.1,29.5,32.8,36.1,53.8L682.1,2192.7z"/>
	<path class="st2" d="M851.3,2136.2l-1.2-0.3l-0.9,0.8c-17.7,14.9-41.7,18.6-62.6,9.6c-35.1-15.1-55.2-43.7-61.6-87.5l-0.3-1.9
		l-6.5-0.2h-1.4l-0.5,1c-0.4,0.5-1.6,1.9-3.5,3.9l-0.8,0.8l0.2,1.1c7.6,47.3,30.2,78.4,69,95.1c8.4,3.6,17.5,5.6,26.6,5.9
		c0.7,0,1.3,0,2,0c19.5-0.1,38.2-7.8,52.1-21.5l2.7-2.6l-3.6-1.1C857.8,2138.1,854.5,2137.1,851.3,2136.2z M808.2,2159.8
		c-8.6-0.2-17.1-2.1-25-5.5c-37-15.9-58.7-45.5-66.2-90.6c0.7-0.7,1.6-1.8,2.3-2.6h1.6c7,44.4,27.9,73.6,64,89.1
		c22.1,9.5,47.7,5.8,66.3-9.5c1.6,0.4,3.2,0.9,4.9,1.4C842.9,2153.9,825.8,2160.2,808.2,2159.8z"/>
	<polygon class="st2" points="753.6,2196.9 707.9,2195.6 590.8,2192.4 592.3,2219.2 715.3,2222.6 759.9,2223.9 940.2,2228.8 
		938.7,2202 	"/>
	<g class="st11">
		<path d="M708.7,2197.1c-0.2-0.5-0.5-1-0.8-1.4c-17.7-34.2-53.5-56.8-90.5-60.3c-9.5-0.9-19.1-0.7-28.6-1.2l2,58.3l1.5,26.8
			l123,3.4c0-0.2,0-0.5,0-0.7c0.4-7.5-2.1-14.9-5.2-21.6C709.8,2199.2,709.2,2198.1,708.7,2197.1z"/>
	</g>
	<path class="st9" d="M483.2,1979l-161.8,47.9l1.2,33.6c12.6-0.4,24,7.5,28.2,19.4c4.1,12,13.3,24.7,34.3,22.6
		c38.8-3.8,69.7-41.6,69.7-41.6l36.6,1C480.4,1998.5,483.2,1979,483.2,1979z"/>
	<path class="st10" d="M626.8,2155.6c-43.8-25.8-121.9-16.8-134.2-86.3c-0.5-2.5-0.8-4.9-1.2-7.3l-36.6-1c0,0-30.9,37.8-69.7,41.6
		c-21,2.1-30.2-10.6-34.3-22.6c-4.1-11.9-15.5-19.8-28.2-19.4l4.6,134l347.9,9.6C675.1,2204.1,670.6,2181.4,626.8,2155.6z"/>
	<path class="st2" d="M389.8,2137.7c-18.6-15.2-41.3-24.5-65.3-26.6l-2.5-0.2l0.4,13.4l2,0.2c20.9,2.1,40.7,10.3,56.9,23.6
		c15.7,13,27.3,30.3,33.4,49.7l0.5,1.5l14,0.4l-0.8-2.9C421.7,2173.6,408.3,2153.1,389.8,2137.7z M418.5,2194.8
		c-13.3-40.7-49.1-69.8-91.7-74.7l-0.2-4.3c22.1,2.5,43.1,11.3,60.3,25.3l0,0c16.9,14.1,29.5,32.8,36.1,53.8L418.5,2194.8z"/>
	<path class="st2" d="M587.6,2138.3l-1.1-0.3l-0.9,0.8c-17.7,14.9-41.7,18.6-62.6,9.6c-35-15.1-55.2-43.7-61.6-87.5l-0.3-1.9
		l-6.5-0.2h-1.4l-0.5,1c-0.4,0.5-1.6,1.9-3.5,3.9l-0.8,0.8l0.2,1.1c7.6,47.3,30.2,78.4,69,95.1c8.4,3.6,17.5,5.6,26.6,5.9h1.9
		c19.5-0.1,38.2-7.8,52.1-21.5l2.7-2.6l-3.6-1.1C594,2140.2,590.8,2139.2,587.6,2138.3z M544.5,2162c-8.6-0.2-17.1-2.1-25-5.5
		c-37-15.9-58.7-45.5-66.2-90.6c0.7-0.7,1.6-1.8,2.3-2.6h1.6c7,44.5,27.9,73.6,64,89.1c22.1,9.5,47.7,5.8,66.3-9.5l4.9,1.4
		C579.2,2156,562.1,2162.3,544.5,2162z"/>
	<polygon class="st2" points="327.1,2194.5 328.6,2221.4 676.5,2231 675,2204.1 	"/>
	<path class="st12" d="M327.4,1095.6l-26.4,1007l223.5,6.1h1.5c0,0-0.1-56.2-0.1-138.4c0-224.6,0.7-643.5,6.5-643.3
		c0.6,0,1.3,4.2,2.1,11.9c10.6,97.7,40.7,765.6,40.7,765.6l95.6-4.7l100.4-4.9l-74.7-1000.1L327.4,1095.6z"/>
	<g>
		<defs>
			<path id="SVGID_1_" d="M771.2,2094.8l-100.4,4.9l-95.6,4.7c0,0-30.1-667.9-40.7-765.6c-0.8-7.7-1.5-11.8-2.1-11.9
				c-5.7-0.2-6.5,418.7-6.5,643.3c0,82.3,0.1,138.4,0.1,138.4h-1.5l-223.5-6.1l26.4-1007l369.2-0.9L771.2,2094.8z"/>
		</defs>
		<clipPath id="SVGID_00000093882073007413800830000017970684507589100444_">
			<use xlink:href="#SVGID_1_"  style="overflow:visible;"/>
		</clipPath>
		<g style="clip-path:url(#SVGID_00000093882073007413800830000017970684507589100444_);">
			<path class="st2" d="M368.9,1219c-2.9,3.3-6,6.6-9.1,9.8c-0.9,0.9-0.9,2.3,0,3.2c0.4,0.4,1,0.6,1.6,0.6c0.6,0,1.2-0.2,1.6-0.7
				c3.2-3.2,6.3-6.6,9.2-10c0.8-0.9,0.7-2.4-0.2-3.2C371.1,1217.9,369.7,1218,368.9,1219L368.9,1219z"/>
			<path class="st2" d="M329.8,1255.3c-3.6,2.7-7.2,5.3-10.9,7.8c-1,0.7-1.3,2.1-0.6,3.1c0.4,0.6,1.1,1,1.8,1c0.5,0,0.9-0.1,1.3-0.4
				c3.7-2.5,7.4-5.2,11-8c0.9-0.8,1-2.2,0.2-3.2C331.9,1254.8,330.7,1254.7,329.8,1255.3L329.8,1255.3z"/>
			<path class="st2" d="M350.2,1238.1c-3.2,3-6.6,6-10,8.9c-1,0.7-1.2,2.2-0.5,3.1c0.7,1,2.2,1.2,3.1,0.5c0.1-0.1,0.1-0.1,0.2-0.2
				c3.5-2.9,6.9-5.9,10.2-9c0.9-0.9,0.8-2.3-0.1-3.2C352.4,1237.5,351.1,1237.4,350.2,1238.1L350.2,1238.1z"/>
			<path class="st2" d="M438.4,1074.1c-1.2-0.2-2.4,0.6-2.6,1.8c-0.8,4.2-1.6,8.4-2.5,12.6c-0.3,1.2,0.5,2.4,1.7,2.7c0,0,0,0,0,0
				c0.2,0,0.3,0.1,0.5,0.1c1.1,0,2-0.7,2.2-1.8c0.9-4.2,1.8-8.5,2.5-12.7C440.4,1075.5,439.6,1074.3,438.4,1074.1z"/>
			<path class="st2" d="M307.7,1270.4c-3.8,2.3-7.8,4.6-11.6,6.6c-1.1,0.6-1.5,2-0.9,3c0.4,0.7,1.2,1.2,2,1.2c0.4,0,0.7-0.1,1.1-0.3
				c3.9-2.1,7.9-4.4,11.8-6.8c1-0.7,1.3-2.1,0.6-3.1C309.9,1270.2,308.7,1269.9,307.7,1270.4z"/>
			<path class="st2" d="M284.1,1283c-4,1.9-8.1,3.5-12.3,5c-1.2,0.4-1.8,1.7-1.4,2.8c0.3,0.9,1.2,1.6,2.1,1.6c0.2,0,0.5,0,0.7-0.1
				c4.3-1.5,8.6-3.3,12.8-5.2c1.1-0.5,1.6-1.8,1.1-3S285.2,1282.5,284.1,1283L284.1,1283z"/>
			<path class="st2" d="M432.9,1099.9c-1.2-0.3-2.4,0.4-2.7,1.6c-1.1,4.3-2.4,8.7-3.6,12.9c-0.4,1.2,0.3,2.4,1.5,2.8c0,0,0,0,0,0
				c0.2,0.1,0.4,0.1,0.7,0.1c1,0,1.9-0.7,2.1-1.6c1.3-4.3,2.6-8.7,3.7-13C434.8,1101.5,434.1,1100.2,432.9,1099.9
				C432.9,1099.9,432.9,1099.9,432.9,1099.9z"/>
			<path class="st2" d="M425.2,1125.7c-1.2-0.4-2.5,0.2-2.9,1.4c-1.5,4.2-3.1,8.4-4.7,12.5c-0.4,1.2,0.1,2.5,1.3,2.9
				c1.1,0.4,2.4-0.1,2.9-1.2c1.7-4.2,3.3-8.4,4.8-12.7C427,1127.4,426.4,1126.1,425.2,1125.7
				C425.2,1125.7,425.2,1125.7,425.2,1125.7z"/>
			<path class="st2" d="M388.7,1197.5c-1-0.7-2.4-0.5-3.1,0.5c0,0,0,0,0,0c-2.6,3.6-5.3,7.2-8.1,10.7c-0.7,1-0.5,2.4,0.6,3.1
				c0.9,0.7,2.2,0.5,3-0.3c2.8-3.5,5.6-7.2,8.2-10.8C389.9,1199.7,389.7,1198.3,388.7,1197.5
				C388.7,1197.5,388.7,1197.5,388.7,1197.5z"/>
			<path class="st2" d="M403.1,1174.8c-1.1-0.6-2.4-0.3-3.1,0.8c-2.2,3.8-4.6,7.7-7,11.4c-0.7,1-0.4,2.4,0.7,3.1
				c0.4,0.2,0.8,0.4,1.2,0.4c0.8,0,1.5-0.4,1.9-1c2.4-3.8,4.8-7.7,7.1-11.6C404.5,1176.8,404.2,1175.4,403.1,1174.8
				C403.1,1174.8,403.1,1174.8,403.1,1174.8z"/>
			<path class="st2" d="M415.3,1150.7c-1.1-0.5-2.5,0-3,1.1c0,0,0,0,0,0c-1.9,4.1-3.8,8.1-5.9,12c-0.6,1.1-0.1,2.5,1,3
				c1.1,0.6,2.5,0.1,3-1c2.1-4,4.1-8.1,5.9-12.2C416.9,1152.6,416.4,1151.3,415.3,1150.7z"/>
			<path class="st2" d="M678.8,1130.8c-0.2-1.2-1.4-2-2.6-1.8c-1.2,0.2-2,1.3-1.8,2.5c0.7,4.5,1.4,9,2.2,13.4
				c0.2,1.1,1.1,1.8,2.2,1.8c0.1,0,0.3,0,0.4,0c1.2-0.2,2-1.4,1.8-2.6c0,0,0,0,0,0C680.2,1139.7,679.5,1135.3,678.8,1130.8z"/>
			<path class="st2" d="M675.5,1104.1c-0.1-1.2-1.1-2.2-2.4-2.1c-1.2,0.1-2.2,1.1-2.1,2.4c0,0.1,0,0.1,0,0.2c0.5,4.5,1,9.1,1.5,13.5
				c0.1,1.1,1.1,2,2.2,2h0.3c1.2-0.1,2.1-1.2,2-2.5c0,0,0,0,0-0.1C676.5,1113,676,1108.5,675.5,1104.1z"/>
			<path class="st2" d="M683.4,1157.3c-0.2-1.2-1.4-2-2.6-1.8s-2,1.4-1.8,2.6c0.9,4.5,1.9,9,2.9,13.3c0.2,1,1.1,1.7,2.2,1.7
				c0.2,0,0.3,0,0.5-0.1c1.2-0.3,2-1.5,1.7-2.7C685.3,1166.2,684.3,1161.8,683.4,1157.3z"/>
			<path class="st2" d="M670.9,1075.1c-1.2,0.1-2.2,1.2-2.1,2.4c0.3,4.5,0.6,9,1,13.5c0.1,1.2,1.1,2.1,2.2,2.1h0.2
				c1.2-0.1,2.1-1.2,2-2.4c-0.4-4.5-0.7-9-1-13.4C673.1,1076,672.1,1075,670.9,1075.1z"/>
			<path class="st2" d="M669.9,1048L669.9,1048c-1.2,0-2.2,1-2.2,2.2c0,0,0,0,0,0c0,0,0,5.2,0.4,13.7c0,1.2,1,2.2,2.2,2.2h0.1
				c1.2-0.1,2.2-1.1,2.2-2.3c-0.3-8.4-0.4-13.4-0.4-13.5C672.2,1049,671.2,1048,669.9,1048C669.9,1048,669.9,1048,669.9,1048z"/>
			<path class="st2" d="M722.2,1256c-0.7-1-2.1-1.3-3.1-0.5c-1,0.7-1.3,2.1-0.5,3.1c0,0.1,0.1,0.1,0.1,0.2c2.8,3.6,5.9,7,9.2,10.3
				c0.4,0.4,1,0.6,1.6,0.6c0.6,0,1.2-0.2,1.6-0.7c0.9-0.9,0.9-2.3,0-3.2C727.9,1262.7,724.9,1259.5,722.2,1256z"/>
			<path class="st2" d="M749.3,1279c-2.9-1.4-5.6-3-8.2-4.8c-1-0.7-2.4-0.4-3.1,0.6s-0.4,2.4,0.6,3.1c2.8,1.9,5.7,3.7,8.8,5.2
				c0.3,0.1,0.7,0.2,1,0.2c1.2,0,2.2-1,2.2-2.3C750.5,1280.1,750,1279.3,749.3,1279z"/>
			<path class="st2" d="M708.1,1233.6c-0.4-1.2-1.7-1.8-2.9-1.3c-1.2,0.4-1.8,1.7-1.3,2.9c0.1,0.2,0.1,0.3,0.2,0.4
				c2.1,4.2,4.4,8.2,6.7,11.9c0.7,1,2.1,1.3,3.1,0.5c0.9-0.7,1.2-1.9,0.7-2.9C712.4,1241.5,710.2,1237.7,708.1,1233.6z"/>
			<path class="st2" d="M697.5,1209c-0.4-1.2-1.7-1.8-2.9-1.3s-1.8,1.7-1.3,2.9c1.6,4.4,3.3,8.7,5,12.7c0.4,0.8,1.2,1.4,2.1,1.4
				c0.3,0,0.6-0.1,0.9-0.2c1.1-0.5,1.7-1.8,1.2-2.9c0,0,0,0,0-0.1C700.8,1217.5,699.1,1213.3,697.5,1209z"/>
			<path class="st2" d="M689.5,1183.5c-0.3-1.2-1.6-1.9-2.8-1.6c-1.2,0.3-1.9,1.5-1.6,2.7c0,0,0,0,0,0c1.2,4.5,2.5,8.9,3.8,13.1
				c0.3,1.2,1.5,1.9,2.7,1.6c1.2-0.3,1.9-1.5,1.6-2.7c0-0.1,0-0.1-0.1-0.2C692,1192.2,690.8,1187.9,689.5,1183.5z"/>
			<path class="st2" d="M370.9,1707.7c-1.2,0-2.3,0.9-2.3,2.2c0,0,0,0,0,0l-0.3,13.5c0,1.2,1,2.3,2.2,2.3c0,0,0,0,0,0l0,0
				c1.2,0,2.2-1,2.2-2.2l0.3-13.5C373.1,1708.8,372.1,1707.7,370.9,1707.7z"/>
			<path class="st2" d="M367.1,1869.4c-1.2,0-2.3,0.9-2.3,2.2c0,0,0,0,0,0l-0.3,13.5c0,1.2,1,2.3,2.2,2.3c0,0,0,0,0,0l0,0
				c1.2,0,2.2-1,2.2-2.2l0.3-13.5C369.3,1870.5,368.3,1869.5,367.1,1869.4z"/>
			<path class="st2" d="M366.5,1896.4L366.5,1896.4c-1.3,0-2.3,1-2.3,2.2l-0.3,13.5c0,1.2,1,2.3,2.2,2.3h0.1c1.2,0,2.2-1,2.2-2.2
				l0.3-13.5C368.7,1897.4,367.7,1896.4,366.5,1896.4z"/>
			<path class="st2" d="M370.3,1734.6c-1.2,0-2.2,0.9-2.3,2.1c0,0,0,0,0,0.1l-0.3,13.5c0,1.2,1,2.3,2.2,2.3h0.1c1.2,0,2.2-1,2.2-2.2
				l0.3-13.5C372.5,1735.7,371.5,1734.7,370.3,1734.6z"/>
			<path class="st2" d="M368.4,1815.5c-1.2,0-2.2,0.9-2.3,2.1c0,0,0,0,0,0.1l-0.3,13.5c0,1.2,1,2.3,2.2,2.3c0,0,0,0,0,0l0,0
				c1.2,0,2.2-1,2.2-2.2l0.3-13.5C370.5,1816.6,369.6,1815.6,368.4,1815.5z"/>
			<path class="st2" d="M369.6,1761.6c-1.2,0-2.3,0.9-2.3,2.2c0,0,0,0,0,0l-0.3,13.5c0,1.2,1,2.3,2.2,2.3c0,0,0,0,0,0l0,0
				c1.2,0,2.2-1,2.2-2.2l0.3-13.5C371.8,1762.7,370.9,1761.6,369.6,1761.6z"/>
			<path class="st2" d="M369,1788.5c-1.2,0-2.3,0.9-2.3,2.2c0,0,0,0,0,0l-0.3,13.5c0,1.2,1,2.3,2.2,2.3h0.1c1.2,0,2.2-1,2.2-2.2
				l0.3-13.5C371.2,1789.6,370.2,1788.6,369,1788.5z"/>
			<path class="st2" d="M367.8,1842.5L367.8,1842.5c-1.3,0-2.3,1-2.3,2.2l-0.3,13.5c0,1.2,1,2.3,2.2,2.3h0.1c1.2,0,2.2-1,2.2-2.2
				l0.3-13.5C370,1843.5,369,1842.5,367.8,1842.5z"/>
			<path class="st2" d="M362.7,2058.1L362.7,2058.1c-1.3,0-2.3,1-2.3,2.2l-0.3,13.5c0,1.2,0.9,2.3,2.2,2.3c0,0,0,0,0,0h0.1
				c1.2,0,2.2-1,2.2-2.2l0.3-13.5C364.9,2059.2,363.9,2058.2,362.7,2058.1z"/>
			<path class="st2" d="M362,2085.1c-1.2,0-2.3,1-2.3,2.2l-0.3,13.5c0,1.2,1,2.3,2.2,2.3c0,0,0,0,0,0h0.1c1.2,0,2.2-1,2.2-2.2
				l0.3-13.5C364.2,2086.2,363.2,2085.1,362,2085.1z"/>
			<path class="st2" d="M361.4,2112.1L361.4,2112.1c-1.3,0-2.3,1-2.3,2.2l-0.3,13.5c0,1.2,0.9,2.3,2.2,2.3c0,0,0,0,0,0h0.1
				c1.2,0,2.2-1,2.2-2.2l0.3-13.5C363.6,2113.1,362.6,2112.1,361.4,2112.1z"/>
			<path class="st2" d="M363.3,2031.2c-1.2,0-2.3,0.9-2.3,2.2c0,0,0,0,0,0l-0.3,13.5c0,1.2,1,2.3,2.2,2.3c0,0,0,0,0,0h0.1
				c1.2,0,2.2-1,2.2-2.2l0.3-13.5C365.5,2032.2,364.5,2031.2,363.3,2031.2z"/>
			<path class="st2" d="M365.2,1950.3c-1.2,0-2.2,0.9-2.3,2.1c0,0,0,0,0,0.1l-0.3,13.5c0,1.2,0.9,2.3,2.2,2.3c0,0,0,0,0,0h0.1
				c1.2,0,2.2-1,2.2-2.2l0.3-13.5C367.4,1951.4,366.4,1950.3,365.2,1950.3z"/>
			<path class="st2" d="M363.9,2004.2L363.9,2004.2c-1.3,0-2.3,1-2.3,2.2l-0.3,13.5c0,1.2,0.9,2.3,2.2,2.3c0,0,0,0,0,0h0.1
				c1.2,0,2.2-1,2.2-2.2l0.3-13.5C366.1,2005.3,365.2,2004.3,363.9,2004.2z"/>
			<path class="st2" d="M365.8,1923.3L365.8,1923.3c-1.2,0-2.2,1-2.2,2.2l-0.3,13.5c0,1.2,1,2.3,2.2,2.3c0,0,0,0,0,0l0,0
				c1.2,0,2.2-1,2.2-2.2l0.3-13.5C368,1924.4,367.1,1923.4,365.8,1923.3z"/>
			<path class="st2" d="M364.6,1977.3L364.6,1977.3c-1.2,0-2.2,1-2.2,2.2l-0.3,13.5c0,1.2,1,2.3,2.2,2.3c0,0,0,0,0,0l0,0
				c1.2,0,2.2-1,2.2-2.2l0.3-13.5C366.8,1978.3,365.8,1977.3,364.6,1977.3z"/>
			<path class="st2" d="M376.6,1465c-1.2,0-2.3,0.9-2.3,2.2c0,0,0,0,0,0l-0.3,13.5c0,1.2,1,2.3,2.2,2.3h0.1c1.2,0,2.2-1,2.2-2.2
				l0.3-13.5C378.8,1466.1,377.9,1465.1,376.6,1465C376.6,1465,376.6,1465,376.6,1465z"/>
			<path class="st2" d="M377.9,1411.1c-1.2,0-2.3,0.9-2.3,2.2c0,0,0,0,0,0l-0.3,13.5c0,1.2,1,2.3,2.2,2.3h0.1c1.2,0,2.2-1,2.2-2.2
				l0.3-13.5C380.1,1412.2,379.1,1411.1,377.9,1411.1C377.9,1411.1,377.9,1411.1,377.9,1411.1z"/>
			<path class="st2" d="M379.2,1357.2L379.2,1357.2c-1.3,0-2.3,1-2.3,2.2l-0.3,13.5c0,1.2,1,2.3,2.2,2.3h0.1c1.2,0,2.2-1,2.2-2.2
				l0.3-13.5C381.4,1358.2,380.4,1357.2,379.2,1357.2C379.2,1357.2,379.2,1357.2,379.2,1357.2z"/>
			<path class="st2" d="M378.5,1384.1c-1.2,0-2.3,0.9-2.3,2.1c0,0,0,0,0,0.1l-0.3,13.5c0,1.2,1,2.3,2.2,2.3h0.1c1.2,0,2.2-1,2.2-2.2
				l0.3-13.5C380.7,1385.2,379.8,1384.2,378.5,1384.1z"/>
			<path class="st2" d="M380.4,1303.3c-1.2,0-2.3,0.9-2.3,2.2c0,0,0,0,0,0l-0.3,13.5c0,1.2,1,2.3,2.2,2.3h0.1c1.2,0,2.2-1,2.2-2.2
				l0.3-13.5C382.7,1304.3,381.7,1303.3,380.4,1303.3C380.4,1303.3,380.4,1303.3,380.4,1303.3z"/>
			<path class="st2" d="M379.8,1330.2c-1.2,0-2.3,0.9-2.3,2.1c0,0,0,0,0,0.1l-0.3,13.5c0,1.2,1,2.3,2.2,2.3h0.1c1.2,0,2.2-1,2.2-2.2
				l0.3-13.5C382,1331.3,381,1330.2,379.8,1330.2z"/>
			<path class="st2" d="M382.3,1222.4L382.3,1222.4c-1.2,0-2.2,1-2.2,2.2l-0.3,13.5c0,1.2,1,2.3,2.2,2.3l0,0c1.2,0,2.2-1,2.2-2.2
				l0.3-13.5C384.6,1223.4,383.6,1222.4,382.3,1222.4C382.3,1222.4,382.3,1222.4,382.3,1222.4z"/>
			<path class="st2" d="M381.1,1276.3c-1.2,0-2.3,0.9-2.3,2.1c0,0,0,0,0,0.1l-0.3,13.5c0,1.2,1,2.3,2.2,2.3l0,0c1.2,0,2.2-1,2.2-2.2
				l0.3-13.5C383.2,1277.4,382.3,1276.3,381.1,1276.3z"/>
			<path class="st2" d="M381.8,1249.3c-1.2,0-2.3,0.9-2.3,2.2c0,0,0,0,0,0l-0.3,13.5c0,1.2,1,2.3,2.2,2.3h0.1c1.2,0,2.2-1,2.2-2.2
				l0.3-13.5C384,1250.4,383,1249.4,381.8,1249.3z"/>
			<path class="st2" d="M371.5,1680.7L371.5,1680.7c-1.3,0-2.3,1-2.3,2.2l-0.3,13.5c0,1.2,1,2.3,2.2,2.3h0.1c1.2,0,2.2-1,2.2-2.2
				l0.3-13.5C373.8,1681.7,372.8,1680.7,371.5,1680.7z"/>
			<path class="st2" d="M373.4,1599.8L373.4,1599.8c-1.2,0-2.2,1-2.2,2.2l-0.3,13.5c0,1.2,1,2.3,2.2,2.3c0,0,0,0,0,0l0,0
				c1.2,0,2.2-1,2.2-2.2l0.3-13.5C375.7,1600.9,374.7,1599.9,373.4,1599.8z"/>
			<path class="st2" d="M374.1,1572.9L374.1,1572.9c-1.3,0-2.3,1-2.3,2.2l-0.3,13.5c0,1.2,1,2.3,2.2,2.3h0.1c1.2,0,2.2-1,2.2-2.2
				l0.3-13.5C376.3,1573.9,375.3,1572.9,374.1,1572.9C374.1,1572.9,374.1,1572.9,374.1,1572.9z"/>
			<path class="st2" d="M372.8,1626.8c-1.2,0-2.3,0.9-2.3,2.2c0,0,0,0,0,0l-0.3,13.5c0,1.2,1,2.3,2.2,2.3h0.1c1.2,0,2.2-1,2.2-2.2
				l0.3-13.5C375,1627.8,374.1,1626.8,372.8,1626.8z"/>
			<path class="st2" d="M377.3,1438.1L377.3,1438.1c-1.2,0-2.2,1-2.2,2.2l-0.3,13.5c0,1.2,1,2.3,2.2,2.3h0.1c1.2,0,2.2-1,2.2-2.2
				l0.3-13.5C379.5,1439.1,378.5,1438.1,377.3,1438.1C377.3,1438.1,377.3,1438.1,377.3,1438.1z"/>
			<path class="st2" d="M372.2,1653.7L372.2,1653.7c-1.3,0-2.3,1-2.3,2.2l-0.3,13.5c0,1.2,1,2.3,2.2,2.3c0,0,0,0,0,0l0,0
				c1.2,0,2.2-1,2.2-2.2l0.3-13.5C374.3,1654.8,373.4,1653.8,372.2,1653.7z"/>
			<path class="st2" d="M376,1492c-1.2,0-2.2,0.9-2.3,2.1c0,0,0,0,0,0.1l-0.3,13.5c0,1.2,1,2.3,2.2,2.3l0,0c1.2,0,2.2-1,2.2-2.2
				l0.3-13.5C378.2,1493.1,377.2,1492,376,1492z"/>
			<path class="st2" d="M375.4,1518.9L375.4,1518.9c-1.3,0-2.3,1-2.3,2.2l-0.3,13.5c0,1.2,1,2.3,2.2,2.3h0.1c1.2,0,2.2-1,2.2-2.2
				l0.3-13.5C377.6,1520,376.6,1519,375.4,1518.9C375.4,1518.9,375.4,1518.9,375.4,1518.9z"/>
			<path class="st2" d="M374.8,1545.9c-1.2,0-2.3,0.9-2.3,2.2c0,0,0,0,0,0l-0.3,13.5c0,1.2,1,2.3,2.2,2.3c0,0,0,0,0,0l0,0
				c1.2,0,2.2-1,2.2-2.2l0.3-13.5C376.9,1547,376,1546,374.8,1545.9z"/>
			<g class="st11">
				<path d="M536.1,1066.4L536.1,1066.4c-1.2,0-2.2,1-2.2,2.2l-2.6,263c0,1.2,1,2.3,2.2,2.3h0l0,0c1.2,0,2.2-1,2.2-2.2l2.6-263
					C538.3,1067.4,537.3,1066.4,536.1,1066.4z"/>
			</g>
			<g class="st11">
				<path d="M576.2,1059.6c-1.2,0.1-2.2,1.1-2.1,2.4c0,0.5,2.7,46.4,1,95.1c-2.3,63.8-10.9,103.2-24.9,113.8c-4,3-8.3,3.6-13.3,1.9
					c-1.2-0.4-2.4,0.3-2.8,1.5c-0.3,1.1,0.2,2.3,1.3,2.8c2.2,0.8,4.4,1.2,6.7,1.2c3.9,0,7.7-1.4,10.8-3.8
					c36.3-27.5,26.2-205.2,25.7-212.7C578.5,1060.5,577.4,1059.5,576.2,1059.6z"/>
			</g>
		</g>
	</g>
	<g class="st14">
		<path d="M524.5,2108.7h1.5c0,0-0.1-56.2-0.1-138.4L524.5,2108.7z"/>
	</g>
	<g class="st14">
		<path d="M575.1,2104.4l95.6-4.8l-136.3-760.9C545,1436.5,575.1,2104.4,575.1,2104.4z"/>
	</g>
	<path class="st15" d="M760.8,829.7c0,0-72.6-243.2-311.3-209.1c0,0-106.1,16.7-155,65.5s-52.6,87.1-39.3,181.2
		s32.3,171.3,67.5,186.8l-2.8,55.4l373.8-0.3l-7.3-168c0,0,47.4,36.1,114.1,35.3c88.4-1.1,177.1-63.2,177.1-63.2l-76.3-91.9
		L760.8,829.7z"/>
	<g>
		<defs>
			<path id="SVGID_00000048460430584131211520000016524606641398971293_" d="M449.6,620.6c0,0-106.1,16.7-155,65.5
				s-52.6,87.1-39.3,181.2s32.3,171.3,67.5,186.8l-2.8,55.4l373.8-0.3l-7.3-168c0,0,47.4,36.1,114.1,35.3
				c88.4-1.1,177.1-63.2,177.1-63.2l-76.3-91.9l-140.5,8.3C760.8,829.7,688.3,586.4,449.6,620.6z"/>
		</defs>
		<clipPath id="SVGID_00000074428835923490518130000004792712752018625721_">
			<use xlink:href="#SVGID_00000048460430584131211520000016524606641398971293_"  style="overflow:visible;"/>
		</clipPath>
		<g style="clip-path:url(#SVGID_00000074428835923490518130000004792712752018625721_);">
			<path class="st2" d="M554.3,603c-18-21.7-41.8-40.6-69.8-44.1c-12.4-1.5-25,0.1-37.3,2.4c-25.3,4.9-50,12.9-73.3,23.9l-7.5,21.9
				c8.4,35.9,37.5,63.5,69.2,82.2c25.8,15.2,56,26,85.5,20.7s56.6-31.3,54.9-61.2C575,631.6,565.3,616.2,554.3,603z"/>
			<g class="st11">
				<path d="M570.1,916c-137.2,193.4-247.4,138-247.4,138l-53-11.4l43.4,149l402.5-32.3l-29.2-218.1
					C686.5,941.2,664.4,942.1,570.1,916z"/>
			</g>
		</g>
	</g>
	<path class="st17" d="M549.1,375.5c0,0,14.8-41-48.2-36c-67.9,5.4-75.4,53.8-75.4,53.8c-129.7,42.2-30.1,137.3-30.1,137.3
		s186.1-77.2,197-80.5s31.4-24.2,14.1-54.5S549.1,375.5,549.1,375.5z"/>
	<g>
		<defs>
			<path id="SVGID_00000163052690106135356000000006787116010798364350_" d="M425.4,393.3c0,0,7.5-48.4,75.4-53.8
				c63.1-5,48.2,36,48.2,36s40-10,57.4,20.2s-3.3,51.2-14.2,54.5s-197,80.5-197,80.5S295.8,435.6,425.4,393.3z"/>
		</defs>
		<clipPath id="SVGID_00000050635758131628727010000004097839583857017011_">
			<use xlink:href="#SVGID_00000163052690106135356000000006787116010798364350_"  style="overflow:visible;"/>
		</clipPath>
		<g style="clip-path:url(#SVGID_00000050635758131628727010000004097839583857017011_);">
			<path class="st19" d="M614.2,440.7c-5.9-3.3-12.6-5.2-18.1-8.9c-13.7-9.2-19.7-28.7-35.5-33.4c-10.7-3.2-21.9,1.8-32.5,5.5
				c-3.1,1.1-6.6,2-9.6,0.7c-5.2-2.3-5.6-9.3-5.3-15l-13.2,2.3c3.5-2.5,7.1-5.2,8.9-9s1.1-9.3-2.7-11.3c-1.8-0.8-3.9-1.1-5.8-0.9
				c-12.1,0.8-23.1,7.2-33,14.3c-6,4.3-11.9,9-15.7,15.3s-4.9,14.7-1.2,21l4.3,4.6c-21.7-3.9-43.9,3.2-59.3,19
				c-7.1,7.4-12.5,16.9-13,27.2s4.8,21.1,14.1,25.3c-14.1,11-13,34.3-1.6,48.1c3,3.7,6.8,7,11.3,8.3c7.3,2.2,15-0.7,22-3.7
				l177.2-73.7c9.3-3.9,20.2-10.1,20-20.2C625.5,449.5,620,444,614.2,440.7z"/>
		</g>
	</g>
	<path class="st9" d="M587.7,449.9c0,0-27.3,10.3-36.3-11.4s-2-9.5-19.8,10.7s-36.4,8.7-36.4,8.7l-2.6-16.4c0,0-7.2,21.7-26.1,28.3
		c-18.6,6.4-35.2,32.1-35.6,32.2c-1.5-0.3-3-0.6-4.6-0.7c-18.8-1.6-35.3,10.4-36.7,26.8s12.7,31.1,31.5,32.8
		c8.1,0.7,11.7,2.4,17.9-1.3l-4.9,84.6c0,0,46.1,29.3,70.2,30.3s51.5-31.1,37.5-39.5c-3.9-2.3-7.1-7.2-9.6-13
		c-3.4-7.7-5.8-17.2-7.2-24.5c5.3-0.4,10.4-2,15.9-2.7c44.9-5.7,66.3-60.8,56.1-110.8C593.9,468.3,593.1,459.9,587.7,449.9z"/>
	<g>
		<defs>
			<path id="SVGID_00000106850517640654152700000001446949094891248305_" d="M421.2,560.8c8.1,0.7,11.7,2.4,17.9-1.3l-4.9,84.6
				c0,0,46.1,29.3,70.2,30.3s51.5-31.1,37.5-39.5c-3.9-2.3-7.1-7.2-9.6-13c-3.4-7.7-5.8-17.2-7.2-24.5c5.3-0.4,10.4-2,15.9-2.7
				c44.9-5.7,66.3-60.8,56.1-110.8c-3.2-15.7-4-24.1-9.4-34.1c0,0-27.3,10.3-36.3-11.4s-2-9.5-19.8,10.7s-36.4,8.7-36.4,8.7
				l-2.6-16.4c0,0-7.2,21.7-26.1,28.3c-18.6,6.4-35.2,32.1-35.6,32.2c-1.5-0.3-3-0.6-4.6-0.7c-18.8-1.6-35.3,10.4-36.7,26.8
				S402.4,559.2,421.2,560.8z"/>
		</defs>
		<clipPath id="SVGID_00000135648439259866951540000018124158013446412929_">
			<use xlink:href="#SVGID_00000106850517640654152700000001446949094891248305_"  style="overflow:visible;"/>
		</clipPath>
		<g style="clip-path:url(#SVGID_00000135648439259866951540000018124158013446412929_);">
			<path class="st21" d="M519.6,356.3c-36.6-0.6-72.2,15.8-99.7,40c-12,10.6-22.9,22.9-29.8,37.4l41.1,67.7l42.1-26.1
				c2.1-1.3,4.2-2.6,6.7-2.8c2.9-0.2,5.7,1.1,8.4,2.1c10.2,3.5,21.5,1.9,30.3-4.5c5.9-4.4,10.7-11,17.9-12.7
				c7.5-1.8,14.9,2.4,22.2,4.9c12.3,4.1,25.7,3.6,37.6-1.5c6.6-2.8,12.7-7.2,16.4-13.4c6.9-11.6,3.7-26.7-2.6-38.6
				C593.3,376.2,556.2,356.8,519.6,356.3z"/>
			<path class="st21" d="M541.6,620.2c2.7,13.1-7.4,26.1-19.8,31.1s-26.3,3.7-39.5,1.5c-22.1-3.6-43.8-9.4-64.8-17.3l-3.3,40
				c21.3,16.3,47.4,25,74.2,24.6c20.9-0.4,42.8-7.2,55.9-23.5S557.8,633.3,541.6,620.2z"/>
		</g>
	</g>
	<path class="st22" d="M511.8,468c-1.2-0.6-2.5-1-3.8-1.4c-1.3-0.4-2.6-0.7-3.9-0.9c-2.7-0.5-5.4-0.5-8.1-0.2
		c-2.8,0.3-5.5,1.2-8,2.7c-2.5,1.4-4.7,3.3-6.6,5.4l-0.1,0.2c-1.2,1.4-1.1,3.6,0.3,4.8c1.4,1.2,3.6,1.1,4.8-0.3
		c0.1-0.1,0.1-0.1,0.2-0.2l0.2-0.2c1.2-1.7,2.7-3.1,4.4-4.3c1.7-1.2,3.7-2,5.7-2.4c2.2-0.4,4.4-0.6,6.5-0.4c1.1,0.1,2.2,0.3,3.3,0.5
		c1.1,0.2,2.1,0.5,3.2,0.9l0.2,0c1.1,0.4,2.3-0.1,2.8-1.2C513.4,469.8,512.9,468.5,511.8,468z"/>
	<path class="st22" d="M587.5,459.3c-1.1-0.7-2.3-1.3-3.5-1.9c-2.5-1.2-5.1-1.9-7.8-2.3c-2.8-0.4-5.7-0.3-8.4,0.4
		c-2.8,0.7-5.4,1.9-7.8,3.5c-0.1,0-0.1,0.1-0.2,0.1c-1.5,1.2-1.7,3.3-0.6,4.8c1.1,1.4,3.1,1.7,4.6,0.7l0.3-0.2
		c1.6-1.3,3.4-2.3,5.4-3c2-0.7,4.1-1,6.2-0.8c2.2,0.1,4.3,0.6,6.4,1.4c1.1,0.4,2.1,0.8,3.1,1.4c1,0.5,1.9,1.1,2.8,1.7l0.1,0.1
		c1,0.7,2.4,0.5,3.1-0.5c0.7-1,0.5-2.4-0.5-3.1C589.7,460.8,588.6,460,587.5,459.3z"/>
	<path class="st21" d="M557.5,490.7c-10.1-4.7-7,25.7-4.4,31.7s5.7,13.1,18,6.8C587.8,520.6,557.5,490.7,557.5,490.7z"/>
	<path class="st23" d="M577.1,475.4c-5.4,0.6-9.4,5.4-8.8,10.8s5.4,9.4,10.8,8.8c5.4-0.6,9.4-5.4,8.8-10.8c0,0,0,0,0,0
		C587.4,478.8,582.5,474.8,577.1,475.4z"/>
	<path class="st23" d="M511.5,485.2c-5.4,0.6-9.4,5.4-8.8,10.8s5.4,9.4,10.8,8.8c5.4-0.6,9.4-5.4,8.8-10.8c0,0,0,0,0,0
		C521.7,488.6,516.9,484.7,511.5,485.2z"/>
	<path class="st2" d="M559.8,548.2c0,0-18.6,6.9-30.3-1.2c-1.7-1.1-3.9-0.7-5,1c-0.3,0.5-0.5,1-0.6,1.5
		c-3.1,23.6,18.1,22.2,27.9,18.9C562.3,564.8,564.6,551.1,559.8,548.2z"/>
	<path class="st24" d="M479.5,505.9c-12.2,3.3-19.4,15.9-16.1,28.1s15.9,19.4,28.1,16.1c12.2-3.3,19.4-15.9,16.1-28.1
		C504.3,509.8,491.7,502.6,479.5,505.9C479.5,505.9,479.5,505.9,479.5,505.9z"/>
	<path class="st21" d="M482,581.4c-6.5-7.1-15.3,59,50.3,40.6c-3.4-7.7-5-18.7-6.5-26C513.5,593,488.8,588.8,482,581.4z"/>
	<path class="st21" d="M429.9,525.3c-2.1-2.9-5.1-4.9-8.6-5.7c-3.3-0.7-6.7-0.3-9.6,1.3c2.9,0.1,5.8,0.8,8.5,2c2.4,1.1,4.5,2.8,6,5
		c1.6,2.3,2.9,4.8,3.8,7.4c1,2.8,1.8,5.7,2.9,8.7c0.8-3.1,1-6.3,0.6-9.5C433.1,531.2,431.8,528,429.9,525.3z"/>
	<path class="st21" d="M423.7,526.6c-0.2,0-0.5,0-0.7,0c-0.2,0-0.5,0.1-0.7,0.1c-0.5,0.1-1,0.2-1.4,0.3c-0.5,0.2-1,0.4-1.4,0.7
		c-0.4,0.3-0.9,0.6-1.2,1c-0.4,0.4-0.7,0.8-1,1.2c-2,3.4-1.7,7.7,0.9,10.6c0.5-1.8,0.9-3.3,1.3-4.7c0.3-1.2,0.8-2.4,1.5-3.5
		c0.6-1,1.5-1.8,2.5-2.4l0.4-0.3l0.5-0.2c0.3-0.2,0.7-0.3,1-0.5c0.8-0.3,1.6-0.7,2.3-1.2c-0.8-0.5-1.6-0.8-2.5-1
		C424.6,526.7,424.2,526.7,423.7,526.6z"/>
	<path class="st9" d="M951.2,816.1c0,0,34.3-55.4,13.5-49s-62.3,49-62.3,49l75.9,97.3c0,0,36.4-32.8,28.1-57.8
		S951.2,816.1,951.2,816.1z"/>
	<path class="st9" d="M715.1,847.8c-4.8-4.2-42.4,19.3-46.8,22.1c0,0-0.1,0-0.1,0s0-0.1,0-0.1l0,0c4.9-5,47.9-48.8,39.8-54.8
		c-7-5.2-40.2,21.2-52.6,31.5c-0.3,0.3-0.7,0.3-1,0s-0.3-0.7,0-1c9.6-12.7,33.7-45.7,25.8-46.2c-9.7-0.7-51.8,36.7-51.8,36.7
		l-15.3-18.4c0,0-8.7,15.8-15.5,26.1s-16.1,39.5-16.1,39.5l41.8,74.8c0,0,97.4-62.5,90.2-67.1s-27.8-0.8-27.8-0.8
		S720.3,852.3,715.1,847.8z"/>
	<g>
		<defs>
			<path id="SVGID_00000047771563491263106700000008200029505208066179_" d="M581.5,883.2c0,0,9.3-29.1,16.1-39.5
				s15.5-26.1,15.5-26.1l15.3,18.4c0,0,42.1-37.4,51.8-36.7c7.8,0.6-16.3,33.6-25.8,46.2c-0.3,0.3-0.3,0.7,0,1s0.7,0.3,1,0
				c12.4-10.3,45.6-36.6,52.6-31.5c8.1,6-34.9,49.8-39.8,54.8c0,0,0,0.1,0,0.1s0.1,0,0.1,0l0,0c4.4-2.8,42.1-26.3,46.8-22.1
				c5.2,4.5-29.4,42.3-29.4,42.3s20.6-3.8,27.8,0.8S623.4,958,623.4,958L581.5,883.2z"/>
		</defs>
		<clipPath id="SVGID_00000126289999816163623330000007985797059279222145_">
			<use xlink:href="#SVGID_00000047771563491263106700000008200029505208066179_"  style="overflow:visible;"/>
		</clipPath>
		<g style="clip-path:url(#SVGID_00000126289999816163623330000007985797059279222145_);">
			<path class="st21" d="M683.9,785.1c-22.3-9.4-49.7-4.9-67.8,11.1l-13.7,14.3c5.3,3.5,6.5,10.7,7.4,17s2.8,13.5,8.5,16.2
				c7,3.3,14.9-2.1,20.7-7.2l48.3-41.8c0.8-0.6,1.4-1.3,1.9-2.2C690.6,789.4,687,786.4,683.9,785.1z"/>
			<path class="st21" d="M709.7,806c-6.8-1.7-13.7,2.1-19.3,6.3l-26.5,24.4c-3.2,6.8-7.8,6.7-12.5,14.9
				c14.9-8.7,31.7-26.4,48.8-32.3c5.2-1.8,8.6-0.3,12-4.7c1.2-1.7,2.3-3.8,1.5-5.7C713,807.2,711.3,806.4,709.7,806z"/>
			<path class="st21" d="M715.1,837.6c-5.6,0.7-11,2.8-15.6,6.2l-23.9,18.8c-5,4.7-9.7,9.8-13.9,15.2c10.9-4.8,18.4-11,29.3-15.8
				c4-1.8,10.7-4.7,14.3-7.2c5.4-3.8,10.5-6.8,12.9-13c0.5-1.2,0.8-2.7-0.1-3.6C717.2,837.6,716.1,837.4,715.1,837.6z"/>
			<path class="st21" d="M718.8,882.5c-4.3-1.6-8.8-2.6-13.4-2.9l-11.6,3.2c-7.1,5.4-13.8,11.5-20,18c13.8-7.5,29.5-10.9,44.8-14.5
				c0.9-0.2,2-0.6,2.2-1.5C721.1,883.7,719.9,882.9,718.8,882.5z"/>
			<path class="st21" d="M561.4,948.2c3,11.7,15,19.2,27,20.8s24-1.6,35.6-4.7l30.1-8.1l-80.4-90.2L561.4,948.2z"/>
		</g>
	</g>
	<path class="st15" d="M433.7,928.6l-60.3-147l-38,277.7c0,0,92.7,60.8,293.1-91c-22.3-45.5-53.2-95.5-53.2-95.5L433.7,928.6z"/>
	<polygon class="st26" points="433.1,927.1 435.1,928 434.5,926.6 	"/>
	<path class="st26" d="M574.3,875.4l1.7-0.7l-2.6-0.9C573.8,874.4,574,874.9,574.3,875.4z"/>
	<path class="st26" d="M618,942.9c-4.3-8.1-8.6-16.1-13.1-24c-9-15.9-18.3-31.6-27.8-47.2l-0.9-1.5l-1.6,0.7l-70.7,28l-35.3,14.1
		l-33.9,13.6l0.6,1.4l-2-0.9l1.4-0.6l-14.7-35.2l-15.4-36.7l-15.5-36.6l-15.6-36.5l14.6,36.9l14.7,36.9l14.8,36.9l14.8,36.8l0.6,1.4
		l1.4-0.6l35.5-13.7l35.4-13.8l69.2-27.1c-0.3-0.5-0.6-1-0.9-1.5l2.6,0.9l-1.7,0.7c9.2,15,18,30.2,26.6,45.6
		c8.6,15.3,17,30.8,24.8,46.6l1.4-1.1l-0.6,2.6c-0.3-0.5-0.5-1-0.8-1.6c-20.7,15.7-42.3,30.4-64.5,44l-4.3,2.6l-4.3,2.5l-8.7,5
		c-2.9,1.7-5.8,3.2-8.8,4.8l-8.8,4.7c-11.9,6-23.8,11.8-36.2,16.8c-6.1,2.6-12.4,4.8-18.6,7.1c-6.3,2.1-12.6,4.2-19,5.9
		c-12.8,3.6-25.8,6.3-39,8c-3.3,0.3-6.6,0.8-9.9,1l-5,0.3c-1.7,0.1-3.3,0.1-5,0.1c-6.7,0.2-13.3-0.1-19.9-0.7
		c-6.6-0.6-13.2-1.8-19.7-3.4c-1.6-0.4-3.2-0.9-4.8-1.3s-3.2-1-4.7-1.6c-3.2-1.1-6.2-2.5-9.1-4.1c2.9,1.7,5.9,3.2,9,4.4
		c1.6,0.6,3.1,1.2,4.7,1.8s3.2,1.1,4.8,1.5c6.5,1.8,13,3.1,19.7,3.9c6.7,0.8,13.4,1.2,20.1,1.2c1.7,0,3.4,0,5,0l5-0.2
		c3.3-0.1,6.7-0.5,10-0.8c13.4-1.4,26.6-3.9,39.5-7.4c6.5-1.6,12.9-3.7,19.3-5.7c6.3-2.2,12.7-4.4,18.9-6.9
		c12.5-4.8,24.7-10.5,36.7-16.4c5.9-3.1,11.9-6.1,17.8-9.4l8.7-5l4.4-2.5l4.3-2.6c22.9-13.9,45.1-28.9,66.5-45.1l1.4-1.1l-0.8-1.6
		C626.4,959.1,622.2,951,618,942.9z"/>
	<path class="st26" d="M626.6,969.2l0.6-2.6l-1.4,1.1C626,968.2,626.3,968.7,626.6,969.2z"/>
	<ellipse class="st8" cx="2195.3" cy="2287.6" rx="470.1" ry="75.2"/>
	<path class="st27" d="M1924.8,938c-9.5,0,7.9,21.8,7.9,21.8s-29.9-31.8-38.3-30.2s14.6,30.3,14.6,30.3s-39.1-34.9-49.8-33.3
		s46.8,66.7,46.8,66.7l62.8-18.4C1968.7,974.8,1934.2,938,1924.8,938z"/>
	<path class="st9" d="M1994,946.4c-16.1-10-33.7-46.7-43.7-42.1s3.1,44.4,10.7,51.3s-26.8,23-38.3,23.8s-70.5-33-80.5-26
		s2.3,18.4,16.1,29.1s118,75.9,118,75.9l34.5-65.9C2010.8,992.5,2010.1,956.4,1994,946.4z"/>
	<g>
		<defs>
			<path id="SVGID_00000144298849024434256170000011808150616072574343_" d="M2010.8,992.4c0,0-0.8-36-16.9-46s-33.7-46.7-43.7-42.1
				s3.1,44.4,10.7,51.3s-26.8,23-38.3,23.8s-70.5-33-80.5-26s2.3,18.4,16.1,29.1s118,75.9,118,75.9L2010.8,992.4z"/>
		</defs>
		<clipPath id="SVGID_00000108304017134496246290000018005022471153341100_">
			<use xlink:href="#SVGID_00000144298849024434256170000011808150616072574343_"  style="overflow:visible;"/>
		</clipPath>
		<g style="clip-path:url(#SVGID_00000108304017134496246290000018005022471153341100_);">
			<path class="st21" d="M1952.5,912c0.4-6.2,2.3-12.2,2.5-18.3c0.1-1.2-0.1-2.4-0.7-3.5c-1.3-2-4.2-2-6.5-1.5
				c-7.8,1.9-14.1,7.5-17,15c-3.8,10.2-0.6,22.6-6.3,31.9c-6,9.6-19,11.8-30.3,11.8c-13.7,0-27.4-1.6-40.7-4.8
				c-10.4-2.5-21.6-5.9-31.3-1.6l5.4,17c13.3-3.8,27.5,1.7,39.2,9.1s22.2,16.9,35,22.2c22.1,9.2,49.4,3.8,66.4-13.1
				c3-2.2,4.1-6.1,2.6-9.5C1965.4,947.9,1951.4,931.3,1952.5,912z"/>
		</g>
	</g>
	<polygon class="st9" points="2395.2,2201.1 2534.7,2232.5 2551.2,2068.4 2412.2,2046.8 	"/>
	<path class="st26" d="M2527.4,2174.8c-66.3,42.1-91,4.7-113.4-18.1c-4.7-4.8-12.6-4.8-18.6-1.8l-105.9,44.3l-62.8,26.3
		c-19,9.4-30.9,29-30.5,50.2l0.1,2.7l110.8-1.8l55.7-0.9l47.8-0.8l151.7-2.5l-22.4-91.7C2538.6,2175,2532.2,2171.8,2527.4,2174.8z"
		/>
	<polygon class="st2" points="2410.4,2274.8 2362.6,2275.6 2306.9,2276.5 2196.1,2278.4 2196.5,2302.6 2310.5,2300.7 2562.5,2296.5 
		2562.1,2272.3 	"/>
	
		<rect x="2397.5" y="2215.8" transform="matrix(0.8959 -0.4443 0.4443 0.8959 -751.239 1300.7969)" class="st2" width="4.2" height="74.6"/>
	
		<rect x="2353" y="2233" transform="matrix(0.8959 -0.4443 0.4443 0.8959 -759.2962 1281.8629)" class="st2" width="4.2" height="55.6"/>
	<g class="st11">
		<path d="M2289.4,2199.2l-62.8,26.3c-19,9.4-30.9,29-30.5,50.2l0.1,2.7l0.4,24.2l114-1.9c-1-8.1-2.2-16.1-3.6-24.1
			C2302.6,2250.5,2296.7,2224.7,2289.4,2199.2z"/>
	</g>
	<polygon class="st9" points="2115.6,2204.3 2253.5,2242.1 2277.6,2078.9 2139.7,2050.8 	"/>
	<path class="st26" d="M2248.9,2184.1c-68.2,38.9-91.2,0.5-112.4-23.3c-4.5-5.1-12.4-5.4-18.6-2.7l-171.8,62.7
		c-19.4,8.5-32.2,27.5-32.8,48.7l-0.1,2.7l365.9,10.9l-18-92.7C2260.1,2184.8,2253.8,2181.3,2248.9,2184.1z"/>
	
		<rect x="2083.7" y="2106.8" transform="matrix(2.984068e-02 -0.9996 0.9996 2.984068e-02 -255.5408 4316.3188)" class="st2" width="24.2" height="366.1"/>
	
		<rect x="2115.5" y="2218.9" transform="matrix(0.9155 -0.4023 0.4023 0.9155 -728.716 1042.4255)" class="st2" width="4.2" height="74.6"/>
	
		<rect x="2070.8" y="2234.1" transform="matrix(0.9155 -0.4023 0.4023 0.9155 -734.7799 1024.9136)" class="st2" width="4.2" height="55.6"/>
	<path d="M2508.5,1281.6v58.9l96.4-60C2574.1,1234.5,2508.5,1281.6,2508.5,1281.6z"/>
	<path class="st29" d="M2194.6,1170.9c-31.5,46.3-109.9,984.3-109.9,984.3l208.3,12.5l42.5-556.2l17.6,564.1l210.7-19l-69.7-925.7
		C2494.1,1230.9,2226.1,1124.6,2194.6,1170.9z"/>
	<g>
		<defs>
			<path id="SVGID_00000162346986862775269600000010512104795255436209_" d="M2494,1231l69.8,925.7l-210.6,18.9l-17.6-564.1
				l-42.6,556.2l-208.2-12.5c0,0,78.4-938,109.9-984.3S2494,1231,2494,1231z"/>
		</defs>
		<clipPath id="SVGID_00000032621644536662489440000008052582858303431099_">
			<use xlink:href="#SVGID_00000162346986862775269600000010512104795255436209_"  style="overflow:visible;"/>
		</clipPath>
		<g style="clip-path:url(#SVGID_00000032621644536662489440000008052582858303431099_);">
			<g class="st11">
				<path d="M2399.6,1325.6c4,96.9-44.4,141.4-44.4,141.4L2251.9,2093l-228.7,23.4l21.8,103.2l447.1-27.7l-85.8-689.7
					C2406.4,1502.2,2416.1,1467,2399.6,1325.6z"/>
			</g>
		</g>
	</g>
	<path class="st31" d="M2518.6,521.7c0,0,7.6-48.3-48.3-76.5s-39.2,12.9-39.2,12.9s-44.6-18.6-84.1,4.4s3.5,60.9,3.5,60.9
		l92.2,146.5C2442.6,670,2627.5,615,2518.6,521.7z"/>
	<g>
		<defs>
			<path id="SVGID_00000048474168874355792190000006271175952730015163_" d="M2518.6,521.7c0,0,7.6-48.3-48.3-76.5
				s-39.2,12.9-39.2,12.9s-44.6-18.6-84.1,4.4s3.5,60.9,3.5,60.9l92.2,146.5C2442.6,670,2627.5,615,2518.6,521.7z"/>
		</defs>
		<clipPath id="SVGID_00000013159348955424995210000012112731632406480017_">
			<use xlink:href="#SVGID_00000048474168874355792190000006271175952730015163_"  style="overflow:visible;"/>
		</clipPath>
		<g style="clip-path:url(#SVGID_00000013159348955424995210000012112731632406480017_);">
			<g class="st33">
				<path class="st34" d="M2493.5,522.9c0-26.2-15.8-51.8-39.2-63.4c1.2,17.1,2.7,34.2,4.4,51.3c-14.7-16.2-31.6-33.6-53.5-35.4
					c2.8,10.6,8.2,20.3,15.6,28.3c-17.4-13.6-36.8-27.8-58.8-27.2c-15.6,0.5-32.8,8.1-45.6-0.8c16.7,25,30.3,52,40.6,80.2
					c7.4,20.4,13.1,41.5,21.4,61.5s19.5,39.4,36.1,53.5c2.4,2.2,5.2,4.1,8.3,5.4c6,2.3,12.8,1.2,18.8-0.8
					c17.1-5.9,31-19.4,39.8-35.2s12.8-34,14.4-52c4.3,1.2,6.3,5.9,8.7,9.7s7.1,7.4,10.9,5c1.8-1.2,2.6-3.3,3.2-5.3
					c6.3-22,1.7-45.6-12.2-63.7C2504.2,531.2,2493.5,522.9,2493.5,522.9z"/>
			</g>
		</g>
	</g>
	<path class="st9" d="M2446,616c-0.7,0.6-1.4,1.2-2.1,1.8c0,0-15.4,10.9-21.1,9.6s3.8-69.1,3.8-69.1s-30.2-30.4-35.5-37.4
		c-1.6,18.9-24.5,13.2-37.1-10.5c0,0-25.6,25.6-29.7,72.7c-10.4,10.8-7.2,15.5-7.2,15.5s-25.6,84,56.4,82.4
		c-3.5,15-7.9,29.7-13.3,44.2l93.6,8.1l1.7-60.1c9.3,1,19.6-1.8,28.3-8.5c15.9-12.4,20.2-33.2,9.8-46.6S2461.9,603.7,2446,616z"/>
	<g>
		<defs>
			<path id="SVGID_00000126312931901038858790000010565274858934582462_" d="M2317.2,598.5c0,0-3.2-4.7,7.2-15.5
				c4.1-47.2,29.7-72.7,29.7-72.7c12.6,23.8,35.5,29.4,37.1,10.5c5.2,7,35.5,37.4,35.5,37.4s-9.5,67.9-3.8,69.1s21.1-9.6,21.1-9.6
				c0.7-0.6,1.3-1.2,2.1-1.8c15.9-12.4,37.2-11.5,47.6,1.8s6.1,34.3-9.8,46.6c-8.7,6.8-19,9.6-28.3,8.5l-1.7,60.1l-93.6-8.1
				c5.4-14.4,9.9-29.2,13.3-44.2C2291.7,682.6,2317.2,598.5,2317.2,598.5z"/>
		</defs>
		<clipPath id="SVGID_00000088113671010100494720000012994673699085661629_">
			<use xlink:href="#SVGID_00000126312931901038858790000010565274858934582462_"  style="overflow:visible;"/>
		</clipPath>
		<g style="clip-path:url(#SVGID_00000088113671010100494720000012994673699085661629_);">
			<path class="st21" d="M2426.3,488.9c-18-14.5-44.2-18.2-65.6-9.3l-21,24.9c5.4,9.1,11,18.3,19,25.2s19.1,11.2,29.3,8.5
				c1.6-0.6,3.3-0.9,5-0.8c2.9,0.3,4.9,2.7,6.6,5.1c16.4,23.3,18.9,53.4,20.8,81.8l19.6-46.1c3.8-8.9,7.6-17.8,9.3-27.3
				C2453.6,528.2,2444.4,503.5,2426.3,488.9z"/>
			<path class="st21" d="M2408.6,666.3c-16,3.2-32,7.1-48.4,7.8s-33.4-2.2-46.8-11.5l-10.5,36.6c1.6,9.4,11.1,15.4,20.2,18.4
				c28.6,9.3,62.4-0.9,81.1-24.5c5.2-6.5,9.3-14.2,9.8-22.5c0.1-1.3,0-2.8-0.9-3.7C2412,665.7,2410.2,666,2408.6,666.3z"/>
		</g>
	</g>
	<path class="st21" d="M2461.1,628.9c-3,1.4-5.6,3.6-7.4,6.3c-1.8,2.7-3,5.7-3.6,8.8c-0.2,1.5-0.4,3.1-0.5,4.7
		c0,1.6,0.1,3.1,0.3,4.6c0.6-1.4,1.2-2.8,1.7-4.3c0.6-1.4,1.1-2.7,1.6-4.1c1.1-2.6,2.4-5.1,3.9-7.4c1.5-2.3,3.4-4.2,5.6-5.8
		c2.4-1.7,5-2.8,7.9-3.4C2467.4,627.3,2464.1,627.5,2461.1,628.9z"/>
	<path class="st21" d="M2463.2,636.3c-0.5,0-1,0-1.5,0c-0.5,0.1-1,0.1-1.5,0.2c-0.5,0.1-1,0.2-1.4,0.4c-0.5,0.1-0.9,0.3-1.3,0.5
		c-0.8,0.4-1.6,0.9-2.4,1.5c-0.7,0.6-1.4,1.3-2,2c0.9,0,1.9,0,2.8-0.2c0.9-0.1,1.7-0.1,2.5-0.2s1.6-0.1,2.4-0.1c0.7,0,1.4,0,2.2,0.1
		c1.4,0.1,2.7,0.4,3.9,1.1c1.5,0.8,2.8,1.8,3.9,3c0.3-2-0.4-4.1-1.8-5.5C2467.3,637.4,2465.3,636.4,2463.2,636.3z"/>
	<path class="st23" d="M2358.2,571.1c-3.6-1-7.8,2.8-9.4,8.5s0.2,11.1,3.8,12.1s7.8-2.8,9.4-8.5S2361.8,572.1,2358.2,571.1z"/>
	<path class="st22" d="M2384,550.2c-0.6-0.5-15.5-12.5-29.6-8c-1.7,0.4-2.8,2-2.4,3.7c0.4,1.7,2,2.8,3.7,2.4c0.2,0,0.4-0.1,0.6-0.2
		c10.8-3.4,23.6,6.8,23.7,6.9c0.6,0.5,1.3,0.7,2,0.7c1.7,0,3.2-1.4,3.2-3.2C2385.2,551.8,2384.8,550.9,2384,550.2L2384,550.2z"/>
	<path class="st24" d="M2388.4,590.2c-9-3.1-19.2,2.7-22.7,13s1,21.1,10,24.2s19.2-2.7,22.7-13S2397.4,593.3,2388.4,590.2z"/>
	<path class="st1" d="M2457.1,696.9c-10.4-2-89.8-13.6-111.2,26.9l-21.4,40.5l126.1-11l22.4-33.1
		C2472.9,720.2,2467.5,698.9,2457.1,696.9z"/>
	<path class="st2" d="M2348.6,630.7c-19.4,2.6-27.6-5.2-27.6-5.2s-5.4,18.9,9.3,23C2348.5,653.6,2368,628.1,2348.6,630.7z"/>
	<path class="st36" d="M2543.4,764.3c0,0-18.4-25.6-57.5-40.5s-140.1,0-140.1,0s-53,21.9-103.6,51.8s-103.5,237.9-103.5,237.9
		l-133.3-52.3l-60.6,108.6c0,0,127.3,89.7,169.1,99.5s61.6,0,61.6,0s21.8,136.3,34.5,171.2c9.8,26.8,117.5,11,215.9-23.6
		c29.3-10.3,57.7-22.3,82.5-35.3c70-36.7,93.5-5.6,96.1-1.6l-84.2-146.5l0,0c0.8-1.2,24.4-36.8,49.1-82.7l0,0
		c28.2-52.3,57.8-117.7,56.6-160.2C2623.8,810,2543.4,764.3,2543.4,764.3z"/>
	<g class="st11">
		<path d="M2303.2,995.1c0,0-46,118.4-72.4,144.8s-55.2,29.4-55.2,29.4s21.8,136.3,34.5,171.2c9.8,26.8,117.5,11,215.9-23.6
			l-122.8-156.2V995.1z"/>
	</g>
	<g class="st11">
		<path d="M2520.4,1133.4c0.8-1.2,24.4-36.8,49.1-82.7l0,0l9.4-139.5L2520.4,1133.4L2520.4,1133.4z"/>
	</g>
</g>
</svg>
