<?xml version="1.0" encoding="utf-8"?>
<!-- Generator: Adobe Illustrator 28.0.0, SVG Export Plug-In . SVG Version: 6.00 Build 0)  -->
<svg version="1.1" id="illustration" xmlns="http://www.w3.org/2000/svg" xmlns:xlink="http://www.w3.org/1999/xlink" x="0px"
	 y="0px" viewBox="0 0 517 488" style="enable-background:new 0 0 517 488;" xml:space="preserve">
<style type="text/css">
	.st0{fill:#E8E7FD;}
	.st1{fill:none;stroke:#A2A1F8;stroke-width:2;stroke-linecap:round;stroke-linejoin:round;stroke-miterlimit:10;}
	.st2{fill:#7069F6;}
	.st3{fill:#A2A1F8;}
	.st4{fill:none;stroke:#31199C;stroke-width:2;stroke-linecap:round;stroke-linejoin:round;stroke-miterlimit:10;}
</style>
<g>
	<path class="st0" d="M433.3,433.3c0,9-7.6,16.3-16.8,15.8c-7.8-0.4-14.3-6.8-14.9-14.6c-0.3-4,0.9-7.7,3-10.6
		c2.7-3.7,3.9-8.2,3.6-12.8c0-0.2,0-0.5,0-0.7c0-5.2,4.3-9.4,9.6-9.2c4.8,0.2,8.7,4.1,8.9,8.9c0,0.3,0,0.7,0,1
		c-0.3,4.6,0.8,9.2,3.5,12.9C432.1,426.5,433.3,429.8,433.3,433.3z"/>
	<path class="st1" d="M395.3,445.9c0,9-7.6,16.3-16.8,15.8c-7.8-0.4-14.3-6.8-14.9-14.6c-0.3-4,0.9-7.7,3-10.6
		c2.7-3.7,3.9-8.2,3.6-12.8c0-0.2,0-0.5,0-0.7c0-5.2,4.3-9.4,9.6-9.2c4.8,0.2,8.7,4.1,8.9,8.9c0,0.3,0,0.7,0,1
		c-0.3,4.6,0.8,9.2,3.5,12.9C394.1,439.1,395.3,442.4,395.3,445.9z"/>
	<line class="st1" x1="379.4" y1="438.5" x2="379.4" y2="472"/>
	<path class="st1" d="M433.3,433.3c0,9-7.6,16.3-16.8,15.8c-7.8-0.4-14.3-6.8-14.9-14.6c-0.3-4,0.9-7.7,3-10.6
		c2.7-3.7,3.9-8.2,3.6-12.8c0-0.2,0-0.5,0-0.7c0-5.2,4.3-9.4,9.6-9.2c4.8,0.2,8.7,4.1,8.9,8.9c0,0.3,0,0.7,0,1
		c-0.3,4.6,0.8,9.2,3.5,12.9C432.1,426.5,433.3,429.8,433.3,433.3z"/>
	<line class="st1" x1="417.4" y1="425.9" x2="417.4" y2="472"/>
	<line class="st1" x1="239" y1="330.9" x2="239" y2="387.4"/>
	<line class="st1" x1="239" y1="407.1" x2="239" y2="463.6"/>
	<polygon class="st2" points="283.9,330 238.9,285.1 194,330 101.4,330 130.6,268.8 347.3,268.8 376.5,330 	"/>
	<path class="st3" d="M238.9,194.8c-16.9,0-30.6,13.7-30.6,30.6s15,30.6,30.6,30.6s30.6-13.7,30.6-30.6
		C269.6,208.5,255.9,194.8,238.9,194.8z M238.9,246.9c-11.9,0-21.5-9.6-21.5-21.5s9.6-21.6,21.5-21.6s21.5,9.7,21.5,21.6
		C260.5,237.3,250.8,246.9,238.9,246.9z"/>
	<path class="st3" d="M312,14c0,0-31.4,29.3-39.1,39.8s52.4,75.5,67.1,74.1c14.7-1.4,79.1-42.8,102.9-63.9l23.8-19.8
		C466.6,44.2,395.2,57.3,312,14z"/>
	<path class="st4" d="M312,14c0,0-31.4,29.3-39.1,39.8s52.4,75.5,67.1,74.1"/>
	<path class="st4" d="M274.6,64c0,0-19.2,18.7-21.1,23.4s16.4,39.3,51.8,58.8c8.6,4.7,28.3-20.1,28.3-20.1"/>
	<path class="st4" d="M253.4,91.1c0,0-31.1,0-49.2,9.3c-15.7,8-40.4,31.2-55,46.4c-21.7,22.5-0.9,34.9,25.9,12.8"/>
	<path class="st4" d="M197.6,127.9c0,0-11.6,16.7-11.2,45.2c0.5,28.4,9.2,50.9,21.4,46.6c10.6-3.7,7.8-21.4,8.4-41
		c0.7-23.5,22.8-40.5,44.3-24.2s-7.9,41,5.1,55s45.9-27.7,39.7-63.2"/>
	<path class="st4" d="M179.8,117.8c0,0-37.6,10-47,14.7c-9.3,4.5-4.5,15.4,6.3,14.9"/>
	<path class="st4" d="M208.9,219.5c-0.4,1.9-0.6,3.9-0.6,5.9c0,16.9,15,30.6,30.6,30.6s30.6-13.7,30.6-30.6s-13.7-30.6-30.6-30.6
		c-9.3,0-17.6,4.1-23.2,10.6"/>
	<g>
		<path class="st2" d="M237.8,239.6v-3.5c-2,0-4.1-0.7-5.3-1.5l0.8-2.3c1.2,0.8,3,1.5,5,1.5c2.5,0,4.1-1.4,4.1-3.4
			c0-1.9-1.3-3.1-3.9-4.1c-3.5-1.4-5.7-3-5.7-6c0-2.9,2-5,5.2-5.6v-3.5h2.1v3.3c2.1,0.1,3.5,0.6,4.5,1.2l-0.9,2.3
			c-0.7-0.4-2.1-1.2-4.3-1.2c-2.7,0-3.7,1.6-3.7,3c0,1.8,1.3,2.7,4.3,3.9c3.6,1.5,5.4,3.2,5.4,6.3c0,2.7-1.9,5.3-5.5,5.9v3.6h-2.1
			V239.6z"/>
	</g>
	<polyline class="st4" points="128.2,395.6 128.2,472.4 10,472.4 	"/>
	<line class="st4" x1="128.2" y1="343" x2="128.2" y2="386.8"/>
	<polyline class="st4" points="349.7,395.6 349.7,472.4 506,472.4 	"/>
	<line class="st4" x1="349.7" y1="330" x2="349.7" y2="387.1"/>
	<polyline class="st4" points="101.4,330 130.6,268.8 347.3,268.8 376.5,330 283.9,330 238.9,285.1 	"/>
	<polyline class="st4" points="271.1,463.6 206.8,463.6 206.8,472.4 	"/>
	<rect x="217.5" y="407.1" class="st4" width="43.1" height="56.5"/>
	<rect x="217.5" y="330.9" class="st4" width="43.1" height="56.5"/>
	<g>
		<g>
			<rect x="282.6" y="407.1" class="st1" width="50.8" height="33.3"/>
			<g>
				<line class="st1" x1="299.6" y1="407.1" x2="299.6" y2="440.4"/>
				<line class="st1" x1="316.4" y1="407.1" x2="316.4" y2="440.4"/>
			</g>
		</g>
		<g>
			<rect x="144.5" y="407.1" class="st1" width="50.8" height="33.3"/>
			<g>
				<line class="st1" x1="161.5" y1="407.1" x2="161.5" y2="440.4"/>
				<line class="st1" x1="178.3" y1="407.1" x2="178.3" y2="440.4"/>
			</g>
		</g>
	</g>
	<circle class="st1" cx="239" cy="311.5" r="6.2"/>
	<g>
		<rect x="142.5" y="341.8" class="st1" width="17.5" height="34.7"/>
		<rect x="173.7" y="341.8" class="st1" width="17.5" height="34.7"/>
		<rect x="286.7" y="341.8" class="st1" width="17.5" height="34.7"/>
		<rect x="317.9" y="341.8" class="st1" width="17.5" height="34.7"/>
	</g>
	<rect x="120.4" y="387.6" class="st1" width="237.1" height="7.7"/>
	<line class="st4" x1="208.3" y1="277.8" x2="268.6" y2="277.8"/>
	<circle class="st4" cx="308.4" cy="128.8" r="3.9"/>
</g>
</svg>
