<?xml version="1.0" encoding="utf-8"?>
<!-- Generator: Adobe Illustrator 28.0.0, SVG Export Plug-In . SVG Version: 6.00 Build 0)  -->
<svg version="1.0" id="Layer_1" xmlns="http://www.w3.org/2000/svg" xmlns:xlink="http://www.w3.org/1999/xlink" x="0px" y="0px"
	 viewBox="0 0 382.61 481.52" enable-background="new 0 0 382.61 481.52" xml:space="preserve">
<g>
	<path fill="#E8E6F3" d="M338.88,428.69c0,9-7.6,16.3-16.8,15.8c-7.8-0.4-14.3-6.8-14.9-14.6c-0.3-4,0.9-7.7,3-10.6
		c2.7-3.7,3.9-8.2,3.6-12.8c0-0.2,0-0.5,0-0.7c0-5.2,4.3-9.4,9.6-9.2c4.8,0.2,8.7,4.1,8.9,8.9c0,0.3,0,0.7,0,1
		c-0.3,4.6,0.8,9.2,3.5,12.9C337.68,421.89,338.88,425.19,338.88,428.69z"/>
	<path fill="none" stroke="#A5A0CF" stroke-width="2" stroke-linecap="round" stroke-linejoin="round" stroke-miterlimit="10" d="
		M300.88,441.29c0,9-7.6,16.3-16.8,15.8c-7.8-0.4-14.3-6.8-14.9-14.6c-0.3-4,0.9-7.7,3-10.6c2.7-3.7,3.9-8.2,3.6-12.8
		c0-0.2,0-0.5,0-0.7c0-5.2,4.3-9.4,9.6-9.2c4.8,0.2,8.7,4.1,8.9,8.9c0,0.3,0,0.7,0,1c-0.3,4.6,0.8,9.2,3.5,12.9
		C299.68,434.49,300.88,437.79,300.88,441.29z"/>
	
		<line fill="none" stroke="#A5A0CF" stroke-width="2" stroke-linecap="round" stroke-linejoin="round" stroke-miterlimit="10" x1="284.98" y1="433.89" x2="284.98" y2="467.39"/>
	<path fill="none" stroke="#A5A0CF" stroke-width="2" stroke-linecap="round" stroke-linejoin="round" stroke-miterlimit="10" d="
		M338.88,428.69c0,9-7.6,16.3-16.8,15.8c-7.8-0.4-14.3-6.8-14.9-14.6c-0.3-4,0.9-7.7,3-10.6c2.7-3.7,3.9-8.2,3.6-12.8
		c0-0.2,0-0.5,0-0.7c0-5.2,4.3-9.4,9.6-9.2c4.8,0.2,8.7,4.1,8.9,8.9c0,0.3,0,0.7,0,1c-0.3,4.6,0.8,9.2,3.5,12.9
		C337.68,421.89,338.88,425.19,338.88,428.69z"/>
	
		<line fill="none" stroke="#A5A0CF" stroke-width="2" stroke-linecap="round" stroke-linejoin="round" stroke-miterlimit="10" x1="322.98" y1="421.29" x2="322.98" y2="467.39"/>
	
		<line fill="none" stroke="#A5A0CF" stroke-width="2" stroke-linecap="round" stroke-linejoin="round" stroke-miterlimit="10" x1="144.58" y1="326.29" x2="144.58" y2="382.79"/>
	
		<line fill="none" stroke="#A5A0CF" stroke-width="2" stroke-linecap="round" stroke-linejoin="round" stroke-miterlimit="10" x1="144.58" y1="402.49" x2="144.58" y2="458.99"/>
	<polygon fill="#6869B0" points="189.48,325.39 144.48,280.49 99.58,325.39 6.98,325.39 36.18,264.19 252.88,264.19 282.08,325.39 	
		"/>
	<path fill="#A5A0CF" d="M144.48,190.19c-16.9,0-30.6,13.7-30.6,30.6s15,30.6,30.6,30.6s30.6-13.7,30.6-30.6
		C175.18,203.89,161.48,190.19,144.48,190.19z M144.48,242.29c-11.9,0-21.5-9.6-21.5-21.5s9.6-21.6,21.5-21.6s21.5,9.7,21.5,21.6
		C166.08,232.69,156.38,242.29,144.48,242.29z"/>
	<path fill="#A5A0CF" d="M217.58,9.39c0,0-31.4,29.3-39.1,39.8s52.4,75.5,67.1,74.1c14.7-1.4,79.1-42.8,102.9-63.9l23.8-19.8
		C372.18,39.59,300.78,52.69,217.58,9.39z"/>
	<path fill="none" stroke="#3A2F90" stroke-width="2" stroke-linecap="round" stroke-linejoin="round" stroke-miterlimit="10" d="
		M217.58,9.39c0,0-31.4,29.3-39.1,39.8s52.4,75.5,67.1,74.1"/>
	<path fill="none" stroke="#3A2F90" stroke-width="2" stroke-linecap="round" stroke-linejoin="round" stroke-miterlimit="10" d="
		M180.18,59.39c0,0-19.2,18.7-21.1,23.4s16.4,39.3,51.8,58.8c8.6,4.7,28.3-20.1,28.3-20.1"/>
	<path fill="none" stroke="#3A2F90" stroke-width="2" stroke-linecap="round" stroke-linejoin="round" stroke-miterlimit="10" d="
		M158.98,86.49c0,0-31.1,0-49.2,9.3c-15.7,8-40.4,31.2-55,46.4c-21.7,22.5-0.9,34.9,25.9,12.8"/>
	<path fill="none" stroke="#3A2F90" stroke-width="2" stroke-linecap="round" stroke-linejoin="round" stroke-miterlimit="10" d="
		M103.18,123.29c0,0-11.6,16.7-11.2,45.2c0.5,28.4,9.2,50.9,21.4,46.6c10.6-3.7,7.8-21.4,8.4-41c0.7-23.5,22.8-40.5,44.3-24.2
		s-7.9,41,5.1,55s45.9-27.7,39.7-63.2"/>
	<path fill="none" stroke="#3A2F90" stroke-width="2" stroke-linecap="round" stroke-linejoin="round" stroke-miterlimit="10" d="
		M85.38,113.19c0,0-37.6,10-47,14.7c-9.3,4.5-4.5,15.4,6.3,14.9"/>
	<path fill="none" stroke="#3A2F90" stroke-width="2" stroke-linecap="round" stroke-linejoin="round" stroke-miterlimit="10" d="
		M114.48,214.89c-0.4,1.9-0.6,3.9-0.6,5.9c0,16.9,15,30.6,30.6,30.6s30.6-13.7,30.6-30.6s-13.7-30.6-30.6-30.6
		c-9.3,0-17.6,4.1-23.2,10.6"/>
	<g>
		<path fill="#6869B0" d="M143.38,234.99v-3.5c-2,0-4.1-0.7-5.3-1.5l0.8-2.3c1.2,0.8,3,1.5,5,1.5c2.5,0,4.1-1.4,4.1-3.4
			c0-1.9-1.3-3.1-3.9-4.1c-3.5-1.4-5.7-3-5.7-6c0-2.9,2-5,5.2-5.6v-3.5h2.1v3.3c2.1,0.1,3.5,0.6,4.5,1.2l-0.9,2.3
			c-0.7-0.4-2.1-1.2-4.3-1.2c-2.7,0-3.7,1.6-3.7,3c0,1.8,1.3,2.7,4.3,3.9c3.6,1.5,5.4,3.2,5.4,6.3c0,2.7-1.9,5.3-5.5,5.9v3.6h-2.1
			V234.99z"/>
	</g>
	
		<polyline fill="none" stroke="#3A2F90" stroke-width="2" stroke-linecap="round" stroke-linejoin="round" stroke-miterlimit="10" points="
		33.78,390.99 33.78,467.79 13.78,467.79 	"/>
	
		<line fill="none" stroke="#3A2F90" stroke-width="2" stroke-linecap="round" stroke-linejoin="round" stroke-miterlimit="10" x1="33.78" y1="338.39" x2="33.78" y2="382.19"/>
	
		<polyline fill="none" stroke="#3A2F90" stroke-width="2" stroke-linecap="round" stroke-linejoin="round" stroke-miterlimit="10" points="
		255.28,390.99 255.28,467.79 338.88,467.79 	"/>
	
		<line fill="none" stroke="#3A2F90" stroke-width="2" stroke-linecap="round" stroke-linejoin="round" stroke-miterlimit="10" x1="255.28" y1="325.39" x2="255.28" y2="382.49"/>
	
		<polyline fill="none" stroke="#3A2F90" stroke-width="2" stroke-linecap="round" stroke-linejoin="round" stroke-miterlimit="10" points="
		6.98,325.39 36.18,264.19 252.88,264.19 282.08,325.39 189.48,325.39 144.48,280.49 	"/>
	
		<polyline fill="none" stroke="#3A2F90" stroke-width="2" stroke-linecap="round" stroke-linejoin="round" stroke-miterlimit="10" points="
		176.68,458.99 112.38,458.99 112.38,467.79 	"/>
	
		<rect x="123.08" y="402.49" fill="none" stroke="#3A2F90" stroke-width="2" stroke-linecap="round" stroke-linejoin="round" stroke-miterlimit="10" width="43.1" height="56.5"/>
	
		<rect x="123.08" y="326.29" fill="none" stroke="#3A2F90" stroke-width="2" stroke-linecap="round" stroke-linejoin="round" stroke-miterlimit="10" width="43.1" height="56.5"/>
	<g>
		<g>
			
				<rect x="188.18" y="402.49" fill="none" stroke="#A5A0CF" stroke-width="2" stroke-linecap="round" stroke-linejoin="round" stroke-miterlimit="10" width="50.8" height="33.3"/>
			<g>
				
					<line fill="none" stroke="#A5A0CF" stroke-width="2" stroke-linecap="round" stroke-linejoin="round" stroke-miterlimit="10" x1="205.18" y1="402.49" x2="205.18" y2="435.79"/>
				
					<line fill="none" stroke="#A5A0CF" stroke-width="2" stroke-linecap="round" stroke-linejoin="round" stroke-miterlimit="10" x1="221.98" y1="402.49" x2="221.98" y2="435.79"/>
			</g>
		</g>
		<g>
			
				<rect x="50.08" y="402.49" fill="none" stroke="#A5A0CF" stroke-width="2" stroke-linecap="round" stroke-linejoin="round" stroke-miterlimit="10" width="50.8" height="33.3"/>
			<g>
				
					<line fill="none" stroke="#A5A0CF" stroke-width="2" stroke-linecap="round" stroke-linejoin="round" stroke-miterlimit="10" x1="67.08" y1="402.49" x2="67.08" y2="435.79"/>
				
					<line fill="none" stroke="#A5A0CF" stroke-width="2" stroke-linecap="round" stroke-linejoin="round" stroke-miterlimit="10" x1="83.88" y1="402.49" x2="83.88" y2="435.79"/>
			</g>
		</g>
	</g>
	
		<circle fill="none" stroke="#A5A0CF" stroke-width="2" stroke-linecap="round" stroke-linejoin="round" stroke-miterlimit="10" cx="144.58" cy="306.89" r="6.2"/>
	<g>
		
			<rect x="48.08" y="337.19" fill="none" stroke="#A5A0CF" stroke-width="2" stroke-linecap="round" stroke-linejoin="round" stroke-miterlimit="10" width="17.5" height="34.7"/>
		
			<rect x="79.28" y="337.19" fill="none" stroke="#A5A0CF" stroke-width="2" stroke-linecap="round" stroke-linejoin="round" stroke-miterlimit="10" width="17.5" height="34.7"/>
		
			<rect x="192.28" y="337.19" fill="none" stroke="#A5A0CF" stroke-width="2" stroke-linecap="round" stroke-linejoin="round" stroke-miterlimit="10" width="17.5" height="34.7"/>
		
			<rect x="223.48" y="337.19" fill="none" stroke="#A5A0CF" stroke-width="2" stroke-linecap="round" stroke-linejoin="round" stroke-miterlimit="10" width="17.5" height="34.7"/>
	</g>
	
		<rect x="25.98" y="382.99" fill="none" stroke="#A5A0CF" stroke-width="2" stroke-linecap="round" stroke-linejoin="round" stroke-miterlimit="10" width="237.1" height="7.7"/>
	
		<line fill="none" stroke="#3A2F90" stroke-width="2" stroke-linecap="round" stroke-linejoin="round" stroke-miterlimit="10" x1="113.88" y1="273.19" x2="174.18" y2="273.19"/>
	
		<circle fill="none" stroke="#3A2F90" stroke-width="2" stroke-linecap="round" stroke-linejoin="round" stroke-miterlimit="10" cx="213.98" cy="124.19" r="3.9"/>
</g>
</svg>
