<?xml version="1.0" encoding="utf-8"?>
<!-- Generator: Adobe Illustrator 28.0.0, SVG Export Plug-In . SVG Version: 6.00 Build 0)  -->
<svg version="1.1" id="Слой_1" xmlns="http://www.w3.org/2000/svg" xmlns:xlink="http://www.w3.org/1999/xlink" x="0px" y="0px"
	 viewBox="0 0 1700.8 1133.9" style="enable-background:new 0 0 1700.8 1133.9;" xml:space="preserve">
<style type="text/css">
	.st0{fill:#FFFFFF;}
	.st1{fill:#D7EAF5;}
	.st2{fill:#AFCFED;}
	.st3{fill:#C3D0F2;}
	.st4{fill:#788ACC;}
	.st5{fill:#F2F3F8;}
	.st6{fill:#53578C;}
	.st7{fill:#404063;}
	.st8{fill:#FFC338;}
	.st9{fill:#C27B1B;}
	.st10{fill:#F49055;}
	.st11{fill:#50517D;}
	.st12{filter:url(#Adobe_OpacityMaskFilter);}
	.st13{filter:url(#Adobe_OpacityMaskFilter_00000002366869647228727670000001481596588312283030_);}
	.st14{mask:url(#SVGID_1_);fill:url(#SVGID_00000072994447245797115140000009254019813093376427_);}
	.st15{fill:url(#SVGID_00000042701272503180137180000004667224754825974938_);}
	.st16{fill:#CF9278;}
	.st17{fill:#E8AC8E;}
	.st18{fill:#5B5F99;}
	.st19{fill:#FAAD7D;}
	.st20{fill:#343959;}
	.st21{fill:#DADADA;}
	.st22{fill:#E07D48;}
	.st23{fill:#B2B2B2;}
	.st24{fill:#878787;}
	.st25{fill:url(#SVGID_00000134212132497920191550000000613378659837334657_);}
	.st26{fill:url(#SVGID_00000043458685473080999630000015242015482654849442_);}
	.st27{fill:url(#SVGID_00000163054269922442037820000005080003696675831170_);}
	.st28{fill:url(#SVGID_00000022560334337052283160000007595992034075326608_);}
	.st29{fill:#F7D563;}
	.st30{fill:#EBB217;}
	.st31{fill:#D77A00;}
	.st32{fill:url(#SVGID_00000106112815735494179490000014233119568213494675_);}
	.st33{fill:#E69600;}
	.st34{fill:#4D4D4C;}
	.st35{fill:#575756;}
	.st36{fill:#333332;}
	.st37{fill:#706F6F;}
	.st38{fill:url(#SVGID_00000068674854119441455180000011505225942798936738_);}
	.st39{fill:#4F5180;}
	.st40{fill:#FE784C;}
	.st41{fill:#B0B0D1;}
</style>
<g>
	
		<rect x="0" y="0" transform="matrix(-1 -1.224647e-16 1.224647e-16 -1 1700.7874 1133.8582)" class="st0" width="1700.8" height="1133.9"/>
	<path class="st1" d="M1700.8,1133.9H0V-79.4c0,0,37.5,0,80,0c190,0,173.5,76.5,360.3,76.5c82.7,0,215.4,0,293.7,0
		c122.9,0,140.6-54.3,278.8-54.3c45.8,0,62.4,0,97.5,0c192.3,0,163.8-90.1,339.3-90.1c97.3,0,251.3,0,251.3,0V1133.9z"/>
	<g>
		<rect x="1449.7" y="671" class="st2" width="13.4" height="308.3"/>
		<rect x="1503.3" y="629.1" class="st2" width="13.4" height="350.3"/>
		<rect x="1556.9" y="629.1" class="st2" width="13.4" height="350.3"/>
		<rect x="1610.5" y="629.1" class="st2" width="13.4" height="350.3"/>
		<g>
			<rect x="1449.7" y="964.4" class="st2" width="174.2" height="5.8"/>
			<rect x="1449.7" y="922.5" class="st2" width="174.2" height="5.8"/>
			<rect x="1449.7" y="880.6" class="st2" width="174.2" height="5.8"/>
			<rect x="1449.7" y="838.7" class="st2" width="174.2" height="5.8"/>
			<rect x="1449.7" y="796.8" class="st2" width="174.2" height="5.8"/>
			<rect x="1449.7" y="754.9" class="st2" width="174.2" height="5.8"/>
			<rect x="1449.7" y="712.9" class="st2" width="174.2" height="5.8"/>
			<rect x="1503.3" y="671" class="st2" width="120.6" height="5.8"/>
		</g>
		<rect x="1503.3" y="754.9" class="st2" width="120.6" height="224.5"/>
	</g>
	<g>
		<rect x="743.7" y="712.9" class="st2" width="111.4" height="266.4"/>
		<g>
			<rect x="855.1" y="335.7" class="st2" width="174.2" height="643.7"/>
			<rect x="915.5" y="304.3" class="st2" width="71.1" height="31.4"/>
		</g>
		<rect x="582.9" y="671" class="st2" width="13.4" height="308.3"/>
		<rect x="636.5" y="629.1" class="st2" width="13.4" height="350.3"/>
		<rect x="690.1" y="629.1" class="st2" width="13.4" height="350.3"/>
		<rect x="743.7" y="629.1" class="st2" width="13.4" height="350.3"/>
		<g>
			<rect x="582.9" y="964.4" class="st2" width="174.2" height="5.8"/>
			<rect x="582.9" y="922.5" class="st2" width="174.2" height="5.8"/>
			<rect x="582.9" y="880.6" class="st2" width="174.2" height="5.8"/>
			<rect x="582.9" y="838.7" class="st2" width="174.2" height="5.8"/>
			<rect x="582.9" y="796.8" class="st2" width="174.2" height="5.8"/>
			<rect x="582.9" y="754.9" class="st2" width="174.2" height="5.8"/>
			<rect x="582.9" y="712.9" class="st2" width="174.2" height="5.8"/>
			<rect x="636.5" y="671" class="st2" width="120.6" height="5.8"/>
		</g>
		<rect x="636.5" y="754.9" class="st2" width="120.6" height="224.5"/>
	</g>
	<rect x="1162.9" y="629.1" class="st3" width="89.6" height="350.3"/>
	<g>
		<rect x="1244.4" y="587.2" class="st3" width="8.2" height="392.2"/>
		<rect x="1280" y="587.2" class="st3" width="8.2" height="392.2"/>
		<rect x="1315.5" y="587.2" class="st3" width="8.2" height="392.2"/>
		<rect x="1351" y="629.1" class="st3" width="8.2" height="350.3"/>
		<rect x="1288.1" y="587.2" class="st4" width="8.9" height="392.2"/>
		<rect x="1323.6" y="587.2" class="st4" width="8.9" height="392.2"/>
		<rect x="1359.2" y="629.1" class="st4" width="8.9" height="350.3"/>
		<rect x="1288.1" y="754.9" class="st4" width="44.4" height="224.5"/>
		<rect x="1332.5" y="913.9" class="st4" width="26.6" height="8.7"/>
		<rect x="1332.5" y="955.8" class="st4" width="26.6" height="23.6"/>
		<rect x="1332.5" y="871.9" class="st4" width="26.6" height="8.7"/>
		<rect x="1332.5" y="830" class="st4" width="26.6" height="8.7"/>
		<rect x="1252.6" y="587.2" class="st4" width="8.9" height="392.2"/>
		<g>
			<rect x="1252.6" y="964.4" class="st4" width="115.5" height="5.8"/>
			<rect x="1252.6" y="922.5" class="st4" width="115.5" height="5.8"/>
			<rect x="1252.6" y="880.6" class="st4" width="115.5" height="5.8"/>
			<rect x="1252.6" y="838.7" class="st4" width="115.5" height="5.8"/>
			<rect x="1252.6" y="796.8" class="st4" width="115.5" height="5.8"/>
			<rect x="1252.6" y="754.9" class="st4" width="115.5" height="5.8"/>
			<rect x="1252.6" y="712.9" class="st4" width="115.5" height="5.8"/>
			<rect x="1252.6" y="671" class="st4" width="115.5" height="5.8"/>
			<rect x="1252.6" y="629.1" class="st4" width="79.9" height="5.8"/>
		</g>
		<rect x="1252.6" y="629.1" class="st4" width="44.4" height="350.3"/>
		<g>
			<rect x="1304.9" y="844.5" class="st5" width="11" height="27.5"/>
			<rect x="1304.9" y="886.4" class="st5" width="11" height="27.5"/>
			<rect x="1304.9" y="928.3" class="st5" width="11" height="27.5"/>
			<rect x="1304.9" y="802.5" class="st5" width="11" height="27.5"/>
			<rect x="1304.9" y="760.6" class="st5" width="11" height="27.5"/>
		</g>
		<g>
			<rect x="1310.3" y="844.5" class="st3" width="5.5" height="27.5"/>
			<rect x="1310.3" y="886.4" class="st3" width="5.5" height="27.5"/>
			<rect x="1310.3" y="928.3" class="st3" width="5.5" height="27.5"/>
			<rect x="1310.3" y="802.5" class="st3" width="5.5" height="27.5"/>
			<rect x="1310.3" y="760.6" class="st3" width="5.5" height="27.5"/>
		</g>
	</g>
	<g>
		<rect x="975.8" y="461.5" class="st6" width="107.2" height="517.9"/>
		
			<rect x="1083" y="461.5" transform="matrix(-1 -1.224647e-16 1.224647e-16 -1 2237.0603 1440.8326)" class="st7" width="71.1" height="517.9"/>
		<rect x="908.8" y="461.5" class="st0" width="13.4" height="517.9"/>
		<rect x="962.4" y="461.5" class="st0" width="13.4" height="517.9"/>
		<rect x="1016" y="461.5" class="st0" width="13.4" height="517.9"/>
		<rect x="1069.6" y="461.5" class="st0" width="13.4" height="517.9"/>
		<rect x="922.2" y="461.5" class="st4" width="8.2" height="517.9"/>
		<rect x="975.8" y="461.5" class="st4" width="8.2" height="517.9"/>
		<rect x="1029.4" y="461.5" class="st4" width="8.2" height="517.9"/>
		<g>
			<rect x="908.8" y="964.4" class="st0" width="174.2" height="5.8"/>
			<rect x="908.8" y="922.5" class="st0" width="174.2" height="5.8"/>
			<rect x="908.8" y="880.6" class="st0" width="174.2" height="5.8"/>
			<rect x="908.8" y="838.7" class="st0" width="174.2" height="5.8"/>
			<rect x="908.8" y="796.8" class="st0" width="174.2" height="5.8"/>
			<rect x="908.8" y="754.9" class="st0" width="174.2" height="5.8"/>
			<rect x="908.8" y="712.9" class="st0" width="174.2" height="5.8"/>
			<rect x="908.8" y="671" class="st0" width="174.2" height="5.8"/>
			<rect x="908.8" y="629.1" class="st0" width="174.2" height="5.8"/>
			<rect x="908.8" y="587.2" class="st0" width="174.2" height="5.8"/>
			<rect x="908.8" y="545.3" class="st0" width="174.2" height="5.8"/>
			<rect x="908.8" y="503.4" class="st0" width="174.2" height="5.8"/>
			<rect x="908.8" y="461.5" class="st0" width="174.2" height="5.8"/>
		</g>
		<rect x="975.8" y="377.6" class="st0" width="107.2" height="83.8"/>
		<rect x="906.5" y="419.5" class="st8" width="15.7" height="41.9"/>
		<rect x="922.2" y="419.5" class="st9" width="10.4" height="41.9"/>
		<rect x="960.1" y="419.5" class="st8" width="15.7" height="41.9"/>
		<rect x="975.8" y="419.5" class="st9" width="10.4" height="41.9"/>
		<rect x="1013.7" y="419.5" class="st8" width="15.7" height="41.9"/>
		<rect x="1029.4" y="419.5" class="st9" width="10.4" height="41.9"/>
		<rect x="1067.3" y="419.5" class="st8" width="15.7" height="41.9"/>
		<rect x="1189.6" y="461.5" class="st4" width="8.9" height="517.9"/>
		<rect x="1154.1" y="461.5" class="st4" width="8.9" height="517.9"/>
		<rect x="1118.5" y="461.5" class="st4" width="8.9" height="517.9"/>
		<rect x="1083" y="461.5" class="st4" width="8.9" height="517.9"/>
		<rect x="1181.4" y="461.5" class="st3" width="8.2" height="517.9"/>
		<rect x="1145.9" y="461.5" class="st3" width="8.2" height="517.9"/>
		<rect x="1110.4" y="461.5" class="st3" width="8.2" height="517.9"/>
		
			<rect x="1083" y="377.6" transform="matrix(-1 -1.224647e-16 1.224647e-16 -1 2237.0603 839.078)" class="st4" width="71.1" height="83.8"/>
		<rect x="1083" y="419.5" class="st9" width="10.4" height="41.9"/>
		<rect x="1108.8" y="419.5" class="st8" width="9.7" height="41.9"/>
		<rect x="1118.5" y="419.5" class="st9" width="10.4" height="41.9"/>
		<rect x="1144.4" y="419.5" class="st8" width="9.7" height="41.9"/>
		<rect x="1154.1" y="419.5" class="st9" width="10.4" height="41.9"/>
		<rect x="1179.9" y="419.5" class="st8" width="9.7" height="41.9"/>
		<rect x="1189.6" y="419.5" class="st9" width="10.4" height="41.9"/>
		<g>
			<rect x="1083" y="964.4" class="st4" width="115.5" height="5.8"/>
			<rect x="1083" y="922.5" class="st4" width="115.5" height="5.8"/>
			<rect x="1083" y="880.6" class="st4" width="115.5" height="5.8"/>
			<rect x="1083" y="838.7" class="st4" width="115.5" height="5.8"/>
			<rect x="1083" y="796.8" class="st4" width="115.5" height="5.8"/>
			<rect x="1083" y="754.9" class="st4" width="115.5" height="5.8"/>
			<rect x="1083" y="712.9" class="st4" width="115.5" height="5.8"/>
			<rect x="1083" y="671" class="st4" width="115.5" height="5.8"/>
			<rect x="1083" y="629.1" class="st4" width="115.5" height="5.8"/>
			<rect x="1083" y="587.2" class="st4" width="115.5" height="5.8"/>
			<rect x="1083" y="545.3" class="st4" width="115.5" height="5.8"/>
			<rect x="1083" y="503.4" class="st4" width="115.5" height="5.8"/>
			<rect x="1083" y="461.5" class="st4" width="115.5" height="5.8"/>
		</g>
		<rect x="979.9" y="955.8" class="st10" width="36.1" height="8.7"/>
		<g>
			<rect x="908.1" y="421.5" class="st9" width="12.5" height="1.9"/>
			<rect x="908.1" y="430.5" class="st9" width="12.5" height="1.9"/>
			<rect x="908.1" y="439.5" class="st9" width="12.5" height="1.9"/>
			<rect x="908.1" y="448.5" class="st9" width="12.5" height="1.9"/>
		</g>
		<rect x="926.3" y="955.8" class="st10" width="36.1" height="8.7"/>
		<rect x="1033.5" y="955.8" class="st10" width="36.1" height="8.7"/>
		<g>
			<rect x="961.7" y="421.5" class="st9" width="12.5" height="1.9"/>
			<rect x="961.7" y="430.5" class="st9" width="12.5" height="1.9"/>
			<rect x="961.7" y="439.5" class="st9" width="12.5" height="1.9"/>
			<rect x="961.7" y="448.5" class="st9" width="12.5" height="1.9"/>
		</g>
		<g>
			<rect x="1015.3" y="421.5" class="st9" width="12.5" height="1.9"/>
			<rect x="1015.3" y="430.5" class="st9" width="12.5" height="1.9"/>
			<rect x="1015.3" y="439.5" class="st9" width="12.5" height="1.9"/>
			<rect x="1015.3" y="448.5" class="st9" width="12.5" height="1.9"/>
		</g>
		<g>
			<rect x="1068.9" y="421.5" class="st9" width="12.5" height="1.9"/>
			<rect x="1068.9" y="430.5" class="st9" width="12.5" height="1.9"/>
			<rect x="1068.9" y="439.5" class="st9" width="12.5" height="1.9"/>
			<rect x="1068.9" y="448.5" class="st9" width="12.5" height="1.9"/>
		</g>
		<rect x="979.9" y="913.9" class="st10" width="36.1" height="8.7"/>
		<rect x="926.3" y="913.9" class="st10" width="36.1" height="8.7"/>
		<rect x="1033.5" y="913.9" class="st10" width="36.1" height="8.7"/>
		<rect x="979.9" y="871.9" class="st5" width="36.1" height="8.7"/>
		<rect x="926.3" y="871.9" class="st10" width="36.1" height="8.7"/>
		<rect x="1033.5" y="871.9" class="st10" width="36.1" height="8.7"/>
		<rect x="979.9" y="830" class="st10" width="36.1" height="8.7"/>
		<rect x="926.3" y="830" class="st5" width="36.1" height="8.7"/>
		<rect x="1033.5" y="830" class="st5" width="36.1" height="8.7"/>
		<rect x="979.9" y="788.1" class="st5" width="36.1" height="8.7"/>
		<rect x="926.3" y="788.1" class="st5" width="36.1" height="8.7"/>
		<rect x="1033.5" y="788.1" class="st5" width="36.1" height="8.7"/>
		<rect x="1033.5" y="746.2" class="st5" width="36.1" height="8.7"/>
		<g>
			<rect x="1110.2" y="421.5" class="st9" width="6.9" height="1.9"/>
			<rect x="1110.2" y="430.5" class="st9" width="6.9" height="1.9"/>
			<rect x="1110.2" y="439.5" class="st9" width="6.9" height="1.9"/>
			<rect x="1110.2" y="448.5" class="st9" width="6.9" height="1.9"/>
		</g>
		<g>
			<rect x="1145.7" y="421.5" class="st9" width="6.9" height="1.9"/>
			<rect x="1145.7" y="430.5" class="st9" width="6.9" height="1.9"/>
			<rect x="1145.7" y="439.5" class="st9" width="6.9" height="1.9"/>
			<rect x="1145.7" y="448.5" class="st9" width="6.9" height="1.9"/>
		</g>
		<g>
			<rect x="1181.3" y="421.5" class="st9" width="6.9" height="1.9"/>
			<rect x="1181.3" y="430.5" class="st9" width="6.9" height="1.9"/>
			<rect x="1181.3" y="439.5" class="st9" width="6.9" height="1.9"/>
			<rect x="1181.3" y="448.5" class="st9" width="6.9" height="1.9"/>
		</g>
		<rect x="1083" y="754.9" class="st4" width="44.4" height="89.6"/>
		<rect x="979.9" y="970.2" class="st5" width="36.1" height="9.2"/>
		<rect x="926.3" y="970.2" class="st5" width="36.1" height="9.2"/>
		<rect x="1033.5" y="970.2" class="st5" width="36.1" height="9.2"/>
		<rect x="1083" y="838.7" class="st4" width="115.5" height="140.7"/>
		<rect x="1135.3" y="886.4" class="st11" width="11" height="27.5"/>
		<rect x="1135.3" y="844.5" class="st11" width="11" height="27.5"/>
		<rect x="1135.3" y="928.3" class="st11" width="11" height="27.5"/>
		<rect x="1140.7" y="844.5" class="st3" width="5.5" height="27.5"/>
		<rect x="1140.7" y="886.4" class="st3" width="5.5" height="27.5"/>
		<rect x="1140.7" y="928.3" class="st3" width="5.5" height="27.5"/>
	</g>
	<g>
		<path class="st2" d="M491.4,327.8v651.6h27.1V327.8H491.4z M513.7,402.3l-19.2,21.2v-45.4l19.2,21.2h-5.5v3H513.7z M513.7,455.5
			l-19.2,21.2v-45.4l19.2,21.2h-5.5v3H513.7z M513.7,508.6l-19.2,21.2v-45.4l19.2,21.2h-5.5v3H513.7z M513.7,561.8L494.4,583v-45.4
			l19.2,21.2h-5.5v3H513.7z M513.7,615l-19.2,21.2v-45.4l19.2,21.2h-5.5v3H513.7z M513.7,668.2l-19.2,21.2V644l19.2,21.2h-5.5v3
			H513.7z M513.7,721.3l-19.2,21.2v-45.4l19.2,21.2h-5.5v3H513.7z M513.7,774.5l-19.2,21.2v-45.4l19.2,21.2h-5.5v3H513.7z
			 M513.7,827.7l-19.2,21.2v-45.4l19.2,21.2h-5.5v3H513.7z M513.7,880.9l-19.2,21.2v-45.4l19.2,21.2h-5.5v3H513.7z M513.7,934.1
			l-19.2,21.2v-45.4l19.2,21.2h-5.5v3H513.7z M515.6,904.5h-7.4v3h7.4v21.2L495,906l20.6-22.7V904.5z M515.6,851.3h-7.4v3h7.4v21.2
			L495,852.8l20.6-22.7V851.3z M515.6,798.1h-7.4v3h7.4v21.2L495,799.6l20.6-22.7V798.1z M515.6,744.9h-7.4v3h7.4v21.2L495,746.4
			l20.6-22.7V744.9z M515.6,691.8h-7.4v3h7.4V716L495,693.3l20.6-22.7V691.8z M515.6,638.6h-7.4v3h7.4v21.2L495,640.1l20.6-22.7
			V638.6z M515.6,585.4h-7.4v3h7.4v21.2L495,586.9l20.6-22.7V585.4z M515.6,532.2h-7.4v3h7.4v21.2L495,533.7l20.6-22.7V532.2z
			 M515.6,479h-7.4v3h7.4v21.2L495,480.5l20.6-22.7V479z M515.6,425.9h-7.4v3h7.4v21.2L495,427.4l20.6-22.7V425.9z M515.6,330.8
			v41.9h-7.4v3h7.4v21.2l-21.1-23.3v-42.8H515.6z M494.4,976.4v-16.7l21.1-23.3v21.2h-7.4v3h7.4v15.7H494.4z"/>
		<g>
			
				<rect x="398" y="265.8" transform="matrix(0.6829 -0.7305 0.7305 0.6829 -48.9731 419.9633)" class="st2" width="122.6" height="1.3"/>
		</g>
		<g>
			
				<rect x="599.5" y="157.7" transform="matrix(0.4119 -0.9112 0.9112 0.4119 110.2091 703.5603)" class="st2" width="1.3" height="217.4"/>
		</g>
		
			<rect x="413" y="311.2" transform="matrix(-1 -1.224647e-16 1.224647e-16 -1 834.9176 658.5776)" class="st2" width="8.9" height="36.2"/>
		
			<rect x="346.4" y="311.2" transform="matrix(-1 -1.224647e-16 1.224647e-16 -1 759.4443 658.5776)" class="st2" width="66.6" height="36.2"/>
		<g>
			<polygon class="st2" points="710.3,503.9 709.6,502.8 748.9,475.5 768.2,503 767.1,503.7 748.6,477.3 			"/>
		</g>
		<g>
			<polygon class="st2" points="787.2,503.9 748.9,477.3 730.4,503.7 729.3,503 748.6,475.5 749.1,475.9 787.9,502.8 			"/>
		</g>
		<g>
			<rect x="709.9" y="503.4" class="st2" width="57.7" height="9.1"/>
		</g>
		<g>
			
				<rect x="767.6" y="503.4" transform="matrix(-1 -1.224647e-16 1.224647e-16 -1 1555.1714 1015.8561)" class="st2" width="19.9" height="9.1"/>
		</g>
		<g>
			<g>
				<path class="st2" d="M748.7,479.8c-3.1,0-5.6-2.5-5.6-5.6h2.6c0,1.7,1.4,3,3,3c1.7,0,3-1.4,3-3c0-0.9-0.4-1.6-0.8-2
					c-0.2-0.2-0.5-0.5-0.8-0.7c-1.1-0.9-2.7-2.3-2.7-4.7h2.6c0,1.2,0.7,1.9,1.8,2.8c0.4,0.3,0.8,0.7,1.1,1.1
					c0.9,1.1,1.4,2.4,1.4,3.7C754.3,477.3,751.8,479.8,748.7,479.8z"/>
			</g>
		</g>
		<g>
			<polygon class="st2" points="736.3,451.4 736.3,459.4 748.7,467.5 761.2,459.4 761.2,451.4 			"/>
		</g>
		<g>
			<rect x="737.7" y="337.3" class="st2" width="1.3" height="114"/>
		</g>
		<g>
			<rect x="758.5" y="337.3" class="st2" width="1.3" height="114"/>
		</g>
		<path class="st2" d="M820.6,328.1L799.2,310c0,0,0,0-0.1,0c0,0-0.1-0.1-0.1-0.1c0,0-0.1,0-0.1-0.1c0,0-0.1,0-0.1-0.1
			c-0.1,0-0.1,0-0.2,0c0,0,0,0-0.1,0c0,0,0,0-0.1,0c-0.1,0-0.1,0-0.2,0c0,0-0.1,0-0.1,0c-0.1,0-0.1,0-0.2,0c0,0-0.1,0-0.1,0
			c-0.1,0-0.1,0-0.1,0c0,0-0.1,0-0.1,0c0,0-0.1,0-0.1,0.1c0,0-0.1,0-0.1,0.1c0,0-0.1,0.1-0.1,0.1c0,0-0.1,0.1-0.1,0.1c0,0,0,0,0,0
			c0,0,0,0,0,0.1c0,0-0.1,0.1-0.1,0.1c0,0,0,0.1-0.1,0.1c0,0,0,0.1-0.1,0.1c0,0,0,0.1,0,0.1c0,0,0,0,0,0.1l-3,15.6L774.5,310
			c0,0,0,0-0.1,0c0,0-0.1-0.1-0.1-0.1c0,0-0.1,0-0.1-0.1c0,0-0.1,0-0.1-0.1c-0.1,0-0.1,0-0.2,0c0,0,0,0-0.1,0c0,0,0,0-0.1,0
			c-0.1,0-0.1,0-0.2,0c0,0-0.1,0-0.1,0c0,0-0.1,0-0.1,0c0,0-0.1,0-0.1,0c0,0-0.1,0-0.1,0c0,0-0.1,0-0.1,0.1c0,0-0.1,0-0.1,0.1
			c0,0-0.1,0-0.1,0.1s-0.1,0.1-0.1,0.1c0,0-0.1,0.1-0.1,0.1c0,0,0,0,0,0c0,0,0,0,0,0.1c0,0-0.1,0.1-0.1,0.1c0,0,0,0.1-0.1,0.1
			c0,0,0,0.1-0.1,0.1c0,0.1,0,0.1,0,0.2c0,0,0,0,0,0.1l-3.2,15.6L749.7,310c0,0,0,0-0.1,0c0,0-0.1-0.1-0.1-0.1c0,0-0.1,0-0.1-0.1
			c0,0-0.1,0-0.1-0.1c0,0-0.1,0-0.2,0c0,0,0,0-0.1,0c0,0,0,0-0.1,0c-0.1,0-0.1,0-0.2,0c0,0-0.1,0-0.1,0c0,0-0.1,0-0.1,0
			c0,0-0.1,0-0.1,0c-0.1,0-0.1,0-0.1,0c0,0-0.1,0-0.1,0c0,0-0.1,0-0.1,0.1c0,0-0.1,0-0.1,0.1c0,0-0.1,0.1-0.1,0.1
			c0,0-0.1,0.1-0.1,0.1c0,0,0,0-0.1,0c0,0,0,0,0,0.1c0,0-0.1,0.1-0.1,0.1c0,0-0.1,0.1-0.1,0.1c0,0,0,0.1-0.1,0.1c0,0.1,0,0.1,0,0.2
			c0,0,0,0,0,0.1l-3.3,15.6L725,310c0,0,0,0-0.1,0c0,0-0.1-0.1-0.1-0.1c0,0-0.1,0-0.1-0.1c0,0-0.1,0-0.1-0.1c-0.1,0-0.1,0-0.2-0.1
			c0,0,0,0-0.1,0c0,0,0,0-0.1,0c-0.1,0-0.1,0-0.2,0c0,0-0.1,0-0.1,0c0,0-0.1,0-0.1,0c-0.1,0-0.1,0-0.1,0c0,0-0.1,0-0.1,0
			c0,0-0.1,0-0.1,0.1c0,0-0.1,0-0.1,0.1c0,0-0.1,0.1-0.1,0.1c0,0-0.1,0.1-0.1,0.1c0,0-0.1,0.1-0.1,0.1c0,0,0,0,0,0c0,0,0,0,0,0.1
			c0,0-0.1,0.1-0.1,0.1c0,0,0,0.1-0.1,0.1c0,0,0,0.1-0.1,0.1c0,0.1,0,0.1-0.1,0.2c0,0,0,0,0,0.1l-3.5,15.6L700.2,310c0,0,0,0-0.1,0
			c0,0-0.1-0.1-0.1-0.1c0,0-0.1-0.1-0.1-0.1c0,0-0.1,0-0.1-0.1c-0.1,0-0.1,0-0.2-0.1c0,0,0,0-0.1,0c0,0,0,0-0.1,0
			c-0.1,0-0.1,0-0.2,0c0,0-0.1,0-0.1,0c0,0-0.1,0-0.1,0c-0.1,0-0.1,0-0.2,0c0,0-0.1,0-0.1,0c-0.1,0-0.1,0-0.1,0.1c0,0-0.1,0-0.1,0.1
			c0,0-0.1,0.1-0.1,0.1c0,0-0.1,0.1-0.1,0.1c0,0-0.1,0.1-0.1,0.1c0,0,0,0,0,0c0,0,0,0,0,0c0,0-0.1,0.1-0.1,0.1c0,0,0,0.1-0.1,0.1
			c0,0,0,0.1-0.1,0.1c0,0.1,0,0.1-0.1,0.2c0,0,0,0,0,0.1l-3.6,15.7L675.5,310c0,0,0,0-0.1,0c0,0-0.1-0.1-0.1-0.1
			c0,0-0.1-0.1-0.1-0.1c0,0-0.1,0-0.1-0.1c-0.1,0-0.1,0-0.2-0.1c0,0,0,0-0.1,0c0,0,0,0-0.1,0c-0.1,0-0.1,0-0.2,0c-0.1,0-0.1,0-0.1,0
			c0,0-0.1,0-0.1,0c-0.1,0-0.1,0-0.2,0c0,0-0.1,0-0.1,0c0,0-0.1,0-0.1,0.1c0,0-0.1,0-0.1,0.1c0,0-0.1,0.1-0.1,0.1
			c0,0-0.1,0.1-0.1,0.1c0,0-0.1,0.1-0.1,0.1c0,0,0,0-0.1,0.1c0,0,0,0,0,0c0,0-0.1,0.1-0.1,0.1c0,0-0.1,0.1-0.1,0.1
			c0,0,0,0.1-0.1,0.1c0,0.1,0,0.1-0.1,0.2c0,0,0,0,0,0.1l-3.8,15.7l-18.5-16.5c0,0,0,0,0,0c0,0-0.1-0.1-0.1-0.1c0,0-0.1-0.1-0.1-0.1
			c0,0-0.1,0-0.1-0.1c0,0-0.1,0-0.1-0.1c0,0,0,0-0.1,0c0,0-0.1,0-0.1,0c-0.1,0-0.1,0-0.2,0c0,0-0.1,0-0.1,0c-0.1,0-0.1,0-0.2,0
			c0,0-0.1,0-0.1,0c-0.1,0-0.1,0-0.2,0c0,0-0.1,0-0.1,0c-0.1,0-0.1,0-0.1,0.1c0,0-0.1,0-0.1,0.1c0,0-0.1,0.1-0.1,0.1
			c0,0-0.1,0.1-0.1,0.1c0,0,0,0-0.1,0.1c0,0,0,0,0,0c0,0-0.1,0.1-0.1,0.1c0,0-0.1,0.1-0.1,0.1c0,0,0,0.1-0.1,0.1c0,0,0,0.1-0.1,0.2
			c0,0,0,0,0,0.1l-3.9,15.7L626,310.1c0,0,0,0,0,0c0,0-0.1-0.1-0.1-0.1c0,0-0.1-0.1-0.1-0.1c0,0-0.1,0-0.1-0.1c-0.1,0-0.1,0-0.2-0.1
			c0,0,0,0,0,0c0,0-0.1,0-0.1,0c-0.1,0-0.1,0-0.2,0c0,0-0.1,0-0.1,0c0,0-0.1,0-0.1,0c-0.1,0-0.1,0-0.2,0c0,0-0.1,0-0.1,0
			c-0.1,0-0.1,0-0.2,0.1c0,0-0.1,0-0.1,0.1c0,0-0.1,0.1-0.1,0.1c0,0-0.1,0-0.1,0.1c0,0-0.1,0.1-0.1,0.1c0,0,0,0-0.1,0c0,0,0,0,0,0
			c0,0-0.1,0.1-0.1,0.1c0,0-0.1,0.1-0.1,0.1c0,0,0,0.1-0.1,0.1c0,0.1,0,0.1-0.1,0.2c0,0,0,0,0,0.1l-4.1,15.7l-18.2-16.5c0,0,0,0,0,0
			c0,0-0.1-0.1-0.1-0.1c0,0-0.1-0.1-0.1-0.1c0,0-0.1,0-0.1-0.1c0,0-0.1,0-0.1-0.1c0,0,0,0,0,0c0,0-0.1,0-0.1,0c-0.1,0-0.1,0-0.2,0
			c0,0-0.1,0-0.1,0c0,0-0.1,0-0.1,0c0,0-0.1,0-0.1,0c0,0-0.1,0-0.1,0s-0.1,0-0.1,0c0,0-0.1,0-0.1,0.1c0,0-0.1,0-0.1,0.1
			c0,0-0.1,0.1-0.1,0.1c0,0-0.1,0.1-0.1,0.1c0,0,0,0-0.1,0.1c0,0,0,0,0,0c0,0-0.1,0.1-0.1,0.1c0,0-0.1,0.1-0.1,0.1
			c0,0,0,0.1-0.1,0.1c0,0.1,0,0.1-0.1,0.2c0,0,0,0,0,0l-4.2,15.7l-18.1-16.5c0,0,0,0,0,0c0,0-0.1-0.1-0.1-0.1c0,0-0.1-0.1-0.1-0.1
			c0,0-0.1,0-0.1-0.1c-0.1,0-0.1,0-0.2-0.1c0,0,0,0,0,0c0,0-0.1,0-0.1,0c-0.1,0-0.1,0-0.2,0c0,0-0.1,0-0.1,0c0,0-0.1,0-0.1,0
			c0,0-0.1,0-0.1,0c0,0-0.1,0-0.1,0c0,0-0.1,0-0.1,0c0,0-0.1,0-0.1,0.1c0,0-0.1,0-0.1,0.1c0,0-0.1,0.1-0.1,0.1c0,0-0.1,0.1-0.1,0.1
			c0,0,0,0-0.1,0.1c0,0,0,0,0,0c0,0-0.1,0.1-0.1,0.1c0,0-0.1,0.1-0.1,0.1c0,0,0,0.1-0.1,0.1c0,0.1,0,0.1-0.1,0.2c0,0,0,0,0,0
			l-4.4,15.8l-17.9-16.5c0,0,0,0,0,0c0,0-0.1-0.1-0.1-0.1c0,0-0.1-0.1-0.1-0.1c0,0-0.1,0-0.1-0.1c0,0-0.1,0-0.1-0.1c0,0,0,0,0,0
			c0,0-0.1,0-0.1,0c-0.1,0-0.1,0-0.2,0c0,0-0.1,0-0.1,0c-0.1,0-0.1,0-0.2,0c0,0-0.1,0-0.1,0c0,0-0.1,0-0.1,0c0,0-0.1,0-0.1,0
			c0,0-0.1,0-0.1,0.1c0,0-0.1,0-0.1,0.1c0,0-0.1,0.1-0.1,0.1c0,0-0.1,0.1-0.1,0.1c0,0,0,0-0.1,0.1c0,0,0,0,0,0c0,0-0.1,0.1-0.1,0.1
			c0,0-0.1,0.1-0.1,0.1c0,0,0,0.1-0.1,0.1c0,0,0,0.1-0.1,0.2c0,0,0,0,0,0l-4.5,15.8L527,310.1c-0.6-0.6-1.6-0.5-2.1,0.1
			c-0.6,0.6-0.5,1.6,0.1,2.1l19.6,18.1c0,0,0,0,0,0c0,0,0.1,0.1,0.1,0.1c0,0,0.1,0.1,0.1,0.1c0,0,0.1,0,0.1,0.1c0.1,0,0.1,0,0.2,0.1
			c0,0,0,0,0.1,0c0,0,0.1,0,0.1,0c0,0,0,0,0.1,0c0.1,0,0.2,0,0.2,0c0.1,0,0.2,0,0.3,0c0,0,0.1,0,0.1,0c0.1,0,0.1,0,0.2-0.1
			c0,0,0.1,0,0.1,0c0.1,0,0.1-0.1,0.2-0.1c0,0,0,0,0.1,0c0.1-0.1,0.1-0.1,0.2-0.2c0,0,0,0,0,0c0,0,0,0,0,0c0-0.1,0.1-0.1,0.1-0.2
			c0,0,0-0.1,0.1-0.1c0,0,0.1-0.1,0.1-0.2c0,0,0-0.1,0-0.1c0,0,0,0,0-0.1l4.5-15.8l17.9,16.5c0,0,0,0,0,0c0,0,0.1,0.1,0.1,0.1
			c0,0,0.1,0.1,0.1,0.1c0,0,0.1,0,0.1,0.1c0.1,0,0.1,0,0.2,0.1c0,0,0,0,0.1,0c0,0,0.1,0,0.1,0c0,0,0,0,0.1,0c0.1,0,0.2,0,0.2,0
			c0.1,0,0.2,0,0.3,0c0,0,0.1,0,0.1,0c0.1,0,0.1,0,0.2-0.1c0,0,0.1,0,0.1,0c0.1,0,0.1-0.1,0.2-0.1c0,0,0,0,0.1,0
			c0.1-0.1,0.1-0.1,0.2-0.2c0,0,0,0,0,0c0,0,0,0,0,0c0-0.1,0.1-0.1,0.1-0.2c0,0,0-0.1,0.1-0.1c0,0,0.1-0.1,0.1-0.2c0,0,0-0.1,0-0.1
			c0,0,0,0,0-0.1l4.4-15.8l18.1,16.5c0,0,0,0,0,0c0,0,0.1,0.1,0.1,0.1c0,0,0.1,0.1,0.1,0.1c0,0,0.1,0,0.1,0.1c0.1,0,0.1,0,0.2,0.1
			c0,0,0,0,0.1,0c0,0,0.1,0,0.1,0c0,0,0,0,0.1,0c0.1,0,0.2,0,0.2,0c0.1,0,0.2,0,0.3,0c0,0,0.1,0,0.1,0c0.1,0,0.1,0,0.2-0.1
			c0,0,0.1,0,0.1,0c0.1,0,0.1-0.1,0.2-0.1c0,0,0,0,0.1,0c0.1-0.1,0.1-0.1,0.2-0.2c0,0,0,0,0,0c0,0,0,0,0,0c0-0.1,0.1-0.1,0.1-0.2
			c0,0,0-0.1,0.1-0.1c0,0,0.1-0.1,0.1-0.2c0,0,0-0.1,0-0.1c0,0,0,0,0-0.1l4.2-15.7l18.2,16.5c0,0,0,0,0,0c0,0,0.1,0.1,0.1,0.1
			c0,0,0.1,0.1,0.1,0.1c0,0,0.1,0,0.1,0.1c0.1,0,0.1,0,0.2,0.1c0,0,0,0,0.1,0c0,0,0,0,0.1,0c0,0,0,0,0.1,0c0.1,0,0.2,0,0.2,0
			c0.1,0,0.2,0,0.3,0c0,0,0.1,0,0.1,0c0.1,0,0.1,0,0.2-0.1c0,0,0.1,0,0.1,0c0.1,0,0.1-0.1,0.2-0.1c0,0,0,0,0.1,0
			c0.1-0.1,0.1-0.1,0.2-0.2c0,0,0,0,0,0c0,0,0,0,0,0c0-0.1,0.1-0.1,0.1-0.2c0,0,0-0.1,0.1-0.1c0,0,0-0.1,0.1-0.2c0,0,0-0.1,0-0.1
			c0,0,0,0,0-0.1l4.1-15.7l18.4,16.5c0,0,0,0,0.1,0c0,0,0.1,0.1,0.1,0.1c0,0,0.1,0.1,0.1,0.1c0,0,0.1,0,0.1,0.1c0.1,0,0.1,0,0.2,0.1
			c0,0,0,0,0.1,0c0,0,0,0,0,0c0.1,0,0.2,0,0.3,0c0,0,0,0,0,0c0.1,0,0.2,0,0.3,0c0,0,0.1,0,0.1,0c0.1,0,0.1,0,0.2-0.1
			c0,0,0.1,0,0.1,0c0.1,0,0.1-0.1,0.2-0.1c0,0,0,0,0.1,0c0.1-0.1,0.2-0.1,0.2-0.2c0,0,0,0,0,0c0,0,0,0,0,0c0-0.1,0.1-0.1,0.1-0.2
			c0,0,0-0.1,0-0.1c0-0.1,0.1-0.1,0.1-0.2c0,0,0-0.1,0-0.1c0,0,0,0,0-0.1l3.9-15.7l18.5,16.5c0,0,0,0,0.1,0c0,0,0.1,0.1,0.1,0.1
			c0,0,0.1,0.1,0.1,0.1c0,0,0.1,0,0.1,0.1c0.1,0,0.1,0,0.2,0.1c0,0,0,0,0.1,0c0,0,0,0,0,0c0.1,0,0.2,0,0.3,0c0,0,0,0,0,0
			c0.1,0,0.2,0,0.3,0c0,0,0.1,0,0.1,0c0.1,0,0.1,0,0.2-0.1c0,0,0.1,0,0.1,0c0.1,0,0.1-0.1,0.2-0.1c0,0,0,0,0.1,0
			c0.1-0.1,0.2-0.1,0.2-0.2c0,0,0,0,0,0c0,0,0,0,0,0c0-0.1,0.1-0.1,0.1-0.2c0,0,0-0.1,0-0.1c0,0,0-0.1,0.1-0.2c0,0,0-0.1,0-0.1
			c0,0,0,0,0-0.1l3.8-15.7l18.7,16.5c0,0,0,0,0.1,0c0,0,0.1,0.1,0.1,0.1c0,0,0.1,0.1,0.1,0.1c0,0,0.1,0,0.1,0.1c0.1,0,0.1,0,0.2,0.1
			c0,0,0,0,0.1,0c0,0,0,0,0,0c0.1,0,0.2,0,0.3,0c0,0,0,0,0,0c0.1,0,0.2,0,0.3,0c0,0,0.1,0,0.1,0c0.1,0,0.1,0,0.2-0.1
			c0,0,0.1,0,0.1,0c0.1,0,0.1-0.1,0.2-0.1c0,0,0,0,0.1,0c0.1-0.1,0.2-0.1,0.2-0.2c0,0,0,0,0,0c0,0,0,0,0,0c0-0.1,0.1-0.1,0.1-0.2
			c0,0,0-0.1,0-0.1c0,0,0-0.1,0.1-0.2c0,0,0-0.1,0-0.1c0,0,0,0,0-0.1l3.6-15.7l18.9,16.5c0,0,0,0,0.1,0c0,0,0.1,0.1,0.1,0.1
			c0,0,0.1,0.1,0.1,0.1c0,0,0.1,0,0.1,0.1c0.1,0,0.1,0,0.2,0.1c0,0,0,0,0.1,0c0,0,0,0,0,0c0.1,0,0.2,0,0.3,0c0,0,0,0,0,0
			c0.1,0,0.2,0,0.3,0c0,0,0.1,0,0.1,0c0.1,0,0.1,0,0.2-0.1c0,0,0.1,0,0.1,0c0.1,0,0.1-0.1,0.2-0.1c0,0,0.1,0,0.1-0.1
			c0.1-0.1,0.2-0.1,0.2-0.2c0,0,0,0,0,0c0,0,0,0,0,0c0-0.1,0.1-0.1,0.1-0.2c0,0,0-0.1,0-0.1c0-0.1,0-0.1,0.1-0.2c0,0,0-0.1,0-0.1
			c0,0,0,0,0-0.1l3.5-15.7l19,16.5c0,0,0,0,0.1,0c0,0,0.1,0.1,0.1,0.1c0,0,0.1,0.1,0.1,0.1c0,0,0.1,0,0.1,0.1c0.1,0,0.1,0,0.2,0.1
			c0,0,0,0,0.1,0c0,0,0,0,0,0c0.1,0,0.2,0,0.3,0c0,0,0,0,0,0c0.1,0,0.2,0,0.3,0c0,0,0.1,0,0.1,0c0.1,0,0.1,0,0.2-0.1
			c0,0,0.1,0,0.1,0c0.1,0,0.1-0.1,0.2-0.1c0,0,0.1,0,0.1-0.1c0.1-0.1,0.2-0.1,0.2-0.2c0,0,0,0,0,0c0,0,0,0,0,0
			c0-0.1,0.1-0.1,0.1-0.2c0,0,0-0.1,0-0.1c0-0.1,0-0.1,0.1-0.2c0,0,0-0.1,0-0.1c0,0,0-0.1,0-0.1l3.3-15.6l19.2,16.5c0,0,0,0,0.1,0
			c0,0,0.1,0.1,0.1,0.1c0,0,0.1,0.1,0.1,0.1c0,0,0.1,0,0.1,0c0.1,0,0.1,0,0.2,0.1c0,0,0,0,0.1,0c0,0,0,0,0,0c0.1,0,0.2,0,0.3,0
			c0,0,0,0,0,0c0.1,0,0.2,0,0.3,0c0,0,0.1,0,0.1,0c0.1,0,0.1,0,0.2-0.1c0,0,0.1,0,0.1,0c0.1,0,0.1-0.1,0.2-0.1c0,0,0.1,0,0.1-0.1
			c0.1-0.1,0.2-0.1,0.2-0.2c0,0,0,0,0,0c0,0,0,0,0,0c0-0.1,0.1-0.1,0.1-0.2c0,0,0-0.1,0-0.1c0-0.1,0-0.1,0.1-0.2c0,0,0-0.1,0-0.1
			c0,0,0-0.1,0-0.1l3.2-15.6l19.3,16.5c0,0,0,0,0.1,0.1c0,0,0.1,0.1,0.1,0.1c0,0,0.1,0.1,0.1,0.1c0,0,0,0,0.1,0c0,0,0,0,0,0
			c0.1,0,0.1,0,0.2,0.1c0,0,0.1,0,0.1,0c0,0,0,0,0,0c0,0,0,0,0,0c0.1,0,0.2,0,0.3,0c0,0,0,0,0,0c0,0,0,0,0,0h24.9
			c0.6,0,1.2-0.4,1.4-1C821.3,329.2,821.1,328.6,820.6,328.1z M796.5,327.8l2.7-13.8l16.3,13.8H796.5z"/>
		<rect x="345.6" y="326.6" class="st2" width="173" height="4.2"/>
		<g>
			<g>
				<path class="st2" d="M489.3,326.6H345.6v-16.2h143.8V326.6z M347.3,324.8h140.3V312H347.3V324.8z"/>
			</g>
			<g>
				<rect x="369.3" y="311.2" class="st2" width="1.7" height="14.5"/>
			</g>
			<g>
				<rect x="392.9" y="311.2" class="st2" width="1.7" height="14.5"/>
			</g>
			<g>
				<rect x="416.6" y="311.2" class="st2" width="1.7" height="14.5"/>
			</g>
			<g>
				<rect x="440.3" y="311.2" class="st2" width="1.7" height="14.5"/>
			</g>
			<g>
				<rect x="463.9" y="311.2" class="st2" width="1.7" height="14.5"/>
			</g>
		</g>
		<path class="st2" d="M494.6,327.8l3.1-40.7l7.5,16.5l1.5,22.8c0.1,0.8,0.7,1.4,1.5,1.4h8.9c0.4,0,0.9-0.2,1.1-0.5
			c0.3-0.3,0.4-0.8,0.3-1.2l-15.9-104.7c0,0,0-0.1,0-0.1c0-0.1,0-0.1,0-0.2c0-0.1,0-0.1-0.1-0.1c0,0,0-0.1-0.1-0.1
			c0-0.1-0.1-0.1-0.1-0.2c0,0,0-0.1-0.1-0.1c0-0.1-0.1-0.1-0.1-0.1c0,0,0,0-0.1-0.1c-0.1,0-0.1-0.1-0.2-0.1c0,0,0,0,0,0
			c-0.2-0.1-0.4-0.1-0.6-0.2c0,0,0,0,0,0c0,0-0.1,0-0.1,0c-0.1,0-0.1,0-0.2,0c0,0,0,0,0,0c0,0-0.1,0-0.1,0c-0.1,0-0.1,0-0.2,0
			c0,0,0,0-0.1,0c-0.1,0-0.1,0.1-0.2,0.1c0,0,0,0-0.1,0c-0.1,0-0.1,0.1-0.2,0.1c0,0,0,0-0.1,0.1c0,0-0.1,0.1-0.1,0.1
			c0,0,0,0.1-0.1,0.1c0,0-0.1,0.1-0.1,0.1c0,0,0,0.1-0.1,0.1c0,0.1,0,0.1-0.1,0.2c0,0,0,0.1,0,0.1c0,0.1,0,0.1,0,0.2c0,0,0,0,0,0
			l-8,106.3H494.6z M509.6,324.8l-0.9-13.4l6.1,13.4H509.6z M513.9,315.7l-5.9-12.9l-1.4-20.2h2.2L513.9,315.7z M508.4,279.6h-1.9
			l-1.5-22.5L508.4,279.6z M504.6,295l-5.6-12.4h4.8L504.6,295z M501,242.7l2.5,36.9h-5.3L501,242.7z"/>
		<path class="st2" d="M799,309.7H525.2l-15.6,21.1h304.9L799,309.7z M550.7,313.8l9,14h-19.2L550.7,313.8z M537.6,326.6l-8.9-14
			h19.1L537.6,326.6z M553.5,312.7h19.1l-10,14L553.5,312.7z M575.4,313.8l9.2,14h-19.2L575.4,313.8z M578.3,312.7h19.1l-9.9,14
			L578.3,312.7z M600.2,313.8l9.3,14h-19.2L600.2,313.8z M603,312.7h19.1l-9.8,14L603,312.7z M625,313.8l9.4,14h-19.2L625,313.8z
			 M627.8,312.7h19.1l-9.7,14L627.8,312.7z M649.7,313.8l9.5,14h-19.2L649.7,313.8z M652.6,312.7h19.1l-9.5,14L652.6,312.7z
			 M674.5,313.8l9.7,14H665L674.5,313.8z M677.3,312.7h19.1l-9.4,14L677.3,312.7z M699.3,313.8l9.8,14h-19.2L699.3,313.8z
			 M702.1,312.7h19.1l-9.3,14L702.1,312.7z M724,313.8l9.9,14h-19.2L724,313.8z M726.9,312.7h19l-9.3,13.7L726.9,312.7z
			 M748.8,313.8l10.1,14h-19.6L748.8,313.8z M751.7,312.7h19.1l-9,14L751.7,312.7z M773.6,313.8l10.2,14h-19.2L773.6,313.8z
			 M776.4,312.7h19.1l-8.9,14L776.4,312.7z M798.3,313.8l10.3,14h-19.2L798.3,313.8z M525.9,313.8l8.9,14h-19.2L525.9,313.8z"/>
		<path class="st2" d="M482.5,326.6v652.8h27.1V326.6H482.5z M485.5,378.1l19.2,21.2h-19.2V378.1z M485.5,402.3h19.2l-19.2,21.2
			V402.3z M485.5,431.3l19.2,21.2h-19.2V431.3z M485.5,455.5h19.2l-19.2,21.2V455.5z M485.5,484.4l19.2,21.2h-19.2V484.4z
			 M485.5,508.6h19.2l-19.2,21.2V508.6z M485.5,537.6l19.2,21.2h-19.2V537.6z M485.5,561.8h19.2L485.5,583V561.8z M485.5,590.8
			l19.2,21.2h-19.2V590.8z M485.5,615h19.2l-19.2,21.2V615z M485.5,644l19.2,21.2h-19.2V644z M485.5,668.2h19.2l-19.2,21.2V668.2z
			 M485.5,697.1l19.2,21.2h-19.2V697.1z M485.5,721.3h19.2l-19.2,21.2V721.3z M485.5,750.3l19.2,21.2h-19.2V750.3z M485.5,774.5
			h19.2l-19.2,21.2V774.5z M485.5,803.5l19.2,21.2h-19.2V803.5z M485.5,827.7h19.2l-19.2,21.2V827.7z M485.5,856.7l19.2,21.2h-19.2
			V856.7z M485.5,880.9h19.2l-19.2,21.2V880.9z M485.5,909.9l19.2,21.2h-19.2V909.9z M485.5,934.1h19.2l-19.2,21.2V934.1z
			 M506.7,936.4v21.2h-19.2L506.7,936.4z M487.4,907.5h19.2v21.2L487.4,907.5z M506.7,904.5h-19.2l19.2-21.2V904.5z M487.4,854.3
			h19.2v21.2L487.4,854.3z M506.7,851.3h-19.2l19.2-21.2V851.3z M487.4,801.1h19.2v21.2L487.4,801.1z M506.7,798.1h-19.2l19.2-21.2
			V798.1z M487.4,747.9h19.2v21.2L487.4,747.9z M506.7,744.9h-19.2l19.2-21.2V744.9z M487.4,694.8h19.2V716L487.4,694.8z
			 M506.7,691.8h-19.2l19.2-21.2V691.8z M487.4,641.6h19.2v21.2L487.4,641.6z M506.7,638.6h-19.2l19.2-21.2V638.6z M487.4,588.4
			h19.2v21.2L487.4,588.4z M506.7,585.4h-19.2l19.2-21.2V585.4z M487.4,535.2h19.2v21.2L487.4,535.2z M506.7,532.2h-19.2l19.2-21.2
			V532.2z M487.4,482h19.2v21.2L487.4,482z M506.7,479h-19.2l19.2-21.2V479z M487.4,428.9h19.2v21.2L487.4,428.9z M506.7,425.9
			h-19.2l19.2-21.2V425.9z M487.4,375.7h19.2v21.2L487.4,375.7z M506.7,330.8v41.9h-21.1v-41.9H506.7z M485.5,976.4v-15.7h21.1v15.7
			H485.5z"/>
		<path class="st2" d="M502.6,221.5c-0.1-0.8-0.7-1.4-1.4-1.4c-0.8,0-1.4,0.5-1.6,1.3L482.5,326c-0.1,0.4,0.1,0.9,0.3,1.2
			c0.3,0.3,0.7,0.5,1.1,0.5h24.1c0.4,0,0.8-0.2,1.1-0.5c0.3-0.3,0.4-0.7,0.4-1.1L502.6,221.5z M506,316.1l-12.4-33.4h10.2L506,316.1
			z M500.5,234.7l3,44.9h-10.3L500.5,234.7z M492,287l14,37.8h-20.2L492,287z"/>
		<g>
			
				<rect x="527.5" y="330.8" transform="matrix(-1 -1.224647e-16 1.224647e-16 -1 1063.8408 691.4884)" class="st2" width="8.9" height="29.9"/>
			<polygon class="st2" points="527.5,360.7 536.4,360.7 531.9,375.7 523,375.7 			"/>
			
				<rect x="527.5" y="334.4" transform="matrix(-1 -1.224647e-16 1.224647e-16 -1 1063.8408 695.0818)" class="st2" width="8.9" height="26.3"/>
			<polygon class="st2" points="533,372.1 536.4,360.7 527.5,360.7 524.1,372.1 			"/>
			<polygon class="st2" points="523,375.7 494.4,375.7 494.4,330.8 527.5,330.8 527.5,360.7 			"/>
			<polygon class="st2" points="524.1,372.1 527.5,360.7 527.5,334.4 509.7,334.4 509.7,372.1 			"/>
		</g>
		<g>
			
				<rect x="520.4" y="960.6" transform="matrix(-1 -1.224647e-16 1.224647e-16 -1 1063.9257 1940.0273)" class="st2" width="23.2" height="18.7"/>
			<rect x="457.5" y="960.6" class="st2" width="62.8" height="18.7"/>
		</g>
		<g>
			
				<rect x="515.8" y="493.8" transform="matrix(-1 -1.224647e-16 1.224647e-16 -1 1049.3607 1000.9803)" class="st2" width="17.8" height="13.3"/>
			<rect x="467.5" y="493.8" class="st2" width="48.3" height="13.3"/>
		</g>
		<g>
			<rect x="467.5" y="505.6" class="st2" width="48.3" height="3"/>
		</g>
		<g>
			<rect x="515.8" y="505.6" class="st2" width="17.8" height="3"/>
		</g>
		<g>
			
				<rect x="515.8" y="387.5" transform="matrix(-1 -1.224647e-16 1.224647e-16 -1 1049.3607 788.2689)" class="st2" width="17.8" height="13.3"/>
			<rect x="467.5" y="387.5" class="st2" width="48.3" height="13.3"/>
		</g>
		<g>
			<rect x="467.5" y="399.3" class="st2" width="48.3" height="3"/>
		</g>
		<g>
			<rect x="515.8" y="399.3" class="st2" width="17.8" height="3"/>
		</g>
		<g>
			<rect x="736.3" y="329.3" class="st2" width="24.9" height="8.1"/>
		</g>
	</g>
	<defs>
		<filter id="Adobe_OpacityMaskFilter" filterUnits="userSpaceOnUse" x="935.6" y="700.2" width="417.6" height="417.6">
			<feFlood  style="flood-color:white;flood-opacity:1" result="back"/>
			<feBlend  in="SourceGraphic" in2="back" mode="normal"/>
		</filter>
	</defs>
	<mask maskUnits="userSpaceOnUse" x="935.6" y="700.2" width="417.6" height="417.6" id="SVGID_1_">
		<g class="st12">
			<defs>
				
					<filter id="Adobe_OpacityMaskFilter_00000114773083858138768680000016954168275676473515_" filterUnits="userSpaceOnUse" x="935.6" y="700.2" width="417.6" height="417.6">
					<feFlood  style="flood-color:white;flood-opacity:1" result="back"/>
					<feBlend  in="SourceGraphic" in2="back" mode="normal"/>
				</filter>
			</defs>
			<mask maskUnits="userSpaceOnUse" x="935.6" y="700.2" width="417.6" height="417.6" id="SVGID_1_">
				<g style="filter:url(#Adobe_OpacityMaskFilter_00000114773083858138768680000016954168275676473515_);">
				</g>
			</mask>
			
				<radialGradient id="SVGID_00000044886959778462173850000007813732853040732038_" cx="1233.2406" cy="1011.7947" r="271.4776" gradientTransform="matrix(0.7692 0 0 0.7692 195.8102 130.7618)" gradientUnits="userSpaceOnUse">
				<stop  offset="0" style="stop-color:#FFFFFF"/>
				<stop  offset="1" style="stop-color:#000000"/>
			</radialGradient>
			
				<circle style="mask:url(#SVGID_1_);fill:url(#SVGID_00000044886959778462173850000007813732853040732038_);" cx="1144.4" cy="909" r="208.8"/>
		</g>
	</mask>
	
		<radialGradient id="SVGID_00000114791200124026669730000007361093905593058213_" cx="1233.2406" cy="1011.7947" r="271.4776" gradientTransform="matrix(0.7692 0 0 0.7692 195.8102 130.7618)" gradientUnits="userSpaceOnUse">
		<stop  offset="0" style="stop-color:#C1DFFA"/>
		<stop  offset="1" style="stop-color:#4878BF"/>
	</radialGradient>
	<circle style="fill:url(#SVGID_00000114791200124026669730000007361093905593058213_);" cx="1144.4" cy="909" r="208.8"/>
	<g>
		<path class="st16" d="M927.2,941.1c63.5-37.8,164.6-19.1,207.2,57.6H730.9c21.6-22.1,54.7-37.5,87.5-33.1
			C849.5,969.7,874.8,972.2,927.2,941.1z"/>
		<path class="st17" d="M938.9,949.7c82-43.3,155.3-16.2,195.5,49H776.9c-11.1,0-18.4-10.7-7.6-18.8c13.6-10.2,29.9-14.4,53.1-11.3
			C860.3,973.7,889.3,975.9,938.9,949.7z"/>
	</g>
	
		<rect x="582.9" y="796.8" transform="matrix(-1 -1.224647e-16 1.224647e-16 -1 1232.8369 1776.1534)" class="st2" width="67" height="182.6"/>
	<g>
		<rect x="359.3" y="854.9" class="st3" width="171.7" height="124.4"/>
		
			<rect x="531" y="854.9" transform="matrix(-1 -1.224647e-16 1.224647e-16 -1 1127.3229 1834.3077)" class="st4" width="65.3" height="124.4"/>
		<rect x="365.6" y="862.8" class="st4" width="159.1" height="3.6"/>
		<g>
			<rect x="364.3" y="862.8" class="st4" width="2.4" height="108.8"/>
			<rect x="373.3" y="862.8" class="st4" width="2.4" height="108.8"/>
			<rect x="382.2" y="862.8" class="st4" width="2.4" height="108.8"/>
			<rect x="391.2" y="862.8" class="st4" width="2.4" height="108.8"/>
			<rect x="400.1" y="862.8" class="st4" width="2.4" height="108.8"/>
			<rect x="409.1" y="862.8" class="st4" width="2.4" height="108.8"/>
			<rect x="418" y="862.8" class="st4" width="2.4" height="108.8"/>
			<rect x="427" y="862.8" class="st4" width="2.4" height="108.8"/>
			<rect x="435.9" y="862.8" class="st4" width="2.4" height="108.8"/>
			<rect x="444.9" y="862.8" class="st4" width="2.4" height="108.8"/>
			<rect x="453.8" y="862.8" class="st4" width="2.4" height="108.8"/>
			<rect x="462.7" y="862.8" class="st4" width="2.4" height="108.8"/>
			<rect x="471.7" y="862.8" class="st4" width="2.4" height="108.8"/>
			<rect x="480.6" y="862.8" class="st4" width="2.4" height="108.8"/>
			<rect x="489.6" y="862.8" class="st4" width="2.4" height="108.8"/>
			<rect x="498.5" y="862.8" class="st4" width="2.4" height="108.8"/>
			<rect x="507.5" y="862.8" class="st4" width="2.4" height="108.8"/>
			<rect x="516.4" y="862.8" class="st4" width="2.4" height="108.8"/>
		</g>
		<rect x="562.5" y="862.8" class="st18" width="2.4" height="108.8"/>
		<rect x="531" y="862.8" class="st18" width="65.3" height="3.6"/>
	</g>
	<path class="st16" d="M1700.8,1010.8c0,0-329.9,0-452.3,0c-121.1,0-119.6,39.6-252.6,39.6c-86.2,0-284.6,0-399.6,0
		c-95.4,0-86.5,21.6-179.7,21.6c-118.1,0-416.6,0-416.6,0v-73.3h1700.8V1010.8z"/>
	<path class="st17" d="M3.9,1030.9c0,0,553.1,0,754.7,0c89.2,0,97.1-8.7,193.4-8.7c41.7,0,82.5-3.9,111.3-11.4
		c-97.8,0-1063.3,0-1063.3,0L3.9,1030.9z"/>
	<g>
		<g>
			<path class="st19" d="M183.5,974.4c-1,7.9-20.8,9.3-30.3,9.3c-9.5,0-19.7-28.3-22.7-42.4c-2.9-13.6,18.3-16.1,27.7-14.6
				C169,928.5,185.3,960.7,183.5,974.4z"/>
		</g>
		<g>
			<path class="st4" d="M164,910.8c4.2,12.8-4.1,19.5-13.7,22.6c-10.9,3.5-22.8,1.8-29.1-8.7c-24.9-41.3-48.1-88.8-39.4-138.3
				c9.6-54.3,36.4-120.3,52.4-147.5c19.6-33.3,46.4-60.7,63-56.9c23.8,5.5,30,66.4,7.6,116.7C176.4,763.1,126.4,797.2,164,910.8z"/>
		</g>
		<g>
			<polygon class="st20" points="183,956.3 162.8,809 156.7,809 137.4,826.6 157.6,974 163.7,974 			"/>
		</g>
		<g>
			<polygon class="st20" points="183,956.3 163.7,974 143.5,826.6 162.8,809 			"/>
		</g>
		<g>
			<path class="st19" d="M184,972.7c-0.6,2.4-1.5,4.9-4.7,4.9c-4.9,0-2-10.9-3.8-15.4c-2-5.1-5.5-9.6-5.6-11.5
				c-0.3-3.5,0.7-12.3,3.9-12.3c2.7,0,8.2,7.9,9.9,15.1C185.1,959.8,184.5,970.5,184,972.7z"/>
		</g>
		<g>
			<path class="st20" d="M407.7,1007.8c-2.9,34.3-10.6,82.1-17,126.1h-87.3c-7.3-51.3-16.5-110.2-16.8-153.9
				c-0.1-14-0.4-45.7,1.4-69.1h122.1C410.1,910.8,411.7,960,407.7,1007.8z"/>
		</g>
		<g>
			<path class="st20" d="M308,989.3c-2.2,59.5-11.1,105.1-20.5,144.6h-86.8c2-46.7-7.9-99.2-13.9-143.3c-1.3-9.4-2-19.5-1.9-29.5h0
				l-1.3-50.3H292C304.2,931.3,309.2,959.3,308,989.3z"/>
		</g>
		<g>
			<path class="st19" d="M342.9,489.2c0,6.4-0.6,27.7,0.2,39.6c0.4,5.2-3.2,9.9-7.2,11.3c-2.1,0.7-7.2,2.2-9.8,4.3
				c-6.9,5.8-11.2,21.3-19.6,26.4c-8,5-23.1,8-34-3.6c-13.1-13.9-26.4-59.9-28.8-72c-6.1-29.6-5.6-65.5,24.5-74.9
				c32.3-10.1,53.9,15.3,64.9,35.4c3.2,5.8,3.7,12.7,5.3,19.2C339.8,480.6,342.9,485.7,342.9,489.2z"/>
		</g>
		<g>
			<path class="st20" d="M316.6,498.2c0,17.6-13,33.5-38.7,35.1c-14.7,0.9-26.2-5-31.4-15c-5.4-10.5-15.9-28.9-10-41.7
				c7.4-16,59.9-19.7,73.4-30.5c4.5-3.6,10.1-5.6,15.6,0.9c7.4,9,8.5,16.4,6.5,24.6c-1.8,7.7,1.9,11.4,1.4,16.1
				c-0.4,3.7-2.7,6.1-5.3,5.5c-2.1-12.7-5.1-14.7-7.7-12.1C317,484.7,316.6,493.7,316.6,498.2z"/>
		</g>
		<g>
			<path class="st19" d="M450,560.8c0.7,7.2-13.7,12.8-25.4,10.8c-8.7-1.5-18.7-19.1-24.4-21.6c-6.9-3.1-11.2,2.4-17.4,1.3
				c-2.2-0.4-5.3-4-7-6.1c-1.1-1.4-0.7-7.5-0.1-10.3c0.7-3.7,4.9-4.5,4.1-5.5c-0.6-0.7-5.5,2.2-7.6,0.6c-4.6-3.4,2-10.6,5.9-12
				c10.8-3.8,30.5-3.6,28.9-7.5c-1.7-4.1-22.5-5.1-27-5.6c-5.6-0.7-8.2-5.2-2.4-7.1c4-1.3,22.2-4.1,26.3-1.5
				c7.4,4.7,13.2,9.9,20.5,15.4c4.2,3.1,7.5,16.8,13.3,29.4C442.7,552,449.6,557.4,450,560.8z"/>
		</g>
		<g>
			<path class="st20" d="M411.2,567.1c-6.5,0.2-17.6-1.7-23.4-3.8c-2.4-0.9-3.8-3.6-4.6-8.1c-2.6-14.8-6-30.2-6.5-40.8
				c-0.3-5.9,8.2-9.8,13.7-10.3c6.2-0.7,14.5,1.7,17.8,3c2.1,0.9,3.6,1.3,4.4,5.6c2,12,5.9,36.8,6.8,45.5
				C419.8,562.3,412.9,567.1,411.2,567.1z"/>
		</g>
		<g>
			<path class="st20" d="M388,509.1c-1,0-1.8-0.7-1.9-1.7l-12.3-98.2c-0.1-1.1,0.6-2,1.7-2.2c1.1-0.1,2,0.6,2.2,1.7l12.3,98.2
				c0.1,1.1-0.6,2-1.7,2.2C388.1,509.1,388,509.1,388,509.1z"/>
		</g>
		<g>
			<path class="st19" d="M436.4,541c2.1,6.3,1,25.2-13.9,18c-9.4-4.6-10.2-13.6-10.9-18.9c-0.5-3.6-1.4-7.9-5.7-10.6
				c-3.5-2.3-7.5-5.1-9.6-8.4c-2.7-4.3-4-9-1.6-11.1c2.7-2.4,12.5,2.7,15.5,5.6c5.5,5.3,8.2,8.7,14.7,12.2
				C430.7,530.9,434.7,535.9,436.4,541z"/>
		</g>
		<g>
			<path class="st4" d="M546.1,715.7c20.7,43.1-15.5,78.8-46.5,46.7c-26.5-27.4-68.9-146-78.7-175.4c-5.7-16.9,6.6-23.5,13.4-27
				c5-2.6,19-6.1,29,8.4C482.5,596.2,522.1,665.5,546.1,715.7z"/>
		</g>
		<g>
			<path class="st4" d="M330.9,553.9c3.8,6,6.8,13.8-1,18.3c-11.7,6.6-85.4,8.4-95.8,5.7c-8.9-2.3-4.9-14.4-1.6-20.4
				c5.4-10,26.3-20,51.9-20C309.9,537.5,325.3,545.1,330.9,553.9z"/>
		</g>
		<g>
			<path class="st4" d="M542.4,720.1c14.1,14.7,11.8,31.3,5.6,41.6c-7,11.6-22.9,17.8-38.8,11c-32.6-13.9-72.2-41.3-101.4-57.9
				c-17.9-10.2-17.1,28-34.2,27.6c-18.3-0.5-16.4-165.1,17.1-160.8c33.8,4.4,61,60.7,108.3,106.4C510,698.6,533.2,710.4,542.4,720.1
				z"/>
		</g>
		<g>
			<path class="st10" d="M413,916.1c-55.8,0-176,0-231.9,0c-3.1,0-5.7-2.5-5.8-5.6c-1.4-30.3,2.3-85.6,0.1-132.8
				c-3-64.8-24.3-130.9-21.5-172.2c1-14.3,6.9-20.9,22.3-25.1c22.6-6.3,74.1-19.1,109.2-20.4c28.7-1,76.4,7.1,96.1,14.1
				c23.3,8.4,25.4,14,25.1,31.2c-0.5,27.9-17.1,85.4-12.4,112.8c11.8,68,24.7,146.5,25.2,191.1C419.4,912.4,416.1,916.1,413,916.1z"
				/>
		</g>
		<g>
			<path class="st0" d="M407.7,800.1H176c-0.1-7.6-0.3-15-0.6-22.3c0-0.8-0.1-1.6-0.1-2.4h228.6
				C405.2,783.6,406.5,791.9,407.7,800.1z"/>
		</g>
		<g>
			<path class="st0" d="M416.6,867.6H175.3c0.2-7.9,0.3-16.2,0.5-24.8h238C414.9,851.4,415.8,859.7,416.6,867.6z"/>
		</g>
		<g>
			<path class="st21" d="M301.7,498.7c-0.3,3.4-2,6.7-4.3,8.5c-3.8,2.8-16.3,9.2-27.8,10.6c-7.6,0.9-22.3,1.1-27.1-1.4
				c-1.5-0.8-2.7-3-3.5-5c-0.9-2.3-1.1-4.6,0.3-4.2c19.4,5,39.5-2,46.3-5.4c2.5-1.3,5.5-2.4,3.6-12.4c-1.2-6.3,2-20,10.3-24.1
				c7.5-3.7,9.4-4,11.2-3.1c5.9,2.8-1.6,20.9-5.1,25.7C303.7,490.5,302.1,494.1,301.7,498.7z"/>
		</g>
		<g>
			<path class="st20" d="M388,511c-1.9,0-3.6-1.4-3.8-3.4l-4.2-33.4c-0.3-2.1,1.2-4.1,3.4-4.3c2.1-0.3,4.1,1.2,4.3,3.4l4.2,33.4
				c0.3,2.1-1.2,4.1-3.4,4.3C388.3,511,388.1,511,388,511z"/>
		</g>
		<g>
			<path class="st20" d="M376.3,417.2c-1.4,0-2.7-1.1-2.9-2.5l-0.7-5.3c-0.2-1.6,0.9-3,2.5-3.2c1.6-0.2,3,0.9,3.2,2.5l0.7,5.3
				c0.2,1.6-0.9,3-2.5,3.2C376.6,417.2,376.4,417.2,376.3,417.2z"/>
		</g>
		<g>
			<path class="st22" d="M317.9,498.4c0.8,6.6,4.8,12.4,8.9,13.6c1.2,0.4,2.8,2-0.2,2c-4.8,0-10.5-5.9-12.2-15.4
				c-2.2-11.6,2.4-17,6-18.4c3.2-1.3,4.3,0,2.6,1C318.2,484.1,316.8,489.1,317.9,498.4z"/>
		</g>
		<g>
			<path class="st22" d="M323.7,499c0.6,2.7,4.4,3.5,2.5,4.3c-1.2,0.5-4-0.8-4.3-4c-0.3-2.8,0.5-5.2,1.3-5.3
				C324.1,494,323.2,496.4,323.7,499z"/>
		</g>
		<g>
			<path class="st22" d="M323.1,488.1c-0.3,1.3-0.4,2.3-1.1,2.1c-0.7-0.2-1.1-1.8-0.7-3c0.3-1.3,1.1-2.3,1.8-2.1
				C323.7,485.2,323.5,486.8,323.1,488.1z"/>
		</g>
		<g>
			<path class="st0" d="M350.5,432.2c-3.8-0.2-10-0.8-12.6-1c-2.8-0.2-3.5-0.5-4.7-2.1c-33.5-45.1-77.6-37.5-99.8-20.5
				c-27.9,21.5-28.6,58.5-17.6,82.6c0,0,0,0,0,0c1.1,2.4,2.2,4.7,2.6,5.4c2.7,4.1,17.6,10.9,39.8,8.8c22.3-2.1,46.6-15.8,46.6-20.8
				c0-0.7,0.7-3.7,1.6-7.5c1-4.6,3.7-8.7,7.5-11.5c7.9-5.8,14.8-11.9,20.1-18c5.5-6.3,11.6-10.3,16.9-13.6
				C352,433.6,352.8,432.3,350.5,432.2z"/>
		</g>
	</g>
	<g>
		<path class="st9" d="M1422.6,241v738.4h12.1v-3.5h-8.6v-24.7l24.7,27.2v1.1h3.5V241H1422.6z M1426.1,358.9h8.6v-3.5h-8.6v-24.7
			l24,26.5l-24,26.5V358.9z M1426.1,420.9h8.6v-3.5h-8.6v-24.7l24,26.5l-24,26.5V420.9z M1426.1,483h8.6v-3.5h-8.6v-24.7l24,26.5
			l-24,26.5V483z M1426.1,545h8.6v-3.5h-8.6v-24.7l24,26.5l-24,26.5V545z M1426.1,607.1h8.6v-3.5h-8.6v-24.7l24,26.5l-24,26.5V607.1
			z M1426.1,669.1h8.6v-3.5h-8.6v-24.7l24,26.5l-24,26.5V669.1z M1426.1,731.2h8.6v-3.5h-8.6v-24.7l24,26.5l-24,26.5V731.2z
			 M1426.1,793.2h8.6v-3.5h-8.6V765l24,26.5l-24,26.5V793.2z M1426.1,855.3h8.6v-3.5h-8.6V827l24,26.5l-24,26.5V855.3z
			 M1426.1,917.3h8.6v-3.5h-8.6v-24.7l24,26.5l-24,26.5V917.3z M1450.8,973.1l-22.5-24.7h6.4v-3.5h-6.4l22.5-24.7V973.1z
			 M1450.8,911l-22.5-24.7h6.4v-3.5h-6.4l22.5-24.7V911z M1450.8,849l-22.5-24.7h6.4v-3.5h-6.4l22.5-24.7V849z M1450.8,787
			l-22.5-24.7h6.4v-3.5h-6.4l22.5-24.7V787z M1450.8,724.9l-22.5-24.7h6.4v-3.5h-6.4l22.5-24.7V724.9z M1450.8,662.9l-22.5-24.7h6.4
			v-3.5h-6.4l22.5-24.7V662.9z M1450.8,600.8l-22.5-24.7h6.4v-3.5h-6.4l22.5-24.7V600.8z M1450.8,538.8l-22.5-24.7h6.4v-3.5h-6.4
			l22.5-24.7V538.8z M1450.8,476.7l-22.5-24.7h6.4v-3.5h-6.4l22.5-24.7V476.7z M1450.8,414.7l-22.5-24.7h6.4v-3.5h-6.4l22.5-24.7
			V414.7z M1450.8,352.6l-22.5-24.7h6.4v-3.5h-6.4l22.5-24.7V352.6z M1450.8,294.4l-24.7,27.2v-24.7h8.6v-3.5h-8.6v-48.9h24.7V294.4
			z"/>
		<g>
			
				<rect x="1491" y="97.8" transform="matrix(0.7305 -0.6829 0.6829 0.7305 286.4313 1064.4286)" class="st18" width="1.5" height="143"/>
		</g>
		<g>
			
				<rect x="1200.6" y="168.6" transform="matrix(0.9112 -0.4119 0.4119 0.9112 48.0961 561.8081)" class="st18" width="253.7" height="1.5"/>
		</g>
		<rect x="1535.4" y="221.6" class="st4" width="10.4" height="42.3"/>
		<rect x="1545.8" y="221.6" class="st3" width="77.7" height="42.3"/>
		<g>
			<polygon class="st4" points="1198.9,331.8 1199.8,330.6 1153.9,298.7 1131.4,330.8 1132.6,331.6 1154.2,300.8 			"/>
		</g>
		<g>
			<polygon class="st18" points="1109.2,331.8 1153.9,300.8 1175.5,331.6 1176.7,330.8 1154.2,298.7 1153.6,299.2 1108.3,330.6 			
				"/>
		</g>
		<g>
			
				<rect x="1132" y="331.2" transform="matrix(-1 -1.224647e-16 1.224647e-16 -1 2331.3533 673.0506)" class="st23" width="67.3" height="10.6"/>
		</g>
		<g>
			<rect x="1108.8" y="331.2" class="st24" width="23.2" height="10.6"/>
		</g>
		<g>
			<g>
				<path class="st18" d="M1154.1,303.7c3.6,0,6.6-2.9,6.6-6.6h-3c0,2-1.6,3.6-3.6,3.6s-3.6-1.6-3.6-3.6c0-1.1,0.5-1.9,0.9-2.4
					c0.2-0.2,0.6-0.5,0.9-0.9c1.3-1.1,3.2-2.7,3.2-5.5h-3c0,1.4-0.8,2.2-2.1,3.2c-0.5,0.4-0.9,0.8-1.3,1.2c-1.1,1.3-1.6,2.8-1.6,4.3
					C1147.5,300.7,1150.4,303.7,1154.1,303.7z"/>
			</g>
		</g>
		<g>
			<polygon class="st4" points="1168.6,270.5 1168.6,279.9 1154.1,289.3 1139.5,279.9 1139.5,270.5 			"/>
		</g>
		<g>
			<rect x="1165.4" y="252.1" class="st18" width="1.5" height="18.4"/>
		</g>
		<g>
			<rect x="1141.2" y="252.1" class="st18" width="1.5" height="18.4"/>
		</g>
		<path class="st9" d="M1069.7,243.3c0.3,0.7,0.9,1.1,1.6,1.1h29.1c0,0,0,0,0,0c0,0,0,0,0,0c0.1,0,0.2,0,0.3,0c0,0,0,0,0,0
			c0,0,0,0,0,0c0,0,0.1,0,0.1,0c0.1,0,0.1,0,0.2-0.1c0,0,0,0,0,0c0,0,0.1,0,0.1,0c0.1,0,0.1-0.1,0.2-0.1c0,0,0.1-0.1,0.1-0.1
			c0,0,0.1,0,0.1-0.1l22.5-19.2l3.7,18.2c0,0,0,0.1,0,0.1c0,0,0,0.1,0,0.1c0,0.1,0,0.1,0.1,0.2c0,0,0,0.1,0.1,0.1
			c0,0.1,0.1,0.2,0.2,0.2c0,0,0,0,0,0c0,0,0,0,0,0c0.1,0.1,0.2,0.2,0.3,0.2c0,0,0.1,0,0.1,0.1c0.1,0,0.1,0.1,0.2,0.1
			c0,0,0.1,0,0.1,0c0.1,0,0.2,0.1,0.2,0.1c0,0,0.1,0,0.1,0c0.1,0,0.2,0,0.3,0c0,0,0,0,0,0c0.1,0,0.2,0,0.3,0c0,0,0,0,0,0
			c0,0,0,0,0.1,0c0.1,0,0.2,0,0.2-0.1c0,0,0.1,0,0.1-0.1c0.1,0,0.1-0.1,0.2-0.1c0,0,0.1-0.1,0.1-0.1c0,0,0.1,0,0.1-0.1l22.3-19.2
			l3.9,18.2c0,0,0,0.1,0,0.1c0,0,0,0.1,0,0.1c0,0.1,0.1,0.1,0.1,0.2c0,0,0,0.1,0.1,0.1c0,0.1,0.1,0.2,0.2,0.2c0,0,0,0,0,0
			c0,0,0,0,0,0c0.1,0.1,0.2,0.2,0.3,0.2c0,0,0.1,0,0.1,0.1c0.1,0,0.1,0.1,0.2,0.1c0,0,0.1,0,0.1,0c0.1,0,0.2,0.1,0.2,0.1
			c0,0,0.1,0,0.1,0c0.1,0,0.2,0,0.3,0c0,0,0,0,0,0c0.1,0,0.2,0,0.3,0c0,0,0,0,0,0c0,0,0.1,0,0.1,0c0.1,0,0.1,0,0.2-0.1
			c0,0,0.1,0,0.1-0.1c0.1,0,0.1-0.1,0.2-0.1c0,0,0.1-0.1,0.1-0.1c0,0,0.1,0,0.1-0.1l22.2-19.2l4,18.3c0,0,0,0.1,0,0.1
			c0,0,0,0.1,0,0.1c0,0.1,0.1,0.1,0.1,0.2c0,0,0,0.1,0.1,0.1c0,0.1,0.1,0.1,0.2,0.2c0,0,0,0,0,0c0,0,0,0,0,0
			c0.1,0.1,0.2,0.2,0.3,0.2c0,0,0.1,0,0.1,0.1c0.1,0,0.1,0.1,0.2,0.1c0,0,0.1,0,0.1,0c0.1,0,0.2,0.1,0.2,0.1c0,0,0.1,0,0.1,0
			c0.1,0,0.2,0,0.3,0c0,0,0,0,0,0c0.1,0,0.2,0,0.3,0c0,0,0,0,0,0c0,0,0.1,0,0.1,0c0.1,0,0.1,0,0.2-0.1c0,0,0.1,0,0.1-0.1
			c0.1,0,0.1-0.1,0.2-0.1c0,0,0.1-0.1,0.1-0.1c0,0,0,0,0.1-0.1l22-19.2l4.2,18.3c0,0,0,0.1,0,0.1c0,0,0,0.1,0,0.1
			c0,0.1,0,0.1,0.1,0.2c0,0,0,0.1,0.1,0.1c0,0.1,0.1,0.1,0.1,0.2c0,0,0,0,0,0c0,0,0,0,0,0c0.1,0.1,0.2,0.2,0.3,0.2
			c0,0,0.1,0,0.1,0.1c0.1,0,0.1,0.1,0.2,0.1c0,0,0.1,0,0.1,0c0.1,0,0.2,0.1,0.2,0.1c0,0,0.1,0,0.1,0c0.1,0,0.2,0,0.3,0c0,0,0,0,0,0
			c0.1,0,0.2,0,0.3,0c0,0,0,0,0,0c0,0,0.1,0,0.1,0c0.1,0,0.1,0,0.2-0.1c0,0,0.1,0,0.1-0.1c0.1,0,0.1-0.1,0.2-0.1
			c0,0,0.1-0.1,0.1-0.1c0,0,0,0,0.1-0.1l21.8-19.2l4.4,18.3c0,0,0,0.1,0,0.1c0,0,0,0.1,0,0.1c0,0.1,0.1,0.1,0.1,0.2
			c0,0,0,0.1,0.1,0.1c0,0.1,0.1,0.1,0.1,0.2c0,0,0,0,0,0c0,0,0,0,0,0c0.1,0.1,0.2,0.2,0.3,0.2c0,0,0.1,0,0.1,0.1
			c0.1,0,0.1,0.1,0.2,0.1c0,0,0.1,0,0.1,0c0.1,0,0.2,0.1,0.2,0.1c0,0,0.1,0,0.1,0c0.1,0,0.2,0,0.3,0c0,0,0,0,0,0c0.1,0,0.2,0,0.4,0
			c0,0,0,0,0,0c0,0,0.1,0,0.1,0c0.1,0,0.1,0,0.2-0.1c0,0,0.1,0,0.1-0.1c0.1,0,0.1-0.1,0.2-0.1c0,0,0.1-0.1,0.1-0.1c0,0,0,0,0.1,0
			l21.6-19.2l4.6,18.3c0,0,0,0.1,0,0.1c0,0,0,0.1,0,0.1c0,0.1,0.1,0.1,0.1,0.2c0,0,0,0.1,0.1,0.1c0,0.1,0.1,0.1,0.2,0.2c0,0,0,0,0,0
			c0,0,0,0,0,0c0.1,0.1,0.2,0.2,0.3,0.2c0,0,0.1,0,0.1,0.1c0.1,0,0.1,0.1,0.2,0.1c0,0,0.1,0,0.1,0c0.1,0,0.1,0.1,0.2,0.1
			c0,0,0.1,0,0.1,0c0.1,0,0.2,0,0.3,0c0,0,0,0,0,0c0.1,0,0.2,0,0.4,0c0,0,0,0,0,0c0,0,0.1,0,0.1,0c0.1,0,0.1,0,0.2-0.1
			c0,0,0.1,0,0.1-0.1c0.1,0,0.1-0.1,0.2-0.1c0,0,0.1-0.1,0.1-0.1c0,0,0,0,0.1,0l21.5-19.2l4.7,18.4c0,0,0,0,0,0.1c0,0,0,0.1,0,0.1
			c0,0.1,0.1,0.1,0.1,0.2c0,0,0,0.1,0.1,0.1c0,0.1,0.1,0.1,0.1,0.2c0,0,0,0,0,0c0,0,0,0,0,0c0.1,0.1,0.2,0.2,0.3,0.2
			c0,0,0.1,0,0.1,0.1c0.1,0,0.1,0.1,0.2,0.1c0,0,0.1,0,0.1,0c0.1,0,0.1,0.1,0.2,0.1c0,0,0.1,0,0.1,0c0.1,0,0.2,0,0.3,0
			c0.1,0,0.2,0,0.3,0c0,0,0.1,0,0.1,0c0,0,0.1,0,0.1,0c0,0,0,0,0.1,0c0.1,0,0.1,0,0.2-0.1c0,0,0.1,0,0.1-0.1c0.1,0,0.1-0.1,0.1-0.1
			c0,0,0.1-0.1,0.1-0.1c0,0,0,0,0.1,0l21.3-19.2l4.9,18.4c0,0,0,0,0,0.1c0,0,0,0.1,0,0.1c0,0.1,0.1,0.1,0.1,0.2c0,0,0,0.1,0.1,0.1
			c0,0.1,0.1,0.1,0.1,0.2c0,0,0,0,0,0c0,0,0,0,0,0c0.1,0.1,0.2,0.2,0.3,0.2c0,0,0.1,0,0.1,0.1c0.1,0,0.1,0.1,0.2,0.1
			c0,0,0.1,0,0.1,0c0.1,0,0.1,0.1,0.2,0.1c0,0,0.1,0,0.1,0c0.1,0,0.2,0,0.3,0c0.1,0,0.2,0,0.3,0c0,0,0.1,0,0.1,0c0,0,0.1,0,0.1,0
			c0,0,0,0,0.1,0c0.1,0,0.1,0,0.2-0.1c0,0,0.1,0,0.1-0.1c0.1,0,0.1-0.1,0.2-0.1c0,0,0.1-0.1,0.1-0.1c0,0,0,0,0.1,0l21.1-19.2
			l5.1,18.4c0,0,0,0,0,0.1c0,0,0,0.1,0,0.1c0,0.1,0.1,0.1,0.1,0.2c0,0,0,0.1,0.1,0.1c0,0.1,0.1,0.1,0.1,0.2c0,0,0,0,0,0c0,0,0,0,0,0
			c0.1,0.1,0.2,0.2,0.3,0.2c0,0,0.1,0,0.1,0.1c0.1,0,0.1,0.1,0.2,0.1c0,0,0.1,0,0.1,0c0.1,0,0.1,0.1,0.2,0.1c0,0,0.1,0,0.1,0
			c0.1,0,0.2,0,0.3,0c0.1,0,0.2,0,0.3,0c0,0,0.1,0,0.1,0c0,0,0.1,0,0.1,0c0,0,0,0,0.1,0c0.1,0,0.1,0,0.2-0.1c0,0,0.1,0,0.1-0.1
			c0.1,0,0.1-0.1,0.1-0.1c0,0,0.1-0.1,0.1-0.1c0,0,0,0,0,0l20.9-19.2l5.3,18.4c0,0,0,0,0,0.1c0,0,0,0.1,0,0.1c0,0.1,0.1,0.1,0.1,0.2
			c0,0,0,0.1,0.1,0.1c0,0.1,0.1,0.1,0.1,0.2c0,0,0,0,0,0c0,0,0,0,0,0c0.1,0.1,0.2,0.2,0.2,0.2c0,0,0.1,0,0.1,0.1
			c0.1,0,0.1,0.1,0.2,0.1c0,0,0.1,0,0.1,0c0.1,0,0.1,0,0.2,0.1c0,0,0.1,0,0.1,0c0.1,0,0.2,0,0.3,0c0.1,0,0.2,0,0.3,0
			c0,0,0.1,0,0.1,0c0,0,0.1,0,0.1,0c0,0,0,0,0.1,0c0.1,0,0.1,0,0.2-0.1c0,0,0.1,0,0.1-0.1c0,0,0.1-0.1,0.1-0.1c0,0,0.1-0.1,0.1-0.1
			c0,0,0,0,0,0l22.8-21.1c0.7-0.7,0.8-1.8,0.1-2.5c-0.7-0.7-1.8-0.8-2.5-0.1l-20.7,19.2l-5.3-18.4c0,0,0,0,0,0c0-0.1,0-0.1-0.1-0.2
			c0-0.1,0-0.1-0.1-0.1c0,0-0.1-0.1-0.1-0.1c0-0.1-0.1-0.1-0.1-0.2c0,0,0,0,0,0c0,0-0.1,0-0.1-0.1c0,0-0.1-0.1-0.1-0.1
			c0,0-0.1-0.1-0.1-0.1c0,0-0.1-0.1-0.1-0.1c-0.1,0-0.1-0.1-0.2-0.1c0,0-0.1,0-0.1-0.1c-0.1,0-0.1,0-0.2,0c-0.1,0-0.1,0-0.2,0
			c-0.1,0-0.1,0-0.2,0c-0.1,0-0.1,0-0.2,0c-0.1,0-0.1,0-0.2,0c0,0-0.1,0-0.1,0c0,0,0,0,0,0c-0.1,0-0.1,0-0.2,0.1
			c-0.1,0-0.1,0-0.1,0.1c0,0-0.1,0.1-0.1,0.1c-0.1,0-0.1,0.1-0.2,0.1c0,0,0,0,0,0l-20.9,19.2l-5.1-18.4c0,0,0,0,0-0.1
			c0-0.1,0-0.1-0.1-0.2c0,0,0-0.1-0.1-0.1c0,0-0.1-0.1-0.1-0.1c0-0.1-0.1-0.1-0.1-0.1c0,0,0,0,0,0c0,0-0.1,0-0.1-0.1
			c0,0-0.1-0.1-0.1-0.1c0,0-0.1-0.1-0.1-0.1c0,0-0.1-0.1-0.1-0.1c-0.1,0-0.1-0.1-0.2-0.1c0,0-0.1,0-0.2-0.1c-0.1,0-0.1,0-0.2,0
			c-0.1,0-0.1,0-0.2,0c-0.1,0-0.1,0-0.2,0c-0.1,0-0.1,0-0.2,0c-0.1,0-0.1,0-0.2,0c0,0-0.1,0-0.1,0c0,0,0,0,0,0c-0.1,0-0.1,0-0.2,0.1
			c0,0-0.1,0-0.1,0.1c0,0-0.1,0.1-0.1,0.1c-0.1,0-0.1,0.1-0.2,0.1c0,0,0,0,0,0l-21.1,19.2l-4.9-18.4c0,0,0,0,0-0.1
			c0-0.1,0-0.1-0.1-0.2c0-0.1,0-0.1-0.1-0.1c0,0-0.1-0.1-0.1-0.1c0-0.1-0.1-0.1-0.1-0.1c0,0,0,0,0,0c0,0-0.1,0-0.1-0.1
			c0,0-0.1-0.1-0.1-0.1c0,0-0.1-0.1-0.1-0.1c0,0-0.1-0.1-0.1-0.1c-0.1,0-0.1-0.1-0.2-0.1c-0.1,0-0.1,0-0.2-0.1c-0.1,0-0.1,0-0.2,0
			c-0.1,0-0.1,0-0.2,0c-0.1,0-0.1,0-0.2,0c-0.1,0-0.1,0-0.2,0c-0.1,0-0.1,0-0.2,0c0,0-0.1,0-0.1,0c0,0,0,0-0.1,0
			c-0.1,0-0.1,0-0.2,0.1c-0.1,0-0.1,0-0.2,0.1c0,0-0.1,0.1-0.1,0.1c-0.1,0-0.1,0.1-0.2,0.1c0,0,0,0,0,0l-21.3,19.2l-4.7-18.3
			c0,0,0,0,0-0.1c0-0.1,0-0.1-0.1-0.2c0-0.1,0-0.1-0.1-0.2c0,0-0.1-0.1-0.1-0.1c0-0.1-0.1-0.1-0.1-0.2c0,0,0,0,0,0c0,0,0,0-0.1-0.1
			c0,0-0.1-0.1-0.1-0.1c0,0-0.1-0.1-0.1-0.1c-0.1,0-0.1-0.1-0.2-0.1c0,0-0.1,0-0.1-0.1c-0.1,0-0.1,0-0.2-0.1c0,0-0.1,0-0.1,0
			c-0.1,0-0.1,0-0.2,0c-0.1,0-0.1,0-0.2,0c-0.1,0-0.1,0-0.2,0c-0.1,0-0.1,0-0.2,0c0,0-0.1,0-0.1,0c0,0,0,0-0.1,0
			c-0.1,0-0.1,0-0.2,0.1c-0.1,0-0.1,0-0.2,0.1c0,0-0.1,0.1-0.1,0.1c-0.1,0-0.1,0.1-0.2,0.1c0,0,0,0-0.1,0l-21.4,19.2l-4.6-18.3
			c0,0,0,0,0-0.1c0-0.1,0-0.1-0.1-0.2c0-0.1,0-0.1-0.1-0.2c0-0.1-0.1-0.1-0.1-0.1c0-0.1-0.1-0.1-0.1-0.1c0,0,0,0,0-0.1
			c0,0,0,0-0.1-0.1c0,0-0.1-0.1-0.1-0.1c0,0-0.1-0.1-0.1-0.1c0,0-0.1-0.1-0.1-0.1c-0.1,0-0.1-0.1-0.2-0.1c0,0-0.1,0-0.1,0
			c-0.1,0-0.1,0-0.2,0c-0.1,0-0.1,0-0.2,0c-0.1,0-0.1,0-0.2,0c-0.1,0-0.1,0-0.2,0c-0.1,0-0.1,0-0.2,0c0,0-0.1,0-0.1,0c0,0,0,0-0.1,0
			c-0.1,0-0.1,0-0.2,0.1c-0.1,0-0.1,0-0.2,0.1c0,0-0.1,0.1-0.1,0.1c-0.1,0-0.1,0.1-0.2,0.1c0,0,0,0-0.1,0l-21.6,19.2l-4.4-18.3
			c0,0,0,0,0-0.1c0-0.1,0-0.1-0.1-0.2c0-0.1,0-0.1-0.1-0.1c0,0-0.1-0.1-0.1-0.1c0-0.1-0.1-0.1-0.1-0.2c0,0,0,0,0-0.1
			c0,0,0,0-0.1-0.1c0,0-0.1-0.1-0.1-0.1c0,0-0.1-0.1-0.1-0.1c0,0-0.1-0.1-0.2-0.1c0,0-0.1,0-0.1-0.1c-0.1,0-0.1,0-0.2-0.1
			c0,0-0.1,0-0.1,0c-0.1,0-0.1,0-0.2,0c-0.1,0-0.1,0-0.2,0c-0.1,0-0.1,0-0.2,0c-0.1,0-0.1,0-0.2,0c0,0-0.1,0-0.1,0c0,0,0,0-0.1,0
			c-0.1,0-0.1,0-0.2,0.1c-0.1,0-0.1,0-0.1,0.1c-0.1,0-0.1,0.1-0.1,0.1c-0.1,0-0.1,0.1-0.1,0.1c0,0,0,0-0.1,0l-21.8,19.2l-4.2-18.3
			c0,0,0,0,0-0.1c0-0.1,0-0.1-0.1-0.2c0-0.1,0-0.1-0.1-0.2c0,0-0.1-0.1-0.1-0.1c0-0.1-0.1-0.1-0.1-0.2c0,0,0,0,0-0.1
			c0,0,0,0-0.1-0.1c0,0-0.1-0.1-0.1-0.1c0,0-0.1-0.1-0.1-0.1c-0.1,0-0.1-0.1-0.2-0.1c0,0-0.1,0-0.1-0.1c-0.1,0-0.1,0-0.2-0.1
			c0,0-0.1,0-0.1,0c-0.1,0-0.1,0-0.2,0c-0.1,0-0.1,0-0.2,0c-0.1,0-0.1,0-0.2,0c-0.1,0-0.1,0-0.2,0c0,0-0.1,0-0.1,0c0,0,0,0-0.1,0
			c-0.1,0-0.1,0-0.2,0.1c-0.1,0-0.1,0-0.2,0.1c0,0-0.1,0.1-0.1,0.1c-0.1,0-0.1,0.1-0.2,0.1c0,0,0,0-0.1,0l-22,19.2l-4-18.3
			c0,0,0,0,0-0.1c0-0.1,0-0.1-0.1-0.2c0-0.1,0-0.1-0.1-0.2c0,0-0.1-0.1-0.1-0.1c0-0.1-0.1-0.1-0.1-0.2c0,0,0,0,0-0.1
			c0,0,0,0-0.1-0.1c0,0-0.1-0.1-0.1-0.1c0,0-0.1-0.1-0.1-0.1c0,0-0.1-0.1-0.2-0.1c0,0-0.1-0.1-0.1-0.1c-0.1,0-0.1,0-0.2-0.1
			c-0.1,0-0.1,0-0.2,0c-0.1,0-0.1,0-0.2,0c-0.1,0-0.1,0-0.2,0c-0.1,0-0.1,0-0.2,0c-0.1,0-0.1,0-0.2,0c0,0-0.1,0-0.1,0c0,0,0,0-0.1,0
			c-0.1,0-0.1,0-0.2,0.1c-0.1,0-0.1,0-0.2,0.1c0,0-0.1,0.1-0.1,0.1c-0.1,0-0.1,0.1-0.2,0.1c0,0,0,0-0.1,0l-22.1,19.2l-3.9-18.2
			c0,0,0-0.1,0-0.1c0-0.1,0-0.1-0.1-0.2c0-0.1,0-0.1-0.1-0.1c0-0.1-0.1-0.1-0.1-0.2c0-0.1-0.1-0.1-0.1-0.1c0,0,0,0,0-0.1
			c0,0,0,0-0.1-0.1c0,0-0.1-0.1-0.1-0.1c0,0-0.1-0.1-0.1-0.1c0,0-0.1-0.1-0.1-0.1c-0.1,0-0.1-0.1-0.2-0.1c0,0-0.1,0-0.1-0.1
			c-0.1,0-0.1,0-0.2-0.1c-0.1,0-0.1,0-0.2,0c-0.1,0-0.1,0-0.2,0c-0.1,0-0.1,0-0.2,0c-0.1,0-0.1,0-0.2,0c0,0-0.1,0-0.1,0
			c0,0-0.1,0-0.1,0c-0.1,0-0.1,0-0.2,0.1c-0.1,0-0.1,0-0.2,0.1c0,0-0.1,0.1-0.1,0.1c-0.1,0-0.1,0.1-0.2,0.1c0,0,0,0-0.1,0
			l-22.3,19.2l-3.7-18.2c0,0,0-0.1,0-0.1c0-0.1,0-0.1-0.1-0.2c0-0.1,0-0.1-0.1-0.2c0-0.1-0.1-0.1-0.1-0.1c0-0.1-0.1-0.1-0.1-0.2
			c0,0,0,0,0-0.1c0,0,0,0-0.1-0.1c0,0-0.1-0.1-0.1-0.1c0,0-0.1-0.1-0.1-0.1c0,0-0.1-0.1-0.1-0.1c0,0-0.1-0.1-0.2-0.1
			c-0.1,0-0.1,0-0.2-0.1c-0.1,0-0.1,0-0.2,0c-0.1,0-0.1,0-0.2,0c-0.1,0-0.1,0-0.2,0c-0.1,0-0.1,0-0.2,0c-0.1,0-0.1,0-0.2,0
			c0,0,0,0-0.1,0c0,0-0.1,0-0.1,0c-0.1,0-0.1,0-0.2,0.1c-0.1,0-0.1,0-0.2,0.1c-0.1,0-0.1,0.1-0.1,0.1c-0.1,0-0.1,0.1-0.2,0.1
			c0,0,0,0-0.1,0l-22.5,19.2l-3.5-18.2c0,0,0-0.1,0-0.1c0-0.1,0-0.1-0.1-0.2c0-0.1,0-0.1-0.1-0.2c0,0,0-0.1-0.1-0.1
			c0-0.1-0.1-0.1-0.1-0.2c0,0,0,0,0-0.1c0,0,0,0,0,0c0,0-0.1-0.1-0.1-0.1c0,0-0.1-0.1-0.1-0.1c0,0-0.1-0.1-0.1-0.1
			c0,0-0.1-0.1-0.2-0.1c0,0-0.1,0-0.1-0.1c-0.1,0-0.1,0-0.2-0.1c0,0-0.1,0-0.1,0c-0.1,0-0.1,0-0.2,0c0,0-0.1,0-0.1,0
			c-0.1,0-0.1,0-0.2,0c0,0,0,0-0.1,0c0,0-0.1,0-0.1,0c-0.1,0-0.1,0-0.2,0.1c-0.1,0-0.1,0-0.2,0.1c-0.1,0-0.1,0-0.1,0.1
			c-0.1,0-0.1,0.1-0.2,0.1c0,0,0,0-0.1,0l-25,21.1C1069.6,241.8,1069.4,242.6,1069.7,243.3z M1076.1,241l19.1-16.1l3.1,16.1H1076.1z
			"/>
		
			<rect x="1422.6" y="239.5" transform="matrix(-1 -1.224647e-16 1.224647e-16 -1 3047.0688 483.9745)" class="st9" width="201.8" height="4.9"/>
		<g>
			<g>
				<path class="st9" d="M1456.7,220.6h167.7v18.9h-167.7V220.6z M1622.5,222.6h-163.7v14.9h163.7V222.6z"/>
			</g>
			<g>
				<rect x="1594.8" y="221.6" class="st9" width="2" height="16.9"/>
			</g>
			<g>
				<rect x="1567.2" y="221.6" class="st9" width="2" height="16.9"/>
			</g>
			<g>
				<rect x="1539.6" y="221.6" class="st9" width="2" height="16.9"/>
			</g>
			<g>
				<rect x="1512" y="221.6" class="st9" width="2" height="16.9"/>
			</g>
			<g>
				<rect x="1484.3" y="221.6" class="st9" width="2" height="16.9"/>
			</g>
		</g>
		<path class="st9" d="M1454.1,241l-9.4-124c0,0,0,0,0,0c0-0.1,0-0.1,0-0.2c0,0,0-0.1,0-0.1c0-0.1,0-0.1-0.1-0.2c0,0,0-0.1-0.1-0.1
			c0-0.1-0.1-0.1-0.1-0.2c0,0,0-0.1-0.1-0.1c0-0.1-0.1-0.1-0.2-0.2c0,0,0-0.1-0.1-0.1c-0.1-0.1-0.1-0.1-0.2-0.1c0,0,0,0-0.1,0
			c-0.1,0-0.1-0.1-0.2-0.1c0,0-0.1,0-0.1,0c-0.1,0-0.1,0-0.2,0c0,0-0.1,0-0.1,0c0,0,0,0,0,0c-0.1,0-0.1,0-0.2,0c0,0-0.1,0-0.1,0
			c0,0,0,0,0,0c-0.2,0-0.5,0.1-0.7,0.2c0,0,0,0-0.1,0c-0.1,0-0.2,0.1-0.2,0.1c0,0,0,0-0.1,0.1c-0.1,0.1-0.1,0.1-0.2,0.2
			c0,0,0,0.1-0.1,0.1c0,0.1-0.1,0.1-0.1,0.2c0,0,0,0.1-0.1,0.1c0,0.1-0.1,0.1-0.1,0.2c0,0.1,0,0.1,0,0.2c0,0,0,0.1,0,0.1
			l-18.6,122.1c-0.1,0.5,0.1,1,0.4,1.4c0.3,0.4,0.8,0.6,1.3,0.6h10.4c0.9,0,1.7-0.7,1.7-1.6l1.8-26.6l8.7-19.2l3.6,47.5H1454.1z
			 M1427.1,237.4l7.1-15.7l-1.1,15.7H1427.1z M1433.9,188.3h2.5l-1.6,23.5l-6.8,15.1L1433.9,188.3z M1438.4,158.5l-1.8,26.2h-2.2
			L1438.4,158.5z M1439.9,188.3h5.6l-6.5,14.4L1439.9,188.3z M1446.3,184.8h-6.2l2.9-43.1L1446.3,184.8z"/>
		<path class="st8" d="M1077.2,244.5H1433l-18.2-24.6h-319.4L1077.2,244.5z M1397,241h-22.4l10.5-16.3L1397,241z M1388.5,223.3h22.2
			l-10.4,16.3L1388.5,223.3z M1371.3,239.6l-11.7-16.3h22.2L1371.3,239.6z M1368,241h-22.4l10.7-16.3L1368,241z M1342.3,239.6
			l-11.6-16.3h22.2L1342.3,239.6z M1339,241h-22.4l10.8-16.3L1339,241z M1313.2,239.6l-11.4-16.3h22.2L1313.2,239.6z M1309.9,241
			h-22.4l11-16.3L1309.9,241z M1284.2,239.6l-11.3-16.3h22.2L1284.2,239.6z M1280.9,241h-22.4l11.1-16.3L1280.9,241z M1255.1,239.6
			l-11.1-16.3h22.2L1255.1,239.6z M1251.8,241h-22.4l11.3-16.3L1251.8,241z M1226.1,239.6l-11-16.3h22.2L1226.1,239.6z M1222.8,241
			h-22.4l11.4-16.3L1222.8,241z M1197,239.6l-10.8-16.3h22.2L1197,239.6z M1193.7,241h-22.4l11.6-16.3L1193.7,241z M1168.2,239.3
			l-10.8-16h22.2L1168.2,239.3z M1165.1,241h-22.9l11.8-16.3L1165.1,241z M1138.9,239.6l-10.5-16.3h22.2L1138.9,239.6z M1135.6,241
			h-22.4l11.9-16.3L1135.6,241z M1109.9,239.6l-10.4-16.3h22.2L1109.9,239.6z M1106.6,241h-22.4l12-16.3L1106.6,241z M1426.1,241
			h-22.4l10.4-16.3L1426.1,241z"/>
		<path class="st8" d="M1433,239.5v739.9h31.7V239.5H1433z M1436.5,296.9h22.5l-22.5,24.7V296.9z M1436.5,330.7l22.5,24.7h-22.5
			V330.7z M1436.5,358.9h22.5l-22.5,24.7V358.9z M1436.5,392.7l22.5,24.7h-22.5V392.7z M1436.5,420.9h22.5l-22.5,24.7V420.9z
			 M1436.5,454.8l22.5,24.7h-22.5V454.8z M1436.5,483h22.5l-22.5,24.7V483z M1436.5,516.8l22.5,24.7h-22.5V516.8z M1436.5,545h22.5
			l-22.5,24.7V545z M1436.5,578.8l22.5,24.7h-22.5V578.8z M1436.5,607.1h22.5l-22.5,24.7V607.1z M1436.5,640.9l22.5,24.7h-22.5
			V640.9z M1436.5,669.1h22.5l-22.5,24.7V669.1z M1436.5,702.9l22.5,24.7h-22.5V702.9z M1436.5,731.2h22.5l-22.5,24.7V731.2z
			 M1436.5,765l22.5,24.7h-22.5V765z M1436.5,793.2h22.5l-22.5,24.7V793.2z M1436.5,827l22.5,24.7h-22.5V827z M1436.5,855.3h22.5
			l-22.5,24.7V855.3z M1436.5,889.1l22.5,24.7h-22.5V889.1z M1436.5,917.3h22.5l-22.5,24.7V917.3z M1436.5,975.9v-24.7l22.5,24.7
			H1436.5z M1461.2,973.1l-22.5-24.7h22.5V973.1z M1461.2,944.9h-22.5l22.5-24.7V944.9z M1461.2,911l-22.5-24.7h22.5V911z
			 M1461.2,882.8h-22.5l22.5-24.7V882.8z M1461.2,849l-22.5-24.7h22.5V849z M1461.2,820.8h-22.5l22.5-24.7V820.8z M1461.2,787
			l-22.5-24.7h22.5V787z M1461.2,758.7h-22.5l22.5-24.7V758.7z M1461.2,724.9l-22.5-24.7h22.5V724.9z M1461.2,696.7h-22.5l22.5-24.7
			V696.7z M1461.2,662.9l-22.5-24.7h22.5V662.9z M1461.2,634.6h-22.5l22.5-24.7V634.6z M1461.2,600.8l-22.5-24.7h22.5V600.8z
			 M1461.2,572.6h-22.5l22.5-24.7V572.6z M1461.2,538.8l-22.5-24.7h22.5V538.8z M1461.2,510.5h-22.5l22.5-24.7V510.5z M1461.2,476.7
			l-22.5-24.7h22.5V476.7z M1461.2,448.5h-22.5l22.5-24.7V448.5z M1461.2,414.7l-22.5-24.7h22.5V414.7z M1461.2,386.4h-22.5
			l22.5-24.7V386.4z M1461.2,352.6l-22.5-24.7h22.5V352.6z M1461.2,324.4h-22.5l22.5-24.7V324.4z M1461.2,293.4h-24.7v-48.9h24.7
			V293.4z"/>
		<path class="st8" d="M1433,239.1c0,0.5,0.1,1,0.5,1.3c0.3,0.4,0.8,0.6,1.3,0.6h28.2c0.5,0,1-0.2,1.3-0.6c0.3-0.4,0.5-0.9,0.4-1.4
			l-20-122.1c-0.1-0.9-0.9-1.5-1.8-1.5c-0.9,0-1.6,0.7-1.7,1.6L1433,239.1z M1439.9,188.3h11.9l-14.5,39L1439.9,188.3z
			 M1452.2,184.8h-12.1l3.5-52.4L1452.2,184.8z M1460.9,237.4h-23.6l16.4-44.1L1460.9,237.4z"/>
		<g>
			<rect x="1401.8" y="244.5" class="st3" width="10.4" height="34.9"/>
			<polygon class="st3" points="1412.2,279.4 1401.8,279.4 1407,296.9 1417.4,296.9 			"/>
			<rect x="1401.8" y="248.7" class="st18" width="10.4" height="30.7"/>
			<polygon class="st18" points="1405.8,292.7 1401.8,279.4 1412.2,279.4 1416.2,292.7 			"/>
			<polygon class="st0" points="1417.4,296.9 1450.8,296.9 1450.8,244.5 1412.2,244.5 1412.2,279.4 			"/>
			<polygon class="st4" points="1416.2,292.7 1412.2,279.4 1412.2,248.7 1433,248.7 1433,292.7 			"/>
		</g>
		<g>
			<rect x="1393.5" y="948.4" class="st4" width="27" height="31"/>
			
				<rect x="1420.5" y="948.4" transform="matrix(-1 -1.224647e-16 1.224647e-16 -1 2914.322 1927.7333)" class="st0" width="73.3" height="31"/>
		</g>
		<g>
			<rect x="1405.1" y="434.7" class="st3" width="20.8" height="15.5"/>
			
				<rect x="1425.9" y="434.7" transform="matrix(-1 -1.224647e-16 1.224647e-16 -1 2908.052 884.9322)" class="st0" width="56.3" height="15.5"/>
		</g>
		<g>
			<rect x="1425.9" y="448.5" class="st8" width="56.3" height="3.5"/>
		</g>
		<g>
			<rect x="1405.1" y="448.5" class="st9" width="20.8" height="3.5"/>
		</g>
		<g>
			<rect x="1405.1" y="310.6" class="st3" width="20.8" height="15.5"/>
			
				<rect x="1425.9" y="310.6" transform="matrix(-1 -1.224647e-16 1.224647e-16 -1 2908.052 636.7408)" class="st0" width="56.3" height="15.5"/>
		</g>
		<g>
			<rect x="1425.9" y="324.4" class="st8" width="56.3" height="3.5"/>
		</g>
		<g>
			<rect x="1405.1" y="324.4" class="st9" width="20.8" height="3.5"/>
		</g>
		<g>
			
				<rect x="1139.5" y="242.7" transform="matrix(-1 -1.224647e-16 1.224647e-16 -1 2308.114 494.8134)" class="st4" width="29.1" height="9.4"/>
		</g>
	</g>
	<g>
		
			<linearGradient id="SVGID_00000146480218804322899420000017472501611447995327_" gradientUnits="userSpaceOnUse" x1="6590.916" y1="943.9702" x2="6538.957" y2="807.6217" gradientTransform="matrix(-1 0 0 1 7668.9263 0)">
			<stop  offset="0" style="stop-color:#D77A00"/>
			<stop  offset="0.1888" style="stop-color:#DE8D08"/>
			<stop  offset="0.4633" style="stop-color:#E5A110"/>
			<stop  offset="0.7344" style="stop-color:#EAAE15"/>
			<stop  offset="0.996" style="stop-color:#EBB217"/>
		</linearGradient>
		<polygon style="fill:url(#SVGID_00000146480218804322899420000017472501611447995327_);" points="1098.3,940.6 1091.9,940.6 
			1091.9,857.6 1098.3,857.6 		"/>
		
			<linearGradient id="SVGID_00000110467750692820458370000011763425936415684750_" gradientUnits="userSpaceOnUse" x1="6464.8521" y1="899.1304" x2="6652.2739" y2="899.1304" gradientTransform="matrix(-1 0 0 1 7668.9263 0)">
			<stop  offset="0" style="stop-color:#D77A00"/>
			<stop  offset="1" style="stop-color:#B05103"/>
		</linearGradient>
		<polygon style="fill:url(#SVGID_00000110467750692820458370000011763425936415684750_);" points="1204.1,940.6 1098.3,940.6 
			1098.3,857.6 1204.1,857.6 		"/>
		<g>
			
				<linearGradient id="SVGID_00000063628624111786358940000001552141970883923118_" gradientUnits="userSpaceOnUse" x1="6359.1992" y1="860.2385" x2="6320.8335" y2="725.6431" gradientTransform="matrix(-1 0 0 1 7668.9263 0)">
				<stop  offset="0" style="stop-color:#D77A00"/>
				<stop  offset="0.996" style="stop-color:#EBB217"/>
			</linearGradient>
			<polygon style="fill:url(#SVGID_00000063628624111786358940000001552141970883923118_);" points="1262.3,701.4 1367.5,701.4 
				1414.2,818.9 1309,818.9 			"/>
			
				<linearGradient id="SVGID_00000142871496558340101310000009153462360053226379_" gradientUnits="userSpaceOnUse" x1="3781.7651" y1="-1978.1691" x2="3635.9331" y2="-2189.1426" gradientTransform="matrix(-0.8363 0.5482 0.5482 0.8363 5446.9292 518.6058)">
				<stop  offset="0" style="stop-color:#D77A00"/>
				<stop  offset="0.1888" style="stop-color:#DE8D08"/>
				<stop  offset="0.4633" style="stop-color:#E5A110"/>
				<stop  offset="0.7344" style="stop-color:#EAAE15"/>
				<stop  offset="0.996" style="stop-color:#EBB217"/>
			</linearGradient>
			<polygon style="fill:url(#SVGID_00000142871496558340101310000009153462360053226379_);" points="1267.8,746.7 1248,696.8 
				1273.9,679.9 1280.3,689.6 1262.3,701.4 1309,818.9 1299,825.4 1140.9,929.1 1095.4,859.7 			"/>
			<polygon class="st29" points="1273.9,679.9 1379,679.9 1385.4,689.6 1280.3,689.6 			"/>
			<polygon class="st30" points="1262.8,835 1294.6,814.2 1272.2,758 1240.4,778.8 			"/>
			<polygon class="st30" points="1221,862.4 1252.8,841.6 1230.4,785.4 1198.6,806.2 			"/>
			<polygon class="st30" points="1179.2,889.8 1211,869 1188.7,812.8 1156.8,833.6 			"/>
			<polygon class="st30" points="1144.3,912.7 1169.2,896.4 1146.9,840.2 1111.9,863.1 			"/>
			<polygon class="st31" points="1240.4,778.8 1240.4,778.8 1272.3,757.9 1274.5,763.5 1247.6,781.1 			"/>
			<polygon class="st29" points="1262.8,835 1240.4,778.8 1247.6,781.1 1265.6,826.2 			"/>
			<polygon class="st31" points="1198.6,806.2 1198.6,806.2 1230.5,785.3 1232.7,790.9 1205.8,808.5 			"/>
			<polygon class="st29" points="1221,862.4 1198.6,806.2 1205.8,808.5 1223.8,853.6 			"/>
			<polygon class="st31" points="1156.8,833.6 1156.8,833.6 1188.7,812.7 1190.9,818.3 1164,835.9 			"/>
			<polygon class="st29" points="1179.2,889.8 1156.8,833.6 1164,835.9 1182,881 			"/>
			<polygon class="st31" points="1111.9,863.1 1115,861 1146.9,840.1 1149.1,845.7 1119.9,864.8 			"/>
			<polygon class="st29" points="1111.9,863.1 1144.3,912.7 1146,904.6 1119.9,864.8 			"/>
			<polygon class="st31" points="1262.3,701.4 1367.5,701.4 1385.4,689.6 1280.3,689.6 			"/>
			
				<linearGradient id="SVGID_00000127736231462086929560000015902387028033997220_" gradientUnits="userSpaceOnUse" x1="6278.1299" y1="788.0717" x2="6409.9619" y2="888.0822" gradientTransform="matrix(-1 0 0 1 7668.9263 0)">
				<stop  offset="0" style="stop-color:#D77A00"/>
				<stop  offset="0.9921" style="stop-color:#B05103"/>
			</linearGradient>
			<polygon style="fill:url(#SVGID_00000127736231462086929560000015902387028033997220_);" points="1140.9,929.1 1246.1,929.1 
				1414.2,818.9 1309,818.9 			"/>
			<g>
				<path class="st29" d="M1094.6,840.1h6.2v0c1.5,0,3.1,0.4,4.4,1.4c0.4,0.3,8.1,6.5,8.1,6.5l-13.4,8.8L1094.6,840.1z"/>
				<path class="st30" d="M1091.2,841c2.2-1.5,5.2-1.2,7.5,0.4c0.4,0.3,11,8.8,11,8.8l-14.3,9.4l-5.5-8.4
					C1087.5,847.7,1088.1,843.1,1091.2,841z"/>
				<path class="st33" d="M1092.8,849.4c1.2,1.8,3.3,2.4,4.8,1.4c1.5-1,1.8-3.2,0.6-5c-1.2-1.8-3.3-2.4-4.8-1.4
					C1092,845.4,1091.7,847.7,1092.8,849.4z"/>
			</g>
		</g>
		<g>
			<g>
				<path class="st21" d="M1310.3,895.9c-1.9,0.8-4,0.1-4.7-1.6c-0.7-1.6,0.4-3.6,2.3-4.4c1.9-0.8,4-0.1,4.7,1.6
					C1313.3,893.2,1312.2,895.1,1310.3,895.9z"/>
				
					<rect x="1285.9" y="873.5" transform="matrix(0.374 0.9274 -0.9274 0.374 1629.0968 -659.0891)" class="st21" width="33.8" height="7.5"/>
				<path class="st21" d="M1297.7,864.6c-1.9,0.8-4,0.1-4.7-1.6c-0.7-1.6,0.4-3.6,2.3-4.4c1.9-0.8,4-0.1,4.7,1.6
					C1300.6,861.8,1299.6,863.8,1297.7,864.6z"/>
			</g>
			<g>
				<path class="st34" d="M1324.2,930.3c-3.1,1.3-6.6,0.1-7.6-2.6c-1.1-2.7,0.6-5.9,3.7-7.1c3.1-1.3,6.6-0.1,7.6,2.6
					C1329,925.8,1327.3,929,1324.2,930.3z"/>
				
					<rect x="1298.1" y="903.1" transform="matrix(0.374 0.9274 -0.9274 0.374 1666.7526 -651.0482)" class="st34" width="35.1" height="12.2"/>
				<path class="st34" d="M1311,897.8c-3.1,1.3-6.6,0.1-7.6-2.6c-1.1-2.7,0.6-5.9,3.7-7.1s6.6-0.1,7.6,2.6
					C1315.8,893.3,1314.1,896.5,1311,897.8z"/>
			</g>
		</g>
		<g>
			<path class="st35" d="M1537.2,937.4c14.4,0,26.1,13.7,26.1,30.6s-11.7,30.6-26.1,30.6h-15.8v-61.2H1537.2z"/>
			<ellipse class="st36" cx="1521.3" cy="968" rx="26.1" ry="30.6"/>
			<ellipse class="st37" cx="1521.3" cy="968" rx="14.4" ry="16.9"/>
			<ellipse class="st35" cx="1521.3" cy="968" rx="12.3" ry="14.4"/>
		</g>
		<path class="st35" d="M1577.2,975.9H1472v-50.2h105.2c2.9,0,5.3,2.4,5.3,5.3v39.6C1582.5,973.6,1580.1,975.9,1577.2,975.9z"/>
		<path class="st21" d="M1466.7,813.6h105.1c2.9,0,5.3,2.4,5.3,5.3v141.2h-110.5V813.6z"/>
		
			<linearGradient id="SVGID_00000080909234997370620470000003461389303599418028_" gradientUnits="userSpaceOnUse" x1="6121.2964" y1="816.7587" x2="6167.3691" y2="896.5588" gradientTransform="matrix(-1 0 0 1 7668.9263 0)">
			<stop  offset="3.968250e-03" style="stop-color:#B3C7F5"/>
			<stop  offset="0.2101" style="stop-color:#B0C3F2"/>
			<stop  offset="0.4238" style="stop-color:#A5B6E7"/>
			<stop  offset="0.6409" style="stop-color:#94A2D6"/>
			<stop  offset="0.859" style="stop-color:#7D85BE"/>
			<stop  offset="1" style="stop-color:#6A6EAB"/>
		</linearGradient>
		<polygon style="fill:url(#SVGID_00000080909234997370620470000003461389303599418028_);" points="1476.7,882.2 1572.5,882.2 
			1572.5,831.1 1476.7,831.1 		"/>
		<rect x="1476.7" y="831.1" class="st39" width="95.7" height="11.2"/>
		<path class="st37" d="M1496.7,919.7h55.8c1.8,0,3.2-1.4,3.2-3.2v-3.1h-62.2v3.1C1493.5,918.3,1494.9,919.7,1496.7,919.7z"/>
		<path class="st37" d="M1496.7,907.2h55.8c1.8,0,3.2-1.4,3.2-3.2v-3h-62.2v3.1C1493.5,905.8,1494.9,907.2,1496.7,907.2z"/>
		<g>
			<path class="st35" d="M1297.1,937.4c14.4,0,26.1,13.7,26.1,30.6s-11.7,30.6-26.1,30.6h-15.8v-61.2H1297.1z"/>
			<ellipse class="st36" cx="1281.3" cy="968" rx="26.1" ry="30.6"/>
			<ellipse class="st37" cx="1281.3" cy="968" rx="14.4" ry="16.9"/>
			<ellipse class="st35" cx="1281.3" cy="968" rx="12.3" ry="14.4"/>
		</g>
		<g>
			<path class="st35" d="M1356.4,937.4c14.4,0,26.1,13.7,26.1,30.6s-11.7,30.6-26.1,30.6h-15.8v-61.2H1356.4z"/>
			<ellipse class="st36" cx="1340.6" cy="968" rx="26.1" ry="30.6"/>
			<ellipse class="st37" cx="1340.6" cy="968" rx="14.4" ry="16.9"/>
			<ellipse class="st35" cx="1340.6" cy="968" rx="12.3" ry="14.4"/>
		</g>
		<path class="st36" d="M1161.7,975.9H1472c2.9,0,5.3-2.4,5.3-5.3v-44.9h-315.6V975.9z"/>
		<g>
			<path class="st36" d="M1432,937.4c14.4,0,26.1,13.7,26.1,30.6s-11.7,30.6-26.1,30.6h-15.8v-61.2H1432z"/>
			<ellipse class="st35" cx="1416.2" cy="968" rx="26.1" ry="30.6"/>
			<ellipse class="st21" cx="1416.2" cy="968" rx="14.4" ry="16.9"/>
			<ellipse class="st24" cx="1416.2" cy="968" rx="12.3" ry="14.4"/>
			<path class="st23" d="M1411.2,968c0,6.5,3.6,11.9,8.6,13.7c5-1.8,8.7-7.3,8.7-13.7s-3.6-11.9-8.7-13.7
				C1414.8,956.1,1411.2,961.6,1411.2,968z"/>
			<path class="st24" d="M1416.7,968c0,4.4,3,7.9,6.8,7.9c1.3,0,2.6-0.5,3.6-1.2c0.9-2,1.4-4.3,1.4-6.7c0-2.4-0.5-4.7-1.4-6.7
				c-1.1-0.8-2.3-1.2-3.6-1.2C1419.7,960.1,1416.7,963.7,1416.7,968z"/>
		</g>
		<path class="st35" d="M1364.6,937.5c-2.9,0-5.3,2.4-5.3,5.3v12c0,2.9,2.4,5.3,5.3,5.3h-47.7c-2.9,0-5.3-2.4-5.3-5.3v-12
			c0-2.9,2.4-5.3,5.3-5.3H1364.6z"/>
		<path class="st0" d="M1416.1,931h-35.3V818.9c0-2.9,2.4-5.3,5.3-5.3h80.6c2.9,0,5.3,2.4,5.3,5.3v141.2h-24.9
			c-3.1-16.7-15.8-29.1-30.9-29.1C1416.2,931,1416.1,931,1416.1,931z"/>
		<path class="st39" d="M1467.3,882.2l-55.5-7.9c-1.6-0.2-2.7-1.6-2.7-3.2v-36.9c0-1.8,1.4-3.2,3.2-3.2h55V882.2z"/>
		<path class="st37" d="M1472,925.7h105.2c2.9,0,5.3,2.4,5.3,5.3v29.1H1472V925.7z"/>
		
			<rect x="1482" y="949.1" transform="matrix(-1 -1.224647e-16 1.224647e-16 -1 2980.825 1909.2206)" class="st0" width="16.8" height="11"/>
		
			<rect x="1482" y="937.4" transform="matrix(-1 -1.224647e-16 1.224647e-16 -1 2980.825 1880.6738)" class="st0" width="16.8" height="5.8"/>
		
			<rect x="1561" y="937.4" transform="matrix(-1 -1.224647e-16 1.224647e-16 -1 3138.7944 1880.6738)" class="st0" width="16.8" height="5.8"/>
		
			<rect x="1561" y="949.1" transform="matrix(-1 -1.224647e-16 1.224647e-16 -1 3138.7944 1909.2206)" class="st0" width="16.8" height="11"/>
		
			<rect x="1516.6" y="951.2" transform="matrix(-1 -1.224647e-16 1.224647e-16 -1 3059.8096 1909.2207)" class="st23" width="26.6" height="6.9"/>
		<polygon class="st24" points="1171.8,931.6 1156,931.6 1140.4,960.1 1156.2,960.1 		"/>
		<g>
			<path class="st36" d="M1192,937.4c14.4,0,26.1,13.7,26.1,30.6s-11.7,30.6-26.1,30.6h-15.8v-61.2H1192z"/>
			<ellipse class="st35" cx="1176.1" cy="968" rx="26.1" ry="30.6"/>
			<ellipse class="st21" cx="1176.1" cy="968" rx="14.4" ry="16.9"/>
			<ellipse class="st24" cx="1176.1" cy="968" rx="12.3" ry="14.4"/>
			<path class="st23" d="M1171.1,968c0,6.5,3.6,11.9,8.6,13.7c5-1.8,8.7-7.3,8.7-13.7s-3.6-11.9-8.7-13.7
				C1174.7,956.1,1171.1,961.6,1171.1,968z"/>
			<path class="st24" d="M1176.6,968c0,4.4,3,7.9,6.8,7.9c1.3,0,2.6-0.5,3.6-1.2c0.9-2,1.4-4.3,1.4-6.7c0-2.4-0.5-4.7-1.4-6.7
				c-1.1-0.8-2.3-1.2-3.6-1.2C1179.6,960.1,1176.6,963.7,1176.6,968z"/>
		</g>
		<g>
			<path class="st36" d="M1251.3,937.4c14.4,0,26.1,13.7,26.1,30.6s-11.7,30.6-26.1,30.6h-15.8v-61.2H1251.3z"/>
			<ellipse class="st35" cx="1235.5" cy="968" rx="26.1" ry="30.6"/>
			<ellipse class="st21" cx="1235.5" cy="968" rx="14.4" ry="16.9"/>
			<ellipse class="st24" cx="1235.5" cy="968" rx="12.3" ry="14.4"/>
			<path class="st23" d="M1230.4,968c0,6.5,3.6,11.9,8.6,13.7c5-1.8,8.7-7.3,8.7-13.7s-3.6-11.9-8.7-13.7
				C1234.1,956.1,1230.4,961.6,1230.4,968z"/>
			<path class="st24" d="M1235.9,968c0,4.4,3,7.9,6.8,7.9c1.3,0,2.6-0.5,3.6-1.2c0.9-2,1.4-4.3,1.4-6.7c0-2.4-0.5-4.7-1.4-6.7
				c-1.1-0.8-2.3-1.2-3.6-1.2C1239,960.1,1235.9,963.7,1235.9,968z"/>
		</g>
		<polygon class="st23" points="1152.2,925.7 1157.8,925.7 1157.8,925.7 1253.8,925.7 1253.8,925.7 1259.4,925.7 1274,958.7 
			1271.2,960.1 1255.6,931.6 1156,931.6 1140.4,960.1 1137.6,958.7 		"/>
		<polygon class="st24" points="1275.2,925.7 1259.4,925.7 1274,958.7 1289.9,958.7 		"/>
		<polygon class="st35" points="1287.1,960.1 1271.2,960.1 1274,958.7 1289.9,958.7 		"/>
		<path class="st35" d="M1380.8,931v-5.3l91.2,0c2.9,0,5.3,2.4,5.3,5.3v29.1l-30.2,0c-3.1-16.7-15.8-29.1-30.9-29.1H1380.8z"/>
		<path class="st35" d="M1380.8,913.1c-2.9,0-5.3,2.4-5.3,5.3v36.4c0,2.9,2.4,5.3,5.3,5.3h4.3c3.1-16.7,15.8-29.3,31.1-29.3
			c15.2,0,28,12.5,31.1,29.3h15.4c-3.3-26.6-22.8-47.1-46.5-47.1H1380.8z"/>
		
			<rect x="1581.9" y="842.3" transform="matrix(-1 -1.224647e-16 1.224647e-16 -1 3175.9961 1713.821)" class="st0" width="12.2" height="29.3"/>
		
			<rect x="1450.4" y="842.3" transform="matrix(-1 -1.224647e-16 1.224647e-16 -1 2912.9976 1713.821)" class="st0" width="12.2" height="29.3"/>
	</g>
	<g>
		<g>
			<g>
				<path class="st35" d="M750.8,981.9h-11.1v-94.6h11.1V981.9z M742.1,979.5h6.3v-89.9h-6.3V979.5z"/>
			</g>
		</g>
		<g>
			<rect x="743.4" y="948.7" class="st35" width="3.7" height="101.6"/>
		</g>
		<g>
			<g>
				<path class="st35" d="M788.4,981.9h-7.9l-0.3-0.8l-35.4-93.9h7.9l0.3,0.8L788.4,981.9z M782.2,979.5h2.8l-33.9-89.9h-2.8
					L782.2,979.5z"/>
			</g>
		</g>
		<g>
			<polygon class="st35" points="811.8,1050.4 808.7,1050.4 770.4,948.7 773.5,948.7 			"/>
		</g>
		<g>
			<g>
				<path class="st35" d="M709.9,981.9h-7.9l35.7-94.6h7.9L709.9,981.9z M705.5,979.5h2.8l33.9-89.9h-2.8L705.5,979.5z"/>
			</g>
		</g>
		<g>
			<polygon class="st35" points="678.6,1050.4 681.7,1050.4 720,948.7 717,948.7 			"/>
		</g>
		<g>
			<g>
				<path class="st40" d="M753.5,887.2H737v-31.4c0-2.3,1.8-4.1,4.1-4.1h8.3c2.3,0,4.1,1.8,4.1,4.1V887.2z M738.6,881.8h13.2v-25.9
					c0-1.3-1.1-2.4-2.4-2.4h-8.3c-1.3,0-2.4,1.1-2.4,2.4V881.8z"/>
			</g>
		</g>
		<g>
			<rect x="738.6" y="861.1" class="st35" width="13.2" height="20.6"/>
		</g>
	</g>
	<g>
		<g>
			<polygon class="st20" points="820.8,885.6 798.7,872.2 776.2,872.2 775.9,873.5 798,886.9 820.4,886.9 			"/>
		</g>
		<g>
			<polygon class="st20" points="820.8,885.6 798.3,885.6 776.2,872.2 798.7,872.2 			"/>
		</g>
		<g>
			<path class="st19" d="M798.6,885.9c-0.4,2.6-3.7,6.2-6.7,5.8c-5-0.7-6.6-6.8-6.1-9.5c0.4-2.1,3.3-1.7,2.4-2.6
				c-1.3-1.5-2.3-3.9-1.1-3.9c1.5,0,6,3.9,9.6,5.6C799.1,882.3,798.8,884.8,798.6,885.9z"/>
		</g>
		<g>
			<path class="st23" d="M855.1,814.9c0,1.7-3.8,3-8.6,3c-4.7,0-8.6-1.8-8.6-3.9c0-2.3,3.8-3.4,8.6-3.4
				C851.3,810.6,855.1,813.2,855.1,814.9z"/>
		</g>
		<g>
			<path class="st23" d="M829.4,815c-0.2,1.4-2.6,3.3-5.7,3.3c-2.3,0-6-1.6-8-3.1c-1.4-1-1.5-1.8-0.2-2.8c1.1-0.9,5.7-3.4,9-4.7
				C827.4,806.6,829.8,812.2,829.4,815z"/>
		</g>
		<g>
			<path class="st19" d="M851.2,810.3c-0.7,6.8-3.6,9.1-4.3,12.9c-1.2,6.5,3.9,14.2,0.4,16.8c-3.3,2.5-14.1-3.1-15.4-6.9
				c-0.3-0.9-1.5-0.8-2.4-0.5c-1.5,0.6-2.2,0.7-3.2,0.7c-1.1,0-1.9-0.8-2.7-2.9c-0.7-1.7-1.1-3.5-1.4-5.8c-0.2-1.3-2.3-1.4-2.3-2.5
				c0-0.9,1.1-2.2,1.5-3.3c0.7-2.3-0.6-7.7-0.4-10.3c0.3-3.5,3.1-12.9,15-13.3C850,794.7,851.7,804.6,851.2,810.3z"/>
		</g>
		<g>
			<path class="st41" d="M836.2,1025.1c2,3.7,3.8,13.9,0.6,17c-3.7,3.5-13.6,0.3-14.8-2.9c-1.4-3.7,4.4-2.9,4.4-16.2
				C826.4,1016,832.8,1018.8,836.2,1025.1z"/>
		</g>
		<g>
			<path class="st41" d="M871.4,1026.1c1.9,5.3,2.8,12.4,1.2,16c-1.7,4-9.1,1.6-11.2-2.3c-2.4-4.5-1.4-9.4,1.2-13.4
				C865.2,1022.4,869.2,1020,871.4,1026.1z"/>
		</g>
		<g>
			<path class="st20" d="M842.5,982.3c1.7,17.5-3.1,44.5-3.1,52.9c-6.1,0.5-10.7-0.8-15.4-3.3c0.6-13,0-35,0-42.6
				c-0.1-14.3-12.2-59.5-1.2-81c5.4-10.6,22-16.3,27.7-0.4c3.7,10.4-1.5,25.6-6.8,44.8C840.7,963.2,842.2,979.6,842.5,982.3z"/>
		</g>
		<g>
			<path class="st20" d="M868.5,966c0.2,10.8,3.5,17.7,5,29c1.8,14.1,0.3,23.3,0.6,39.8c-4.9,0.9-9.5,0.7-14.8-0.1
				c-0.9-11.6-3.7-30.1-6.9-51.8c-2.5-16.5-18.2-51.9-14-71.5c4.1-18.9,31.1-17.1,33.8,5.2C873.8,931.2,868.1,941.7,868.5,966z"/>
		</g>
		<g>
			<path class="st4" d="M851.7,832.8c0,2.3-4.6,4.8-10.8,6.5c-6,1.6-11,1.8-11-0.5c0-1.1,1.3-5,4.1-7.2c2.9-2.4,6.5-3.3,9.7-3.6
				C849.4,827.6,851.7,830.4,851.7,832.8z"/>
		</g>
		<g>
			<path class="st10" d="M877,915.6c-0.3,3-2.6,3.5-4.8,3.5c-5.5,0-48.5,0-54.8,0c0-13.4,0.5-52.9,0.8-67.8c0.1-3.6,1.1-6.8,4.7-9.7
				c3.2-2.6,6.8-4.6,10.7-6.7c6.1-3.3,12-3.4,15.8-3.4c3.5,0,9.9,3.5,13.3,6.3c4.2,3.5,6.1,7.9,7.5,13.7
				C873.5,864.6,878.1,905.2,877,915.6z"/>
		</g>
		<g>
			<path class="st20" d="M840.6,1050.4c-9.5,0-28.2,0-37.2,0c-0.3-2.5-0.2-4.3,1.6-5.7c2.4-1.9,8-1.9,12.2-5c4-3,4.1-5.9,6.2-5.9
				c1.9,0,1.4,4.3,5,5.3c3.3,0.9,6-2.6,9.7-2.6C840.8,1036.4,840.6,1045,840.6,1050.4z"/>
		</g>
		<g>
			<path class="st20" d="M876.8,1050.4c-9.5,0-20.2,0-29.5,0c-0.4-2.8-0.2-4.3,1.5-5.7c1.7-1.3,2.9-0.6,6.4-4.3
				c3.2-3.4,4.1-7.4,5.5-6.7c1.1,0.5,0.1,4.1,3.4,5.4c2.8,1.1,4.8-2.6,8.5-2.6C876,1036.4,876.7,1044.5,876.8,1050.4z"/>
		</g>
		<g>
			<path class="st20" d="M850.9,813.5c-0.2,0.6-1.2,3-2.6,6.5c-1.1,2.8-0.8,4.6-1.8,4.6c-1.7,0-2.4,0-3.2,0
				c-6.5,0-6.2-14.8-11.4-12.7c-1.4,0.5-1.9,3.6-2.9,3.6c-2.7,0-6.9-6.2-5.9-8.7c0.8-1.9,6.6-2.6,10.6-2.6
				C837.7,804.1,852.6,808.8,850.9,813.5z"/>
		</g>
		<g>
			<path class="st21" d="M850.6,815.9c-0.3,0.9-0.9,2-1.5,1.9c-3.1-0.3-5.4-1-8.5-1.5c-1.9-0.3-2.5-2.2-4.2-4.7
				c-2.2-3.1-6.1-7.1-5.3-8.4c0.7-1.1,6.1-0.8,7,1.3c1.5,3.8,2.3,7.1,4.3,7.7c3.1,0.9,5.6,1.3,8.2,1.8
				C851.2,814.1,850.7,815.5,850.6,815.9z"/>
		</g>
		<g>
			<path class="st0" d="M876.5,897.3h-58.8c0-2.2,0-4.4,0.1-6.7h58.2C876.1,892.9,876.3,895.1,876.5,897.3z"/>
		</g>
		<g>
			<path class="st0" d="M874.5,877.7h-56.6c0-2.1,0.1-4.2,0.1-6.3h55.7C873.9,873.4,874.2,875.5,874.5,877.7z"/>
		</g>
		<g>
			<path class="st23" d="M833.8,805.3c0.2,0.3-1.7,0.6-4.3,1.4c-2.8,0.8-7.3,3.3-9,4.3c-0.6,0.4-1.1,0.3-1.2-0.1
				c-0.1-0.3,0.1-0.8,1.1-1.3c2-1.1,5.5-2.7,8.9-3.6C831.1,805.4,833.7,805.1,833.8,805.3z"/>
		</g>
		<g>
			<path class="st20" d="M859.5,831.9c0.6,11,5.9,20,3.6,20c-2.3,0-12.9-8.9-13.5-20c-0.6-11-4.2-20.7-1.9-20.7
				C850.9,811.2,858.8,818.7,859.5,831.9z"/>
		</g>
		<g>
			<path class="st0" d="M855.1,814.9c-1.8-3.1-6-3.5-11.1-3.8c-4.3-0.2-5.6-4.9-11.1-5.1c-3.8-0.1-6.5,1.2-13.9,4.8
				c0-6.1,4.3-16.1,16-18.1C841.4,791.6,854.4,791.3,855.1,814.9z"/>
		</g>
		<g>
			<path class="st4" d="M838.4,863.7c-2.3-11.6-7.7-21.3-15-18.9c-6.5,2.1-1.7,28.9-0.5,37.4c0.8,5.2-1.5,7.8-4.8,6.8
				c-6.9-2-16.7-5-19.8-5.8c-3.1-0.8-5.1,1.5-5.1,3.9c0,2.5,1.5,4.7,3.8,6.2c3.6,2.3,20.9,11,29.2,12.6c6.8,1.3,9.7-2.6,11.5-10.1
				C839.6,888.1,840.4,873.8,838.4,863.7z"/>
		</g>
	</g>
	<g>
		<g>
			<path class="st41" d="M668.5,1026.2c-0.1,4.8,3,7.4,5.2,11.9c2.6,5.2-14.6,6.8-14.5,2c0.1-4.8,0.4-6.5-0.3-10.8
				C658,1022.3,668.6,1021.4,668.5,1026.2z"/>
		</g>
		<g>
			<path class="st41" d="M709.6,1025.6c0,4.8,2.4,6.7,6.4,10.8c3.3,3.4,2.3,6.8-2.4,7.8c-5.1,1.1-15.9,1.6-15.9-4.1
				c0-4.8,0.2-6.5-0.5-10.8C696,1022.3,709.6,1020.8,709.6,1025.6z"/>
		</g>
		<g>
			<path class="st23" d="M703.8,817.1c-0.1,0.6-4.2,0.2-6.8-0.3c-2.7-0.5-4.9-1.1-4.8-1.7c0.1-0.6,2.3-0.9,5-0.5
				C699.8,814.9,703.9,816.5,703.8,817.1z"/>
		</g>
		<g>
			<path class="st23" d="M724.3,822.5c0.1,1.6-0.1,3.7-0.3,4.9c-0.2,1.3-2.5,0.8-3.4,0.4c-1.2-0.6-1.7-1.7-1.7-4.3
				c0-2.7,1.4-5.7,2.7-5.7S724.2,819.9,724.3,822.5z"/>
		</g>
		<g>
			<path class="st19" d="M719.6,823.8c-0.8,2.2-0.1,4.7-1.1,7c-1.8,4-4.1,7.3-8.7,7.3c-5,0-10.9-5.8-12.1-14.4
				c-1.1-8.2,0.2-15.7,9.1-17.1c8.8-1.4,15.8,6.4,15.6,12.8C722.3,821.3,720.3,821.9,719.6,823.8z"/>
		</g>
		<g>
			<path class="st20" d="M715.6,819.8c-0.8,5.2-2.6,9.1-7,10.3c-3.1,0.8-7.3-0.6-9.2-2.6c-1.8-1.8-2.9-4.8-3.1-8.6
				c-0.1-3.1,0.1-6.9,2.3-9.4c3.6-4.1,9.4-2.6,11.9-1.4C714.1,809.9,716.4,814.7,715.6,819.8z"/>
		</g>
		<g>
			<path class="st21" d="M712.9,823c-3.2,1.2-14.5-1.4-16.4-2.5c-1.6-0.9-1-2.9-0.2-3.1c0.8-0.2,9.8,2.1,11.9,2.7
				c2.2,0.6,4.3,0.3,5.8-1.3c1.2-1.2,2.4-1.5,2.9-1.4C718.3,818,715.4,822.1,712.9,823z"/>
		</g>
		<g>
			<path class="st0" d="M722.6,808.4c1.4,3.4,2.8,11.1,1.4,19.1c-1.7-13.7-5.8-7.4-10.2-7.4c-5.8,0-10.6-5.4-21.6-4.8
				c2.4-12.4,11.7-16.9,18.3-16C715.1,799.8,720.1,802.4,722.6,808.4z"/>
		</g>
		<g>
			<path class="st4" d="M708.2,831.3c-0.8,1.7-6.8,0.2-11-0.8c-3.7-0.9-8.3-2.4-8.3-4.3c0-2.9,4.2-3.7,8.4-3.3
				C705.1,823.5,709.3,828.7,708.2,831.3z"/>
		</g>
		<g>
			<path class="st20" d="M700.1,1032.1c-0.7,0-1.4-0.1-2-0.2c-2-0.4-2.4-2.6-2.6-3.3c-1.6-8.5-5.4-35.6-5.4-49.2
				c0-2.3-0.7-5.5-2.1-9.6c-5.4-15.8-19.3-39.2-27.1-51.7c-1.8-2.8-10.2-22.9-4.1-28.2c2-1.7,4.7-2.6,8-2.6c8.2,0,16.3,1.8,23.7,8.4
				c8.1,7.2,11.5,25,14.6,39.3c3.6,16.6,5.9,34.5,6.3,43.5c0.7,14.8,1.8,41.1,1.8,48.6c0,1.7-0.8,2.8-2.3,3.3
				C706.6,1031.3,703,1032.1,700.1,1032.1z"/>
		</g>
		<g>
			<path class="st20" d="M661.5,1033.5c-1.5,0-3.3-0.3-3.9-2.4c-2.8-9.6-9-34.9-5.9-62.1c0.8-6.8-0.7-17.4-2.2-28.6
				c-1.1-8-2.2-16.3-2.6-23.8c-0.9-17.7-0.1-25.1,3-28.4c0.7-0.7,1.8-1.1,3.1-1.1c2.7,0,7.9,1.1,12.6,5.4c4.7,4.3,8.6,11.8,11.1,23
				c3.2,14-4.5,52.1-6.2,60.1c-0.8,4.1-1.6,8.7-1.7,13.3c-0.3,7.7,0.3,16.3,0.8,23.9c0.4,6,0.7,11.2,0.6,14.7
				C670,1031.7,664.9,1033.5,661.5,1033.5z"/>
		</g>
		<g>
			<path class="st10" d="M719.4,839.9c1.2,7.3-10.3,28.1-23.1,42.3c-1.9,2.1-2.8,3.6-1.7,6.2c3.1,7.4,5.9,16.9,1.9,20.3
				c-2-5.7-7.7-15.1-18.5-15.1c-12.8,0-24.2,0-27.7,0c-3.5,0-3.5,4.3-3.6,5.6c-3.2-0.6-5.3-2.9-5.3-5.4c0-19.7,14-49.7,19.6-58.2
				c2.2-3.4,6.5-5.8,8.6-6.6c2.4-0.9,12-5,21.8-3.8C705.5,826.6,718.6,835,719.4,839.9z"/>
		</g>
		<g>
			<path class="st20" d="M734.7,1050.3c-9.4,0.2-34.1,0-39.4,0c0-4.9-0.3-12.4,1.4-14.2c2.2-2.3,6.3,2.2,10.9,1.7
				c3.8-0.5,3.5-4.4,5.7-5.7c2.2-1.2,4.6,6.5,14.6,10C733.3,1043.9,736.3,1045.9,734.7,1050.3z"/>
		</g>
		<g>
			<path class="st20" d="M680.7,1046.6c0.7,1.8,0.3,2.9-0.4,3.7c-3.4,0-18.1,0-22,0c0-5.8,0-8.4,0.4-11.8c0.3-2.1,1.8-3.1,3.1-3.1
				c2.2,0,4.1,3,7.2,2.3c2.5-0.5,2.3-3.4,3.7-3c1.7,0.6,2.6,3.7,4.1,6.5C678.3,1043.7,680.1,1045.1,680.7,1046.6z"/>
		</g>
		<g>
			<path class="st0" d="M694.2,886.9c-3-5.8-8.2-11.9-18.8-13.5c-7.1-1.1-22.6-0.6-30.6-0.2c0.6-2.2,1.3-4.5,2.1-6.7
				c8.9-0.3,23.9-0.7,31,0.3c10.4,1.4,15.3,10,17.6,16.4C694.5,884.4,694,885.5,694.2,886.9z"/>
		</g>
		<g>
			<path class="st0" d="M705.6,870.4c-0.9,1.3-1.8,2.5-2.7,3.7c-3.2-7.5-10.8-16-16.9-17.3c-7.3-1.6-26.2-0.8-35.5-0.3
				c0.9-2.2,1.8-4.4,2.7-6.4c10.1-0.5,26.9-0.9,34.9,0.8C698,853.1,703.1,863.9,705.6,870.4z"/>
		</g>
		<g>
			<path class="st19" d="M744.9,917.4c-1.4,3.4-3.5,4-5.1,3.7c-3.5-0.7-5.1-1.8-6.8-5.2c-1-1.9-1.1-6-0.5-7.8c0.6-1.7,3-2.6,4.5-2.7
				c1.2,0,2.1,0.9,2.9,1.4c0.7,0.4,4.1,0.5,5.6,2.7C746.8,911.5,746.1,914.5,744.9,917.4z"/>
		</g>
		<g>
			<path class="st4" d="M740,910.5c-2.5-2.9-8.6-7.6-13.8-13.3c-3-3.2-5.2-5.8-5.1-12.7c0.2-19.7,2.1-46.7-5.3-47.4
				c-6.7-0.7-11.8,4.9-16.5,10.6c-1.9,2.3-3,5.9-2.2,9.6c1.6,6.9,6.6,33.2,8.4,39c1.7,5.6,3.8,7.9,7.4,11c7,5.9,15.5,13,21.4,13
				C741.3,920.4,742.8,913.9,740,910.5z"/>
		</g>
	</g>
</g>
</svg>
