<?xml version="1.0" encoding="utf-8"?>
<!-- Generator: Adobe Illustrator 28.0.0, SVG Export Plug-In . SVG Version: 6.00 Build 0)  -->
<svg version="1.1" id="Layer_1" xmlns="http://www.w3.org/2000/svg" xmlns:xlink="http://www.w3.org/1999/xlink" x="0px" y="0px"
	 viewBox="0 0 40.4 47.1" style="enable-background:new 0 0 40.4 47.1;" xml:space="preserve">
<style type="text/css">
	.st0{display:none;}
	.st1{display:inline;}
	.st2{fill:#E5E8EC;}
	.st3{fill:#EAF4FE;stroke:#6366F1;stroke-width:2;}
	.st4{fill:#A5B4FC;}
	.st5{fill:#6366F1;}
	.st6{fill:none;stroke:#FFFFFF;stroke-width:2;}
</style>
<g id="Background">
</g>
<g id="Square" class="st0">
	<g class="st1">
		<rect x="-7.2" y="-1.5" class="st2" width="48" height="48"/>
	</g>
	<g id="Layer_4" class="st1">
	</g>
</g>
<g id="Icons">
	<g>
		<path class="st3" d="M24.1,46.1H4c-1.7,0-3-1.4-3-3V4c0-1.7,1.4-3,3-3h20c1.7,0,3,1.4,3,3v39C27.1,44.7,25.7,46.1,24.1,46.1z"/>
		<path class="st4" d="M36.4,7.9h-22c-2.2,0-4,1.8-4,4v16c0,2.2,1.8,4,4,4h2v7l7-7h13c2.2,0,4-1.8,4-4v-16
			C40.4,9.7,38.6,7.9,36.4,7.9z"/>
		<path class="st5" d="M6.4,1v1c0,1,0.8,1.8,1.8,1.8H20c1,0,1.8-0.8,1.8-1.8V1H6.4z"/>
		<polyline class="st6" points="20.8,19.1 23.9,22.2 30.2,15.8 		"/>
	</g>
</g>
</svg>
