<?xml version="1.0" encoding="utf-8"?>
<!-- Generator: Adobe Illustrator 24.0.1, SVG Export Plug-In . SVG Version: 6.00 Build 0)  -->
<svg version="1.1" xmlns="http://www.w3.org/2000/svg" xmlns:xlink="http://www.w3.org/1999/xlink" x="0px" y="0px"
	 viewBox="0 0 40.4 47.1" style="enable-background:new 0 0 40.4 47.1;" xml:space="preserve">
<style type="text/css">
	.st0{display:none;}
	.st1{display:inline;}
	.st2{fill:#E5E8EC;}
	.st3{fill:#C5E1F9;}
	.st4{fill:none;stroke:#0561FC;stroke-width:5;stroke-miterlimit:10;}
	.st5{fill:#0561FC;}
	.st6{fill:none;stroke:#FFFFFF;stroke-width:3.4127;stroke-miterlimit:10;}
	.st7{fill:#7EB3FF;}
	.st8{fill:none;stroke:#EAF4FE;stroke-width:2;}
	.st9{fill:#B2D2EA;}
	.st10{fill:#EAF4FE;}
	.st11{fill:#FFC400;}
	.st12{fill:none;stroke:#0561FC;stroke-width:2;}
	.st13{fill:none;stroke:#9AC7F7;stroke-width:2;}
	.st14{fill:#0450CF;}
	.st15{fill:none;stroke:#C5E1F9;stroke-width:2;}
	.st16{fill:none;stroke:#282D33;stroke-width:2;}
	.st17{fill:#0561FC;stroke:#0561FC;stroke-width:2;}
	.st18{fill:#7EB3FF;stroke:#7EB3FF;stroke-width:2;}
	.st19{fill:none;stroke:#7EB3FF;stroke-width:2;}
	.st20{fill:#FD2227;}
	.st21{fill:#FFAB01;}
	.st22{fill:none;stroke:#FFFFFF;stroke-width:2;}
	.st23{fill:none;stroke:#0561FC;stroke-width:3.1399;}
	.st24{fill:#FFBF0D;}
	.st25{fill:#9AC7F7;}
	.st26{fill:#34A853;}
	.st27{fill:none;stroke:#0561FC;stroke-width:3.2246;stroke-miterlimit:10;}
	.st28{fill:none;stroke:#0561FC;stroke-width:4.8196;}
	.st29{fill:#EAF4FE;stroke:#0561FC;stroke-width:2;}
	.st30{fill:none;stroke:#0561FC;stroke-width:2;stroke-miterlimit:10;}
	.st31{fill:none;stroke:#EAF4FE;stroke-width:2;stroke-miterlimit:10;}
	.st32{fill:none;stroke:#7EB3FF;stroke-width:3.4127;stroke-miterlimit:10;}
	.st33{fill:none;stroke:#B2D2EA;stroke-width:2;}
	.st34{fill:none;stroke:#0561FC;stroke-width:2.6163;}
	.st35{fill:#0561FC;stroke:#0561FC;stroke-width:2;stroke-miterlimit:10;}
	.st36{fill:none;stroke:#0561FC;stroke-width:5.5196;}
	.st37{fill:#FFFFFF;}
</style>
<g id="Background">
</g>
<g id="Square" class="st0">
	<g class="st1">
		<rect x="-7.2" y="-1.5" class="st2" width="48" height="48"/>
	</g>
	<g id="Layer_4" class="st1">
	</g>
</g>
<g id="Icons">
	<g>
		<path class="st29" d="M24.1,46.1H4c-1.7,0-3-1.4-3-3V4c0-1.7,1.4-3,3-3h20c1.7,0,3,1.4,3,3v39C27.1,44.7,25.7,46.1,24.1,46.1z"/>
		<path class="st7" d="M36.4,7.9h-22c-2.2,0-4,1.8-4,4v16c0,2.2,1.8,4,4,4h2v7l7-7h13c2.2,0,4-1.8,4-4v-16
			C40.4,9.7,38.6,7.9,36.4,7.9z"/>
		<path class="st5" d="M6.4,1v1c0,1,0.8,1.8,1.8,1.8h11.8c1,0,1.8-0.8,1.8-1.8V1H6.4z"/>
		<polyline class="st22" points="20.8,19.1 23.9,22.2 30.2,15.8 		"/>
	</g>
</g>
</svg>
